{
.appVersion = "3436";
.formatVersion = 3;
DisplayStrings = (
"/_part.C-narrow €"
);
axes = (
{
name = Weight;
tag = wght;
},
{
name = Width;
tag = wdth;
}
);
classes = (
{
automatic = 1;

glyphs = (
{
glyphname = C;
kernLeft = RND_LEFT;
lastChange = "2022-04-08 18:51:28 +0000";
layers = (
{
anchors = (
{
name = bottom;
pos = (429,0);
},
{
name = connect;
pos = (162,400);
},
{
name = top;
pos = (429,800);
}
);
background = {
shapes = (
{
ref = O;
}
);
};
layerId = m01;
shapes = (
{
closed = 1;
nodes = (
(606,-16,o),
(739,98,o),
(760,286,c),
(654,286,l),
(623,164,o),
(540,92,o),
(425,92,cs),
(267,92,o),
(170,209,o),
(170,400,cs),
(170,591,o),
(270,708,o),
(433,708,cs),
(565,708,o),
(651,631,o),
(674,500,c),
(780,500,l),
(763,698,o),
(629,816,o),
(433,816,cs),
(207,816,o),
(56,650,o),
(56,400,cs),
(56,150,o),
(204,-16,o),
(425,-16,cs)
);
}
);
width = 818;
},
{
anchors = (
{
name = bottom;
pos = (456,0);
},
{
name = connect;
pos = (224,400);
},
{
name = top;
pos = (456,800);
}
);
background = {
shapes = (
{
ref = O;
}
);
};
layerId = m002;
shapes = (
{
closed = 1;
nodes = (
(648,-20,o),
(797,110,o),
(812,306,c),
(636,306,l),
(611,211,o),
(538,152,o),
(440,152,cs),
(307,152,o),
(226,246,o),
(226,400,cs),
(226,554,o),
(310,648,o),
(448,648,cs),
(553,648,o),
(629,586,o),
(652,484,c),
(828,484,l),
(817,686,o),
(665,820,o),
(448,820,cs),
(202,820,o),
(38,652,o),
(38,400,cs),
(38,148,o),
(199,-20,o),
(440,-20,cs)
);
}
);
width = 854;
},
{
anchors = (
{
name = bottom;
pos = (576,0);
},
{
name = connect;
pos = (162,400);
},
{
name = top;
pos = (576,800);
}
);
background = {
shapes = (
{
ref = O;
}
);
};
layerId = m003;
shapes = (
{
closed = 1;
nodes = (
(826,-16,o),
(1004,99,o),
(1030,286,c),
(923,286,l),
(879,157,o),
(751,84,o),
(562,84,cs),
(312,84,o),
(172,198,o),
(172,400,cs),
(172,602,o),
(316,716,o),
(572,716,cs),
(769,716,o),
(901,640,o),
(943,504,c),
(1050,504,l),
(1030,697,o),
(848,816,o),
(572,816,cs),
(252,816,o),
(56,658,o),
(56,400,cs),
(56,142,o),
(248,-16,o),
(562,-16,cs)
);
}
);
width = 1088;
},
{
anchors = (
{
name = bottom;
pos = (598,0);
},
{
name = connect;
pos = (230,400);
},
{
name = top;
pos = (598,800);
}
);
background = {
shapes = (
{
ref = O;
}
);
};
layerId = m004;
shapes = (
{
closed = 1;
nodes = (
(895,-20,o),
(1081,97,o),
(1100,306,c),
(914,306,l),
(884,196,o),
(772,140,o),
(584,140,cs),
(354,140,o),
(236,228,o),
(236,400,cs),
(236,572,o),
(356,660,o),
(588,660,cs),
(790,660,o),
(906,600,o),
(930,484,c),
(1116,484,l),
(1105,699,o),
(915,820,o),
(588,820,cs),
(240,820,o),
(44,669,o),
(44,400,cs),
(44,131,o),
(238,-20,o),
(584,-20,cs)
);
}
);
width = 1146;
},
{
anchors = (
{
name = bottom;
pos = (360,0);
},
{
name = connect;
pos = (156,400);
},
{
name = top;
pos = (360,800);
}
);
background = {
shapes = (
{
pos = (6,0);
ref = O;
}
);
};
layerId = m005;
shapes = (
{
closed = 1;
nodes = (
(513,-16,o),
(612,93,o),
(624,286,c),
(519,286,l),
(500,157,o),
(444,90,o),
(348,90,cs),
(227,90,o),
(164,195,o),
(164,400,cs),
(164,605,o),
(229,710,o),
(354,710,cs),
(451,710,o),
(510,639,o),
(533,500,c),
(638,500,l),
(625,702,o),
(523,816,o),
(354,816,cs),
(159,816,o),
(50,666,o),
(50,400,cs),
(50,134,o),
(157,-16,o),
(348,-16,cs)
);
}
);
width = 672;
},
{
anchors = (
{
name = bottom;
pos = (382,0);
},
{
name = connect;
pos = (219,400);
},
{
name = top;
pos = (382,800);
}
);
background = {
shapes = (
{
ref = O;
}
);
};
layerId = m006;
shapes = (
{
closed = 1;
nodes = (
(545,-20,o),
(653,97,o),
(667,306,c),
(493,306,l),
(473,202,o),
(430,148,o),
(362,148,cs),
(269,148,o),
(221,234,o),
(221,400,cs),
(221,566,o),
(270,652,o),
(366,652,cs),
(443,652,o),
(489,595,o),
(507,484,c),
(681,484,l),
(672,699,o),
(559,820,o),
(366,820,cs),
(153,820,o),
(33,669,o),
(33,400,cs),
(33,131,o),
(151,-20,o),
(362,-20,cs)
);
}
);
width = 703;
},
{
anchors = (
{
name = bottom;
pos = (420,0);
},
{
name = connect;
pos = (90,400);
},
{
name = top;
pos = (420,800);
}
);
background = {
shapes = (
{
ref = O;
}
);
};
layerId = m007;
shapes = (
{
closed = 1;
nodes = (
(575,-12,o),
(694,97,o),
(716,276,c),
(675,276,l),
(655,121,o),
(552,26,o),
(403,26,cs),
(214,26,o),
(98,168,o),
(98,400,cs),
(98,632,o),
(218,774,o),
(413,774,cs),
(565,774,o),
(669,671,o),
(687,504,c),
(728,504,l),
(708,695,o),
(588,812,o),
(413,812,cs),
(192,812,o),
(56,655,o),
(56,400,cs),
(56,145,o),
(188,-12,o),
(403,-12,cs)
);
}
);
width = 766;
},
{
anchors = (
{
name = bottom;
pos = (446,0);
},
{
name = connect;
pos = (324,400);
},
{
name = top;
pos = (446,800);
}
);
background = {
shapes = (
{
ref = O;
}
);
};
layerId = m008;
shapes = (
{
closed = 1;
nodes = (
(677,-26,o),
(828,115,o),
(838,346,c),
(526,346,l),
(520,275,o),
(491,238,o),
(440,238,cs),
(377,238,o),
(344,293,o),
(344,400,cs),
(344,507,o),
(377,562,o),
(442,562,cs),
(497,562,o),
(528,522,o),
(534,444,c),
(846,444,l),
(838,681,o),
(684,826,o),
(442,826,cs),
(179,826,o),
(18,664,o),
(18,400,cs),
(18,136,o),
(178,-26,o),
(440,-26,cs)
);
}
);
width = 859;
},
{
anchors = (
{
name = bottom;
pos = (338,0);
},
{
name = connect;
pos = (84,400);
},
{
name = top;
pos = (338,800);
}
);
background = {
shapes = (
{
ref = O;
}
);
};
layerId = m009;
shapes = (
{
closed = 1;
nodes = (
(478,-12,o),
(568,92,o),
(582,276,c),
(541,276,l),
(528,116,o),
(452,26,o),
(331,26,cs),
(178,26,o),
(92,161,o),
(92,400,cs),
(92,639,o),
(182,774,o),
(341,774,cs),
(464,774,o),
(540,677,o),
(551,504,c),
(592,504,l),
(580,701,o),
(490,812,o),
(341,812,cs),
(155,812,o),
(50,664,o),
(50,400,cs),
(50,136,o),
(151,-12,o),
(331,-12,cs)
);
}
);
width = 626;
},
{
anchors = (
{
name = bottom;
pos = (550,0);
},
{
name = connect;
pos = (96,400);
},
{
name = top;
pos = (550,800);
}
);
background = {
shapes = (
{
ref = O;
}
);
};
layerId = m010;
shapes = (
{
closed = 1;
nodes = (
(799,-12,o),
(961,92,o),
(986,276,c),
(945,276,l),
(920,116,o),
(773,26,o),
(536,26,cs),
(260,26,o),
(105,161,o),
(105,400,cs),
(105,639,o),
(264,774,o),
(548,774,cs),
(795,774,o),
(944,677,o),
(961,504,c),
(1002,504,l),
(985,701,o),
(822,812,o),
(548,812,cs),
(237,812,o),
(62,664,o),
(62,400,cs),
(62,136,o),
(233,-12,o),
(536,-12,cs)
);
}
);
width = 1044;
},
{
anchors = (
{
name = bottom;
pos = (620,0);
},
{
name = connect;
pos = (418,400);
},
{
name = top;
pos = (620,800);
}
);
background = {
shapes = (
{
ref = O;
}
);
};
layerId = "434FAEF3-677A-47AD-84F7-3A7F762C5BD0";
shapes = (
{
closed = 1;
nodes = (
(961,-26,o),
(1150,100,o),
(1162,346,c),
(772,346,l),
(766,275,o),
(710,238,o),
(606,238,cs),
(495,238,o),
(438,293,o),
(438,400,cs),
(438,507,o),
(496,562,o),
(608,562,cs),
(721,562,o),
(782,522,o),
(788,444,c),
(1178,444,l),
(1168,696,o),
(974,826,o),
(608,826,cs),
(219,826,o),
(18,681,o),
(18,400,cs),
(18,119,o),
(218,-26,o),
(606,-26,cs)
);
}
);
width = 1191;
},
{
anchors = (
{
name = bottom;
pos = (386,0);
},
{
name = connect;
pos = (286,400);
},
{
name = top;
pos = (386,800);
}
);
background = {
shapes = (
{
ref = O;
}
);
};
layerId = "C0ED73B8-BF3D-4D9D-8EF3-572E464554C2";
shapes = (
{
closed = 1;
nodes = (
(583,-26,o),
(704,108,o),
(714,346,c),
(442,346,l),
(436,268,o),
(417,234,o),
(378,234,cs),
(328,234,o),
(306,284,o),
(306,400,cs),
(306,516,o),
(328,566,o),
(380,566,cs),
(425,566,o),
(446,529,o),
(450,444,c),
(722,444,l),
(714,688,o),
(591,826,o),
(380,826,cs),
(147,826,o),
(18,673,o),
(18,400,cs),
(18,127,o),
(146,-26,o),
(378,-26,cs)
);
}
);
width = 735;
}
);
metricLeft = O;
metricRight = "=SQRU/2.8";
unicode = 67;
},
{
glyphname = Eth;
kernRight = RND_RIGHT;
lastChange = "2022-10-11 19:09:44 +0000";
layers = (
{
layerId = m009;
shapes = (
{
pos = (89,0);
ref = D;
},
{
closed = 1;
nodes = (
(95,382,l),
(393,382,l),
(393,418,l),
(95,418,l)
);
}
);
width = 736;
},
{
layerId = m007;
shapes = (
{
pos = (100,0);
ref = D;
},
{
closed = 1;
nodes = (
(106,382,l),
(458,382,l),
(458,418,l),
(106,418,l)
);
}
);
width = 857;
},
{
layerId = m010;
shapes = (
{
pos = (162,0);
ref = D;
},
{
closed = 1;
nodes = (
(117,382,l),
(607,382,l),
(607,418,l),
(117,418,l)
);
}
);
width = 1169;
},
{
layerId = m005;
shapes = (
{
pos = (89,0);
ref = D;
},
{
closed = 1;
nodes = (
(95,350,l),
(425,350,l),
(425,450,l),
(95,450,l)
);
}
);
width = 790;
},
{
layerId = m01;
shapes = (
{
pos = (100,0);
ref = D;
},
{
closed = 1;
nodes = (
(106,350,l),
(496,350,l),
(496,450,l),
(106,450,l)
);
}
);
width = 922;
},
{
layerId = m003;
shapes = (
{
pos = (150,0);
ref = D;
},
{
closed = 1;
nodes = (
(106,352,l),
(650,352,l),
(650,448,l),
(106,448,l)
);
}
);
width = 1230;
},
{
layerId = m006;
shapes = (
{
pos = (69,0);
ref = D;
},
{
closed = 1;
nodes = (
(62,320,l),
(426,320,l),
(426,480,l),
(62,480,l)
);
}
);
width = 782;
},
{
layerId = m002;
shapes = (
{
pos = (87,0);
ref = D;
},
{
closed = 1;
nodes = (
(73,320,l),
(505,320,l),
(505,480,l),
(73,480,l)
);
}
);
width = 932;
},
{
layerId = m004;
shapes = (
{
pos = (161,0);
ref = D;
},
{
closed = 1;
nodes = (
(84,324,l),
(682,324,l),
(682,476,l),
(84,476,l)
);
}
);
width = 1271;
},
{
layerId = "C0ED73B8-BF3D-4D9D-8EF3-572E464554C2";
shapes = (
{
pos = (35,0);
ref = D;
},
{
closed = 1;
nodes = (
(35,310,l),
(399,310,l),
(399,490,l),
(35,490,l)
);
}
);
width = 728;
},
{
layerId = m008;
shapes = (
{
pos = (38,0);
ref = D;
},
{
closed = 1;
nodes = (
(35,310,l),
(468,310,l),
(468,490,l),
(35,490,l)
);
}
);
width = 857;
},
{
layerId = "434FAEF3-677A-47AD-84F7-3A7F762C5BD0";
shapes = (
{
pos = (100,0);
ref = D;
},
{
closed = 1;
nodes = (
(35,310,l),
(665,310,l),
(665,490,l),
(35,490,l)
);
}
);
width = 1237;
}
);
metricLeft = D;
metricRight = D;
unicode = 208;
},
{
glyphname = Schwa;
lastChange = "2023-04-26 17:40:32 +0000";
layers = (
{
anchors = (
{
name = connect;
pos = (619,0);
}
);
background = {
shapes = (
{
pos = (1,0);
ref = O;
}
);
};
layerId = m009;
shapes = (
{
closed = 1;
nodes = (
(591,408,l),
(69,408,l),
(68,397,o),
(67,384,o),
(67,368,cs),
(67,125,o),
(161,-12,o),
(329,-12,cs),
(515,-12,o),
(619,133,o),
(619,392,cs),
(619,661,o),
(514,812,o),
(327,812,cs),
(188,812,o),
(88,717,o),
(50,548,c),
(92,548,l),
(126,693,o),
(211,774,o),
(327,774,cs),
(487,774,o),
(577,636,o),
(577,392,cs),
(577,158,o),
(488,26,o),
(329,26,cs),
(188,26,o),
(109,151,o),
(109,373,c),
(89,372,l),
(591,372,l)
);
}
);
width = 669;
},
{
anchors = (
{
name = connect;
pos = (760,0);
}
);
background = {
shapes = (
{
pos = (4,0);
ref = O;
}
);
};
layerId = m007;
shapes = (
{
closed = 1;
nodes = (
(736,408,l),
(80,408,l),
(79,402,o),
(77,387,o),
(77,368,cs),
(77,132,o),
(203,-12,o),
(409,-12,cs),
(627,-12,o),
(760,142,o),
(760,392,cs),
(760,652,o),
(625,812,o),
(404,812,cs),
(235,812,o),
(103,712,o),
(56,548,c),
(95,548,l),
(142,688,o),
(259,774,o),
(404,774,cs),
(599,774,o),
(718,629,o),
(718,392,cs),
(718,165,o),
(601,26,o),
(409,26,cs),
(229,26,o),
(119,161,o),
(119,373,c),
(96,372,l),
(736,372,l)
);
}
);
width = 816;
},
{
anchors = (
{
name = connect;
pos = (1044,0);
}
);
background = {
shapes = (
{
pos = (2,0);
ref = O;
}
);
};
layerId = m010;
shapes = (
{
closed = 1;
nodes = (
(1024,408,l),
(87,408,l),
(85,396,o),
(84,385,o),
(84,368,cs),
(84,125,o),
(255,-12,o),
(560,-12,cs),
(870,-12,o),
(1044,133,o),
(1044,392,cs),
(1044,661,o),
(865,812,o),
(546,812,cs),
(288,812,o),
(124,722,o),
(62,548,c),
(105,548,l),
(166,697,o),
(316,774,o),
(546,774,cs),
(837,774,o),
(1001,636,o),
(1001,392,cs),
(1001,158,o),
(842,26,o),
(560,26,cs),
(283,26,o),
(127,151,o),
(127,373,c),
(106,372,l),
(1024,372,l)
);
}
);
width = 1106;
},
{
anchors = (
{
name = connect;
pos = (680,0);
}
);
background = {
shapes = (
{
pos = (10,0);
ref = O;
}
);
};
layerId = m005;
shapes = (
{
closed = 1;
nodes = (
(604,435,l),
(68,435,l),
(67,429,o),
(65,411,o),
(65,378,cs),
(65,126,o),
(172,-16,o),
(361,-16,cs),
(565,-16,o),
(680,131,o),
(680,393,cs),
(680,664,o),
(562,816,o),
(353,816,cs),
(203,816,o),
(88,716,o),
(50,553,c),
(157,553,l),
(201,657,o),
(269,710,o),
(353,710,cs),
(494,710,o),
(566,602,o),
(566,393,cs),
(566,193,o),
(496,90,o),
(361,90,cs),
(241,90,o),
(179,189,o),
(179,380,c),
(150,333,l),
(604,333,l)
);
}
);
width = 730;
},
{
anchors = (
{
name = connect;
pos = (830,0);
}
);
background = {
shapes = (
{
pos = (14,0);
ref = O;
}
);
};
layerId = m01;
shapes = (
{
closed = 1;
nodes = (
(755,435,l),
(83,435,l),
(81,422,o),
(80,407,o),
(80,391,cs),
(80,139,o),
(218,-16,o),
(443,-16,cs),
(675,-16,o),
(830,148,o),
(830,393,cs),
(830,647,o),
(673,816,o),
(437,816,cs),
(258,816,o),
(105,710,o),
(56,552,c),
(169,552,l),
(218,649,o),
(320,708,o),
(437,708,cs),
(610,708,o),
(716,588,o),
(716,393,cs),
(716,206,o),
(612,92,o),
(443,92,cs),
(289,92,o),
(194,206,o),
(194,393,c),
(166,331,l),
(755,331,l)
);
}
);
width = 886;
},
{
anchors = (
{
name = connect;
pos = (1118,0);
}
);
background = {
shapes = (
{
pos = (22,0);
ref = O;
}
);
};
layerId = m003;
shapes = (
{
closed = 1;
nodes = (
(1029,434,l),
(90,434,l),
(89,427,o),
(87,413,o),
(87,391,cs),
(87,131,o),
(270,-16,o),
(594,-16,cs),
(929,-16,o),
(1118,131,o),
(1118,393,cs),
(1118,666,o),
(939,816,o),
(591,816,cs),
(328,816,o),
(143,727,o),
(56,553,c),
(178,553,l),
(268,661,o),
(411,716,o),
(591,716,cs),
(864,716,o),
(1002,602,o),
(1002,393,cs),
(1002,195,o),
(855,84,o),
(594,84,cs),
(344,84,o),
(203,195,o),
(203,393,c),
(177,337,l),
(1029,337,l)
);
}
);
width = 1174;
},
{
anchors = (
{
name = connect;
pos = (703,0);
}
);
background = {
shapes = (
{
pos = (-2,0);
ref = O;
}
);
};
layerId = m006;
shapes = (
{
closed = 1;
nodes = (
(585,471,l),
(55,471,l),
(51,453,o),
(50,424,o),
(50,396,cs),
(50,130,o),
(163,-20,o),
(363,-20,cs),
(581,-20,o),
(703,130,o),
(703,396,cs),
(703,667,o),
(580,820,o),
(360,820,cs),
(199,820,o),
(81,722,o),
(33,548,c),
(228,548,l),
(254,617,o),
(299,652,o),
(360,652,cs),
(462,652,o),
(515,565,o),
(515,396,cs),
(515,232,o),
(463,148,o),
(363,148,cs),
(281,148,o),
(238,232,o),
(238,396,c),
(174,319,l),
(585,319,l)
);
}
);
width = 736;
},
{
anchors = (
{
name = connect;
pos = (859,0);
}
);
background = {
shapes = (
{
pos = (1,0);
ref = O;
}
);
};
layerId = m002;
shapes = (
{
closed = 1;
nodes = (
(730,474,l),
(66,474,l),
(61,451,o),
(58,424,o),
(58,396,cs),
(58,144,o),
(213,-20,o),
(445,-20,cs),
(693,-20,o),
(859,146,o),
(859,396,cs),
(859,650,o),
(693,820,o),
(443,820,cs),
(261,820,o),
(99,711,o),
(38,548,c),
(237,548,l),
(278,610,o),
(356,648,o),
(443,648,cs),
(584,648,o),
(671,552,o),
(671,396,cs),
(671,245,o),
(585,152,o),
(445,152,cs),
(318,152,o),
(246,240,o),
(246,396,c),
(191,316,l),
(730,316,l)
);
}
);
width = 897;
},
{
anchors = (
{
name = connect;
pos = (1141,0);
}
);
background = {
shapes = (
{
pos = (-3,0);
ref = O;
}
);
};
layerId = m004;
shapes = (
{
closed = 1;
nodes = (
(983,466,l),
(73,466,l),
(68,446,o),
(66,422,o),
(66,394,cs),
(66,129,o),
(255,-20,o),
(592,-20,cs),
(943,-20,o),
(1141,130,o),
(1141,396,cs),
(1141,671,o),
(947,820,o),
(591,820,cs),
(321,820,o),
(124,722,o),
(44,548,c),
(254,548,l),
(320,622,o),
(435,660,o),
(591,660,cs),
(831,660,o),
(949,574,o),
(949,396,cs),
(949,227,o),
(828,140,o),
(592,140,cs),
(372,140,o),
(258,227,o),
(258,396,c),
(207,319,l),
(983,319,l)
);
}
);
width = 1185;
},
{
anchors = (
{
name = connect;
pos = (731,0);
}
);
background = {
shapes = (
{
pos = (-3,0);
ref = O;
}
);
};
layerId = "C0ED73B8-BF3D-4D9D-8EF3-572E464554C2";
shapes = (
{
closed = 1;
nodes = (
(491,427,l),
(30,427,l),
(29,419,o),
(29,403,o),
(29,388,cs),
(29,123,o),
(151,-26,o),
(369,-26,cs),
(601,-26,o),
(731,127,o),
(731,400,cs),
(731,673,o),
(604,826,o),
(379,826,cs),
(160,826,o),
(30,695,o),
(18,462,c),
(298,462,l),
(304,535,o),
(326,566,o),
(371,566,cs),
(421,566,o),
(443,516,o),
(443,400,cs),
(443,284,o),
(423,234,o),
(375,234,cs),
(334,234,o),
(317,280,o),
(317,388,c),
(155,353,l),
(491,353,l)
);
}
);
width = 749;
},
{
anchors = (
{
name = connect;
pos = (855,0);
}
);
background = {
shapes = (
{
pos = (-3,0);
ref = O;
}
);
};
layerId = m008;
shapes = (
{
closed = 1;
nodes = (
(580,427,l),
(33,427,l),
(31,416,o),
(31,400,o),
(31,388,cs),
(31,131,o),
(184,-26,o),
(433,-26,cs),
(695,-26,o),
(855,136,o),
(855,400,cs),
(855,664,o),
(697,826,o),
(438,826,cs),
(195,826,o),
(35,688,o),
(18,462,c),
(336,462,l),
(351,528,o),
(385,562,o),
(435,562,cs),
(497,562,o),
(529,507,o),
(529,400,cs),
(529,293,o),
(497,238,o),
(435,238,cs),
(384,238,o),
(357,286,o),
(357,378,c),
(195,353,l),
(580,353,l)
);
}
);
width = 873;
},
{
anchors = (
{
name = connect;
pos = (1187,0);
}
);
background = {
shapes = (
{
pos = (-15,0);
ref = O;
}
);
};
layerId = "434FAEF3-677A-47AD-84F7-3A7F762C5BD0";
shapes = (
{
closed = 1;
nodes = (
(845,427,l),
(33,427,l),
(31,418,o),
(31,405,o),
(31,388,cs),
(31,115,o),
(226,-26,o),
(604,-26,cs),
(989,-26,o),
(1187,119,o),
(1187,400,cs),
(1187,681,o),
(990,826,o),
(607,826,cs),
(250,826,o),
(50,702,o),
(18,462,c),
(428,462,l),
(450,528,o),
(506,562,o),
(594,562,cs),
(708,562,o),
(767,507,o),
(767,400,cs),
(767,293,o),
(710,238,o),
(598,238,cs),
(501,238,o),
(451,289,o),
(451,388,c),
(321,353,l),
(845,353,l)
);
}
);
width = 1205;
}
);
metricLeft = RNDU;
metricRight = RNDU;
unicode = 399;
},
{
glyphname = G;
kernLeft = RND_LEFT;
lastChange = "2022-09-23 16:47:08 +0000";
layers = (
{
anchors = (
{
name = bottom;
pos = (430,0);
},
{
name = top;
pos = (440,800);
}
);
background = {
shapes = (
{
ref = C;
}
);
};
layerId = m01;
shapes = (
{
closed = 1;
nodes = (
(507,-16,o),
(595,24,o),
(636,90,c),
(656,90,l),
(656,0,l),
(760,0,l),
(760,400,l),
(398,400,l),
(398,292,l),
(656,292,l),
(652,179,o),
(551,90,o),
(425,90,cs),
(267,90,o),
(170,208,o),
(170,400,cs),
(170,591,o),
(269,708,o),
(434,708,cs),
(563,708,o),
(649,638,o),
(672,520,c),
(780,520,l),
(766,696,o),
(626,816,o),
(440,816,cs),
(205,816,o),
(56,653,o),
(56,400,cs),
(56,150,o),
(196,-16,o),
(405,-16,cs)
);
}
);
width = 840;
},
{
anchors = (
{
name = bottom;
pos = (452,0);
},
{
name = top;
pos = (462,800);
}
);
background = {
shapes = (
{
ref = C;
}
);
};
layerId = m002;
shapes = (
{
closed = 1;
nodes = (
(517,-20,o),
(599,20,o),
(624,86,c),
(644,86,l),
(644,0,l),
(812,0,l),
(812,428,l),
(410,428,l),
(410,264,l),
(644,264,l),
(638,193,o),
(563,144,o),
(458,144,cs),
(310,144,o),
(226,236,o),
(226,400,cs),
(226,554,o),
(310,648,o),
(448,648,cs),
(552,648,o),
(628,592,o),
(652,500,c),
(828,500,l),
(816,692,o),
(674,820,o),
(448,820,cs),
(202,820,o),
(38,652,o),
(38,400,cs),
(38,150,o),
(189,-20,o),
(410,-20,cs)
);
}
);
width = 874;
},
{
anchors = (
{
name = bottom;
pos = (562,0);
},
{
name = top;
pos = (572,800);
}
);
background = {
shapes = (
{
ref = C;
}
);
};
layerId = m003;
shapes = (
{
closed = 1;
nodes = (
(724,-16,o),
(858,36,o),
(906,120,c),
(926,120,l),
(926,0,l),
(1030,0,l),
(1030,400,l),
(481,400,l),
(481,300,l),
(926,300,l),
(926,179,o),
(765,84,o),
(561,84,cs),
(312,84,o),
(172,198,o),
(172,400,cs),
(172,602,o),
(314,716,o),
(566,716,cs),
(767,716,o),
(901,640,o),
(943,504,c),
(1050,504,l),
(1028,697,o),
(844,816,o),
(566,816,cs),
(250,816,o),
(56,658,o),
(56,400,cs),
(56,142,o),
(241,-16,o),
(553,-16,cs)
);
}
);
width = 1110;
},
{
anchors = (
{
name = bottom;
pos = (594,0);
},
{
name = top;
pos = (604,800);
}
);
background = {
shapes = (
{
ref = C;
}
);
};
layerId = m004;
shapes = (
{
closed = 1;
nodes = (
(714,-20,o),
(843,20,o),
(908,90,c),
(928,90,l),
(928,0,l),
(1100,0,l),
(1100,428,l),
(516,428,l),
(516,268,l),
(928,268,l),
(879,186,o),
(752,138,o),
(588,138,cs),
(353,138,o),
(236,224,o),
(236,400,cs),
(236,572,o),
(356,660,o),
(588,660,cs),
(790,660,o),
(906,600,o),
(930,484,c),
(1116,484,l),
(1104,699,o),
(914,820,o),
(588,820,cs),
(240,820,o),
(44,669,o),
(44,400,cs),
(44,131,o),
(225,-20,o),
(548,-20,cs)
);
}
);
width = 1172;
},
{
anchors = (
{
name = bottom;
pos = (356,0);
},
{
name = top;
pos = (362,800);
}
);
background = {
shapes = (
{
pos = (6,0);
ref = C;
}
);
};
layerId = m005;
shapes = (
{
closed = 1;
nodes = (
(425,-16,o),
(484,19,o),
(504,80,c),
(524,80,l),
(524,0,l),
(624,0,l),
(624,400,l),
(332,400,l),
(332,294,l),
(524,294,l),
(524,180,o),
(452,90,o),
(360,90,cs),
(231,90,o),
(164,195,o),
(164,400,cs),
(164,605,o),
(230,710,o),
(358,710,cs),
(453,710,o),
(513,645,o),
(535,520,c),
(638,520,l),
(625,709,o),
(524,816,o),
(358,816,cs),
(161,816,o),
(50,666,o),
(50,400,cs),
(50,134,o),
(158,-16,o),
(340,-16,cs)
);
}
);
width = 692;
},
{
anchors = (
{
name = bottom;
pos = (372,0);
},
{
name = top;
pos = (380,800);
}
);
background = {
shapes = (
{
ref = C;
}
);
};
layerId = m006;
shapes = (
{
closed = 1;
nodes = (
(405,-20,o),
(467,16,o),
(487,80,c),
(507,80,l),
(507,0,l),
(667,0,l),
(667,428,l),
(350,428,l),
(350,264,l),
(507,264,l),
(507,190,o),
(455,140,o),
(380,140,cs),
(272,140,o),
(221,223,o),
(221,400,cs),
(221,566,o),
(271,652,o),
(368,652,cs),
(444,652,o),
(489,600,o),
(507,500,c),
(681,500,l),
(670,705,o),
(557,820,o),
(368,820,cs),
(154,820,o),
(33,669,o),
(33,400,cs),
(33,135,o),
(139,-20,o),
(316,-20,cs)
);
}
);
width = 723;
},
{
anchors = (
{
name = bottom;
pos = (408,0);
},
{
name = top;
pos = (418,800);
}
);
background = {
shapes = (
{
ref = C;
}
);
};
layerId = m007;
shapes = (
{
closed = 1;
nodes = (
(527,-12,o),
(613,43,o),
(660,140,c),
(670,140,l),
(670,0,l),
(710,0,l),
(710,370,l),
(365,370,l),
(365,330,l),
(670,330,l),
(670,139,o),
(572,26,o),
(405,26,cs),
(215,26,o),
(98,168,o),
(98,400,cs),
(98,632,o),
(216,774,o),
(409,774,cs),
(567,774,o),
(673,679,o),
(687,524,c),
(728,524,l),
(711,703,o),
(590,812,o),
(409,812,cs),
(190,812,o),
(56,655,o),
(56,400,cs),
(56,145,o),
(189,-12,o),
(405,-12,cs)
);
}
);
width = 784;
},
{
anchors = (
{
name = bottom;
pos = (456,0);
},
{
name = top;
pos = (466,800);
}
);
background = {
shapes = (
{
ref = C;
}
);
};
layerId = m008;
shapes = (
{
closed = 1;
nodes = (
(438,-26,o),
(506,17,o),
(532,90,c),
(552,90,l),
(552,0,l),
(832,0,l),
(832,434,l),
(430,434,l),
(430,300,l),
(552,300,l),
(545,250,o),
(510,220,o),
(456,220,cs),
(382,220,o),
(344,281,o),
(344,400,cs),
(344,507,o),
(378,562,o),
(446,562,cs),
(497,562,o),
(530,532,o),
(534,480,c),
(846,480,l),
(840,697,o),
(693,826,o),
(450,826,cs),
(182,826,o),
(18,663,o),
(18,398,cs),
(18,144,o),
(153,-26,o),
(330,-26,cs)
);
}
);
width = 870;
},
{
anchors = (
{
name = bottom;
pos = (340,0);
},
{
name = top;
pos = (346,800);
}
);
background = {
shapes = (
{
ref = C;
}
);
};
layerId = m009;
shapes = (
{
closed = 1;
nodes = (
(431,-12,o),
(504,41,o),
(534,126,c),
(544,126,l),
(544,0,l),
(582,0,l),
(582,370,l),
(296,370,l),
(296,332,l),
(544,332,l),
(544,129,o),
(472,26,o),
(331,26,cs),
(178,26,o),
(92,161,o),
(92,400,cs),
(92,639,o),
(182,774,o),
(341,774,cs),
(471,774,o),
(549,684,o),
(559,524,c),
(600,524,l),
(590,708,o),
(497,812,o),
(341,812,cs),
(155,812,o),
(50,664,o),
(50,400,cs),
(50,136,o),
(151,-12,o),
(331,-12,cs)
);
}
);
width = 650;
},
{
anchors = (
{
name = bottom;
pos = (550,0);
},
{
name = top;
pos = (560,800);
}
);
background = {
shapes = (
{
pos = (-1,0);
ref = C;
}
);
};
layerId = m010;
shapes = (
{
closed = 1;
nodes = (
(737,-12,o),
(880,54,o),
(934,170,c),
(944,170,l),
(944,0,l),
(984,0,l),
(984,370,l),
(455,370,l),
(455,332,l),
(944,332,l),
(944,140,o),
(793,26,o),
(537,26,cs),
(261,26,o),
(105,161,o),
(105,400,cs),
(105,639,o),
(261,774,o),
(537,774,cs),
(790,774,o),
(943,677,o),
(961,504,c),
(1002,504,l),
(983,701,o),
(816,812,o),
(537,812,cs),
(233,812,o),
(62,664,o),
(62,400,cs),
(62,136,o),
(233,-12,o),
(537,-12,cs)
);
}
);
width = 1064;
},
{
anchors = (
{
name = bottom;
pos = (622,0);
},
{
name = top;
pos = (632,800);
}
);
background = {
shapes = (
{
ref = C;
}
);
};
layerId = "434FAEF3-677A-47AD-84F7-3A7F762C5BD0";
shapes = (
{
closed = 1;
nodes = (
(615,-26,o),
(720,13,o),
(760,80,c),
(800,80,l),
(800,0,l),
(1162,0,l),
(1162,434,l),
(576,434,l),
(576,300,l),
(800,300,l),
(787,250,o),
(722,220,o),
(626,220,cs),
(501,220,o),
(438,277,o),
(438,390,cs),
(438,504,o),
(499,562,o),
(620,562,cs),
(721,562,o),
(776,534,o),
(784,480,c),
(1178,480,l),
(1169,709,o),
(980,826,o),
(618,826,cs),
(222,826,o),
(18,677,o),
(18,388,cs),
(18,131,o),
(192,-26,o),
(476,-26,cs)
);
}
);
width = 1202;
},
{
anchors = (
{
name = bottom;
pos = (392,0);
},
{
name = top;
pos = (398,800);
}
);
background = {
shapes = (
{
ref = C;
}
);
};
layerId = "C0ED73B8-BF3D-4D9D-8EF3-572E464554C2";
shapes = (
{
closed = 1;
nodes = (
(367,-16,o),
(424,17,o),
(448,90,c),
(468,90,l),
(468,0,l),
(714,0,l),
(714,444,l),
(378,444,l),
(378,300,l),
(468,300,l),
(468,247,o),
(442,216,o),
(398,216,cs),
(333,216,o),
(306,271,o),
(306,400,cs),
(306,516,o),
(329,566,o),
(384,566,cs),
(429,566,o),
(450,535,o),
(454,494,c),
(722,494,l),
(718,696,o),
(596,826,o),
(382,826,cs),
(149,826,o),
(18,672,o),
(18,398,cs),
(18,135,o),
(118,-16,o),
(280,-16,cs)
);
}
);
width = 746;
}
);
metricLeft = O;
unicode = 71;
},
{
glyphname = J;
kernRight = U_RIGHT;
lastChange = "2022-09-18 19:21:19 +0000";
layers = (
{
anchors = (
{
name = bottom;
pos = (328,0);
},
{
name = top;
pos = (492,800);
},
{
name = topacute;
pos = (492,800);
}
);
layerId = m01;
shapes = (
{
closed = 1;
nodes = (
(53,270,ls),
(53,93,o),
(147,-16,o),
(301,-16,cs),
(455,-16,o),
(549,93,o),
(549,270,cs),
(549,800,l),
(435,800,l),
(435,280,ls),
(435,163,o),
(385,94,o),
(301,94,cs),
(217,94,o),
(167,163,o),
(167,280,cs),
(167,350,l),
(53,350,l)
);
}
);
width = 655;
},
{
anchors = (
{
name = bottom;
pos = (343,0);
},
{
name = top;
pos = (519,800);
},
{
name = topacute;
pos = (522,800);
}
);
layerId = m002;
shapes = (
{
closed = 1;
nodes = (
(37,286,ls),
(37,94,o),
(144,-20,o),
(325,-20,cs),
(506,-20,o),
(613,94,o),
(613,286,cs),
(613,800,l),
(425,800,l),
(425,296,ls),
(425,211,o),
(388,160,o),
(325,160,cs),
(262,160,o),
(225,211,o),
(225,296,cs),
(225,350,l),
(37,350,l)
);
}
);
width = 686;
},
{
anchors = (
{
name = bottom;
pos = (424,0);
},
{
name = top;
pos = (684,800);
},
{
name = topacute;
pos = (682,800);
}
);
layerId = m003;
shapes = (
{
closed = 1;
nodes = (
(53,290,ls),
(53,100,o),
(184,-16,o),
(397,-16,cs),
(610,-16,o),
(741,100,o),
(741,290,cs),
(741,800,l),
(627,800,l),
(627,290,ls),
(627,167,o),
(540,92,o),
(397,92,cs),
(254,92,o),
(167,167,o),
(167,290,cs),
(167,350,l),
(53,350,l)
);
}
);
width = 847;
},
{
anchors = (
{
name = bottom;
pos = (447,0);
},
{
name = top;
pos = (716,800);
},
{
name = topacute;
pos = (720,800);
}
);
layerId = m004;
shapes = (
{
closed = 1;
nodes = (
(42,306,ls),
(42,101,o),
(185,-20,o),
(426,-20,cs),
(667,-20,o),
(810,101,o),
(810,306,cs),
(810,800,l),
(622,800,l),
(622,316,ls),
(622,213,o),
(549,152,o),
(426,152,cs),
(303,152,o),
(230,213,o),
(230,316,cs),
(230,350,l),
(42,350,l)
);
}
);
width = 894;
},
{
anchors = (
{
name = bottom;
pos = (281,0);
},
{
name = top;
pos = (409,800);
},
{
name = topacute;
pos = (404,800);
}
);
layerId = m005;
shapes = (
{
closed = 1;
nodes = (
(48,230,ls),
(48,75,o),
(126,-16,o),
(257,-16,cs),
(388,-16,o),
(466,75,o),
(466,230,cs),
(466,800,l),
(352,800,l),
(352,240,ls),
(352,148,o),
(317,94,o),
(257,94,cs),
(197,94,o),
(162,148,o),
(162,240,cs),
(162,350,l),
(48,350,l)
);
}
);
width = 561;
},
{
anchors = (
{
name = bottom;
pos = (290,0);
},
{
name = top;
pos = (423,800);
},
{
name = topacute;
pos = (416,800);
}
);
layerId = m006;
shapes = (
{
closed = 1;
nodes = (
(31,256,ls),
(31,83,o),
(121,-20,o),
(274,-20,cs),
(427,-20,o),
(517,83,o),
(517,256,cs),
(517,800,l),
(329,800,l),
(329,266,ls),
(329,199,o),
(309,160,o),
(274,160,cs),
(239,160,o),
(219,199,o),
(219,266,cs),
(219,350,l),
(31,350,l)
);
}
);
width = 579;
},
{
anchors = (
{
name = bottom;
pos = (304,0);
},
{
name = top;
pos = (480,800);
},
{
name = topacute;
pos = (477,800);
}
);
layerId = m007;
shapes = (
{
closed = 1;
nodes = (
(53,250,ls),
(53,88,o),
(138,-12,o),
(277,-12,cs),
(416,-12,o),
(501,88,o),
(501,250,cs),
(501,800,l),
(459,800,l),
(459,250,ls),
(459,112,o),
(390,28,o),
(277,28,cs),
(164,28,o),
(95,112,o),
(95,250,cs),
(95,350,l),
(53,350,l)
);
}
);
width = 607;
},
{
anchors = (
{
name = bottom;
pos = (401,0);
},
{
name = top;
pos = (599,800);
},
{
name = topacute;
pos = (596,800);
}
);
background = {
shapes = (
{
pos = (-18,0);
ref = H;
}
);
};
layerId = m008;
shapes = (
{
closed = 1;
nodes = (
(17,304,ls),
(17,99,o),
(175,-26,o),
(392,-26,cs),
(609,-26,o),
(767,99,o),
(767,304,cs),
(767,800,l),
(431,800,l),
(431,322,ls),
(431,273,o),
(415,248,o),
(382,248,cs),
(349,248,o),
(333,273,o),
(333,322,cs),
(333,390,l),
(17,390,l)
);
}
);
width = 802;
},
{
anchors = (
{
name = bottom;
pos = (260,0);
},
{
name = top;
pos = (404,800);
},
{
name = topacute;
pos = (405,800);
}
);
layerId = m009;
shapes = (
{
closed = 1;
nodes = (
(47,220,ls),
(47,76,o),
(119,-12,o),
(236,-12,cs),
(353,-12,o),
(425,76,o),
(425,220,cs),
(425,800,l),
(383,800,l),
(383,220,ls),
(383,101,o),
(327,28,o),
(236,28,cs),
(145,28,o),
(89,101,o),
(89,220,cs),
(89,350,l),
(47,350,l)
);
}
);
width = 520;
},
{
anchors = (
{
name = bottom;
pos = (400,0);
},
{
name = top;
pos = (662,800);
},
{
name = topacute;
pos = (662,800);
}
);
layerId = m010;
shapes = (
{
closed = 1;
nodes = (
(59,290,ls),
(59,97,o),
(171,-12,o),
(371,-12,cs),
(571,-12,o),
(683,97,o),
(683,290,cs),
(683,800,l),
(641,800,l),
(641,290,ls),
(641,122,o),
(544,28,o),
(371,28,cs),
(198,28,o),
(101,122,o),
(101,290,cs),
(101,350,l),
(59,350,l)
);
}
);
width = 800;
},
{
anchors = (
{
name = bottom;
pos = (531,0);
},
{
name = top;
pos = (817,800);
},
{
name = topacute;
pos = (812,800);
}
);
background = {
shapes = (
{
pos = (-18,0);
ref = H;
}
);
};
layerId = "434FAEF3-677A-47AD-84F7-3A7F762C5BD0";
shapes = (
{
closed = 1;
nodes = (
(17,334,ls),
(17,96,o),
(189,-26,o),
(522,-26,cs),
(855,-26,o),
(1027,96,o),
(1027,334,cs),
(1027,800,l),
(607,800,l),
(607,352,ls),
(607,283,o),
(575,248,o),
(512,248,cs),
(449,248,o),
(417,283,o),
(417,352,cs),
(417,390,l),
(17,390,l)
);
}
);
width = 1062;
},
{
anchors = (
{
name = bottom;
pos = (337,0);
},
{
name = top;
pos = (495,800);
},
{
name = topacute;
pos = (490,800);
}
);
background = {
shapes = (
{
pos = (-18,0);
ref = H;
}
);
};
layerId = "C0ED73B8-BF3D-4D9D-8EF3-572E464554C2";
shapes = (
{
closed = 1;
nodes = (
(17,274,ls),
(17,82,o),
(129,-26,o),
(328,-26,cs),
(527,-26,o),
(639,82,o),
(639,274,cs),
(639,800,l),
(351,800,l),
(351,292,ls),
(351,261,o),
(341,248,o),
(318,248,cs),
(295,248,o),
(285,261,o),
(285,292,cs),
(285,390,l),
(17,390,l)
);
}
);
width = 674;
}
);
metricLeft = "=SQRU/2";
metricRight = SQRU;
unicode = 74;
},
{
glyphname = O;
kernLeft = RND_LEFT;
kernRight = RND_RIGHT;
lastChange = "2022-04-13 08:09:48 +0000";
layers = (
{
anchors = (
{
name = bottom;
pos = (436,0);
},
{
name = center;
pos = (436,400);
},
{
name = ogonek;
pos = (785,10);
},
{
name = tail;
pos = (436,-10);
},
{
name = top;
pos = (436,800);
},
{
name = topleft;
pos = (20,800);
},
{
name = topright;
pos = (852,800);
}
);
background = {
shapes = (
{
pos = (20,0);
ref = H;
}
);
};
layerId = m01;
shapes = (
{
closed = 1;
nodes = (
(666,-16,o),
(816,148,o),
(816,400,cs),
(816,652,o),
(666,816,o),
(436,816,cs),
(206,816,o),
(56,652,o),
(56,400,cs),
(56,148,o),
(206,-16,o),
(436,-16,cs)
);
},
{
closed = 1;
nodes = (
(271,92,o),
(170,209,o),
(170,400,cs),
(170,591,o),
(271,708,o),
(436,708,cs),
(601,708,o),
(702,591,o),
(702,400,cs),
(702,209,o),
(601,92,o),
(436,92,cs)
);
}
);
width = 872;
},
{
anchors = (
{
name = bottom;
pos = (448,0);
},
{
name = center;
pos = (448,400);
},
{
name = ogonek;
pos = (806,10);
},
{
name = tail;
pos = (448,-10);
},
{
name = top;
pos = (448,800);
},
{
name = topleft;
pos = (20,800);
},
{
name = topright;
pos = (876,800);
}
);
background = {
shapes = (
{
pos = (35,0);
ref = H;
}
);
};
layerId = m002;
shapes = (
{
closed = 1;
nodes = (
(694,-20,o),
(858,148,o),
(858,400,cs),
(858,652,o),
(694,820,o),
(448,820,cs),
(202,820,o),
(38,652,o),
(38,400,cs),
(38,148,o),
(202,-20,o),
(448,-20,cs)
);
},
{
closed = 1;
nodes = (
(310,152,o),
(226,246,o),
(226,400,cs),
(226,554,o),
(310,648,o),
(448,648,cs),
(586,648,o),
(670,554,o),
(670,400,cs),
(670,246,o),
(586,152,o),
(448,152,cs)
);
}
);
width = 896;
},
{
anchors = (
{
name = bottom;
pos = (576,0);
},
{
name = center;
pos = (576,400);
},
{
name = ogonek;
pos = (1037,10);
},
{
name = tail;
pos = (576,-10);
},
{
name = top;
pos = (576,800);
},
{
name = topleft;
pos = (20,800);
},
{
name = topright;
pos = (1132,800);
}
);
background = {
shapes = (
{
pos = (40,0);
ref = H;
}
);
};
layerId = m003;
shapes = (
{
closed = 1;
nodes = (
(908,-16,o),
(1096,142,o),
(1096,400,cs),
(1096,658,o),
(908,816,o),
(576,816,cs),
(244,816,o),
(56,658,o),
(56,400,cs),
(56,142,o),
(244,-16,o),
(576,-16,cs)
);
},
{
closed = 1;
nodes = (
(316,84,o),
(172,204,o),
(172,400,cs),
(172,596,o),
(316,716,o),
(576,716,cs),
(836,716,o),
(980,596,o),
(980,400,cs),
(980,204,o),
(836,84,o),
(576,84,cs)
);
}
);
width = 1152;
},
{
anchors = (
{
name = bottom;
pos = (594,0);
},
{
name = center;
pos = (594,400);
},
{
name = ogonek;
pos = (1069,10);
},
{
name = tail;
pos = (594,-10);
},
{
name = top;
pos = (594,800);
},
{
name = topleft;
pos = (20,800);
},
{
name = topright;
pos = (1168,800);
}
);
background = {
shapes = (
{
pos = (50,0);
ref = H;
}
);
};
layerId = m004;
shapes = (
{
closed = 1;
nodes = (
(946,-20,o),
(1144,131,o),
(1144,400,cs),
(1144,669,o),
(946,820,o),
(594,820,cs),
(242,820,o),
(44,669,o),
(44,400,cs),
(44,131,o),
(242,-20,o),
(594,-20,cs)
);
},
{
closed = 1;
nodes = (
(358,140,o),
(236,228,o),
(236,400,cs),
(236,572,o),
(358,660,o),
(594,660,cs),
(830,660,o),
(952,572,o),
(952,400,cs),
(952,228,o),
(830,140,o),
(594,140,cs)
);
}
);
width = 1188;
},
{
anchors = (
{
name = bottom;
pos = (360,0);
},
{
name = center;
pos = (360,400);
},
{
name = ogonek;
pos = (648,10);
},
{
name = tail;
pos = (360,-10);
},
{
name = top;
pos = (360,800);
},
{
name = topleft;
pos = (20,800);
},
{
name = topright;
pos = (700,800);
}
);
background = {
shapes = (
{
pos = (14,0);
ref = H;
}
);
};
layerId = m005;
shapes = (
{
closed = 1;
nodes = (
(558,-16,o),
(670,134,o),
(670,400,cs),
(670,666,o),
(558,816,o),
(360,816,cs),
(162,816,o),
(50,666,o),
(50,400,cs),
(50,134,o),
(162,-16,o),
(360,-16,cs)
);
},
{
closed = 1;
nodes = (
(231,90,o),
(164,195,o),
(164,400,cs),
(164,605,o),
(231,710,o),
(360,710,cs),
(489,710,o),
(556,605,o),
(556,400,cs),
(556,195,o),
(489,90,o),
(360,90,cs)
);
}
);
width = 720;
},
{
anchors = (
{
name = bottom;
pos = (369,0);
},
{
name = center;
pos = (369,400);
},
{
name = ogonek;
pos = (664,10);
},
{
name = tail;
pos = (369,-10);
},
{
name = top;
pos = (369,800);
},
{
name = topleft;
pos = (20,800);
},
{
name = topright;
pos = (718,800);
}
);
background = {
shapes = (
{
pos = (19,0);
ref = H;
}
);
};
layerId = m006;
shapes = (
{
closed = 1;
nodes = (
(584,-20,o),
(705,131,o),
(705,400,cs),
(705,669,o),
(584,820,o),
(369,820,cs),
(154,820,o),
(33,669,o),
(33,400,cs),
(33,131,o),
(154,-20,o),
(369,-20,cs)
);
},
{
closed = 1;
nodes = (
(271,148,o),
(221,234,o),
(221,400,cs),
(221,566,o),
(271,652,o),
(369,652,cs),
(467,652,o),
(517,566,o),
(517,400,cs),
(517,234,o),
(467,148,o),
(369,148,cs)
);
}
);
width = 738;
},
{
anchors = (
{
name = bottom;
pos = (406,0);
},
{
name = center;
pos = (406,400);
},
{
name = ogonek;
pos = (731,10);
},
{
name = tail;
pos = (406,-10);
},
{
name = top;
pos = (406,800);
},
{
name = topleft;
pos = (20,800);
},
{
name = topright;
pos = (792,800);
}
);
background = {
shapes = (
{
pos = (20,0);
ref = H;
}
);
};
layerId = m007;
shapes = (
{
closed = 1;
nodes = (
(623,-12,o),
(756,145,o),
(756,400,cs),
(756,655,o),
(623,812,o),
(406,812,cs),
(189,812,o),
(56,655,o),
(56,400,cs),
(56,145,o),
(189,-12,o),
(406,-12,cs)
);
},
{
closed = 1;
nodes = (
(215,26,o),
(98,168,o),
(98,400,cs),
(98,632,o),
(215,774,o),
(406,774,cs),
(597,774,o),
(714,632,o),
(714,400,cs),
(714,168,o),
(597,26,o),
(406,26,cs)
);
}
);
width = 812;
},
{
anchors = (
{
name = bottom;
pos = (438,0);
},
{
name = center;
pos = (438,400);
},
{
name = ogonek;
pos = (788,10);
},
{
name = tail;
pos = (438,-10);
},
{
name = top;
pos = (438,800);
},
{
name = topleft;
pos = (20,800);
},
{
name = topright;
pos = (856,800);
}
);
background = {
shapes = (
{
pos = (8,0);
ref = H;
}
);
};
layerId = m008;
shapes = (
{
closed = 1;
nodes = (
(698,-26,o),
(858,136,o),
(858,400,cs),
(858,664,o),
(698,826,o),
(438,826,cs),
(178,826,o),
(18,664,o),
(18,400,cs),
(18,136,o),
(178,-26,o),
(438,-26,cs)
);
},
{
closed = 1;
nodes = (
(376,238,o),
(344,293,o),
(344,400,cs),
(344,507,o),
(376,562,o),
(438,562,cs),
(500,562,o),
(532,507,o),
(532,400,cs),
(532,293,o),
(500,238,o),
(438,238,cs)
);
}
);
width = 876;
},
{
anchors = (
{
name = bottom;
pos = (334,0);
},
{
name = center;
pos = (334,400);
},
{
name = ogonek;
pos = (601,10);
},
{
name = tail;
pos = (334,-10);
},
{
name = top;
pos = (334,800);
},
{
name = topleft;
pos = (20,800);
},
{
name = topright;
pos = (648,800);
}
);
background = {
shapes = (
{
pos = (3,0);
ref = H;
}
);
};
layerId = m009;
shapes = (
{
closed = 1;
nodes = (
(516,-12,o),
(618,136,o),
(618,400,cs),
(618,664,o),
(516,812,o),
(334,812,cs),
(152,812,o),
(50,664,o),
(50,400,cs),
(50,136,o),
(152,-12,o),
(334,-12,cs)
);
},
{
closed = 1;
nodes = (
(179,26,o),
(92,161,o),
(92,400,cs),
(92,639,o),
(179,774,o),
(334,774,cs),
(489,774,o),
(576,639,o),
(576,400,cs),
(576,161,o),
(489,26,o),
(334,26,cs)
);
}
);
width = 668;
},
{
anchors = (
{
name = bottom;
pos = (552,0);
},
{
name = center;
pos = (552,400);
},
{
name = ogonek;
pos = (994,10);
},
{
name = tail;
pos = (552,-10);
},
{
name = top;
pos = (552,800);
},
{
name = topleft;
pos = (20,800);
},
{
name = topright;
pos = (1084,800);
}
);
background = {
shapes = (
{
pos = (35,0);
ref = H;
}
);
};
layerId = m010;
shapes = (
{
closed = 1;
nodes = (
(866,-12,o),
(1042,136,o),
(1042,400,cs),
(1042,664,o),
(866,812,o),
(552,812,cs),
(238,812,o),
(62,664,o),
(62,400,cs),
(62,136,o),
(238,-12,o),
(552,-12,cs)
);
},
{
closed = 1;
nodes = (
(266,26,o),
(105,161,o),
(105,400,cs),
(105,639,o),
(266,774,o),
(552,774,cs),
(838,774,o),
(999,639,o),
(999,400,cs),
(999,161,o),
(838,26,o),
(552,26,cs)
);
}
);
width = 1104;
},
{
anchors = (
{
name = bottom;
pos = (610,0);
},
{
name = center;
pos = (610,400);
},
{
name = ogonek;
pos = (1098,10);
},
{
name = tail;
pos = (610,-10);
},
{
name = top;
pos = (610,800);
},
{
name = topleft;
pos = (20,800);
},
{
name = topright;
pos = (1200,800);
}
);
background = {
shapes = (
{
pos = (8,0);
ref = H;
}
);
};
layerId = "434FAEF3-677A-47AD-84F7-3A7F762C5BD0";
shapes = (
{
closed = 1;
nodes = (
(1001,-26,o),
(1202,119,o),
(1202,400,cs),
(1202,681,o),
(1001,826,o),
(610,826,cs),
(219,826,o),
(18,681,o),
(18,400,cs),
(18,119,o),
(219,-26,o),
(610,-26,cs)
);
},
{
closed = 1;
nodes = (
(496,238,o),
(438,293,o),
(438,400,cs),
(438,507,o),
(496,562,o),
(610,562,cs),
(724,562,o),
(782,507,o),
(782,400,cs),
(782,293,o),
(724,238,o),
(610,238,cs)
);
}
);
width = 1220;
},
{
anchors = (
{
name = bottom;
pos = (376,0);
},
{
name = center;
pos = (376,400);
},
{
name = ogonek;
pos = (677,10);
},
{
name = tail;
pos = (376,-10);
},
{
name = top;
pos = (376,800);
},
{
name = topleft;
pos = (20,800);
},
{
name = topright;
pos = (732,800);
}
);
background = {
shapes = (
{
pos = (12,0);
ref = H;
}
);
};
layerId = "C0ED73B8-BF3D-4D9D-8EF3-572E464554C2";
shapes = (
{
closed = 1;
nodes = (
(605,-26,o),
(734,127,o),
(734,400,cs),
(734,673,o),
(605,826,o),
(376,826,cs),
(147,826,o),
(18,673,o),
(18,400,cs),
(18,127,o),
(147,-26,o),
(376,-26,cs)
);
},
{
closed = 1;
nodes = (
(327,234,o),
(306,284,o),
(306,400,cs),
(306,516,o),
(327,566,o),
(376,566,cs),
(425,566,o),
(446,516,o),
(446,400,cs),
(446,284,o),
(425,234,o),
(376,234,cs)
);
}
);
width = 752;
}
);
metricLeft = RNDU;
metricRight = RNDU;
unicode = 79;
},
{
glyphname = P;
kernLeft = SQR_LEFT;
kernRight = F_RIGHT;
lastChange = "2022-07-16 08:45:07 +0000";
layers = (
{
layerId = m01;
shapes = (
{
closed = 1;
nodes = (
(106,0,l),
(220,0,l),
(220,330,l),
(452,330,ls),
(604,330,o),
(706,424,o),
(706,564,cs),
(706,706,o),
(604,800,o),
(452,800,cs),
(106,800,l)
);
},
{
closed = 1;
nodes = (
(220,692,l),
(456,692,ls),
(537,692,o),
(592,640,o),
(592,563,cs),
(592,486,o),
(537,434,o),
(456,434,cs),
(220,434,l)
);
}
);
width = 727;
},
{
layerId = m002;
shapes = (
{
closed = 1;
nodes = (
(73,0,l),
(261,0,l),
(261,298,l),
(473,298,ls),
(641,298,o),
(755,398,o),
(755,544,cs),
(755,696,o),
(641,800,o),
(473,800,cs),
(73,800,l)
);
},
{
closed = 1;
nodes = (
(261,624,l),
(459,624,ls),
(524,624,o),
(563,595,o),
(563,546,cs),
(563,497,o),
(524,468,o),
(459,468,cs),
(261,468,l)
);
}
);
width = 770;
},
{
layerId = m003;
shapes = (
{
closed = 1;
nodes = (
(106,0,l),
(220,0,l),
(220,330,l),
(656,330,ls),
(843,330,o),
(948,414,o),
(948,564,cs),
(948,715,o),
(843,800,o),
(656,800,cs),
(106,800,l)
);
},
{
closed = 1;
nodes = (
(220,700,l),
(664,700,ls),
(770,700,o),
(832,649,o),
(832,563,cs),
(832,477,o),
(770,426,o),
(664,426,cs),
(220,426,l)
);
}
);
width = 969;
},
{
layerId = m004;
shapes = (
{
closed = 1;
nodes = (
(84,0,l),
(272,0,l),
(272,296,l),
(662,296,ls),
(858,296,o),
(974,388,o),
(974,544,cs),
(974,705,o),
(858,800,o),
(662,800,cs),
(84,800,l)
);
},
{
closed = 1;
nodes = (
(272,640,l),
(662,640,ls),
(737,640,o),
(782,605,o),
(782,546,cs),
(782,487,o),
(737,452,o),
(662,452,cs),
(272,452,l)
);
}
);
width = 991;
},
{
layerId = m005;
shapes = (
{
closed = 1;
nodes = (
(95,0,l),
(209,0,l),
(209,332,l),
(355,332,ls),
(503,332,o),
(597,422,o),
(597,564,cs),
(597,708,o),
(503,800,o),
(355,800,cs),
(95,800,l)
);
},
{
closed = 1;
nodes = (
(209,694,l),
(359,694,ls),
(433,694,o),
(483,641,o),
(483,563,cs),
(483,485,o),
(433,432,o),
(359,432,cs),
(209,432,l)
);
}
);
width = 616;
},
{
layerId = m006;
shapes = (
{
closed = 1;
nodes = (
(62,0,l),
(250,0,l),
(250,298,l),
(372,298,ls),
(523,298,o),
(624,396,o),
(624,544,cs),
(624,698,o),
(523,800,o),
(372,800,cs),
(62,800,l)
);
},
{
closed = 1;
nodes = (
(250,624,l),
(342,624,ls),
(401,624,o),
(436,594,o),
(436,544,cs),
(436,494,o),
(401,464,o),
(342,464,cs),
(250,464,l)
);
}
);
width = 636;
},
{
layerId = m007;
shapes = (
{
closed = 1;
nodes = (
(106,0,l),
(148,0,l),
(148,358,l),
(408,358,ls),
(563,358,o),
(650,438,o),
(650,579,cs),
(650,720,o),
(563,800,o),
(408,800,cs),
(106,800,l)
);
},
{
closed = 1;
nodes = (
(148,762,l),
(412,762,ls),
(537,762,o),
(608,696,o),
(608,578,cs),
(608,460,o),
(537,394,o),
(412,394,cs),
(148,394,l)
);
}
);
width = 671;
},
{
layerId = m008;
shapes = (
{
closed = 1;
nodes = (
(35,0,l),
(371,0,l),
(371,216,l),
(469,216,ls),
(662,216,o),
(781,327,o),
(781,508,cs),
(781,689,o),
(662,800,o),
(469,800,cs),
(35,800,l)
);
},
{
closed = 1;
nodes = (
(371,544,l),
(399,544,ls),
(436,544,o),
(455,527,o),
(455,494,cs),
(455,461,o),
(436,444,o),
(399,444,cs),
(371,444,l)
);
}
);
width = 788;
},
{
layerId = m009;
shapes = (
{
closed = 1;
nodes = (
(95,0,l),
(137,0,l),
(137,358,l),
(329,358,ls),
(467,358,o),
(551,442,o),
(551,579,cs),
(551,716,o),
(467,800,o),
(329,800,cs),
(95,800,l)
);
},
{
closed = 1;
nodes = (
(137,762,l),
(333,762,ls),
(442,762,o),
(509,692,o),
(509,578,cs),
(509,464,o),
(442,394,o),
(333,394,cs),
(137,394,l)
);
}
);
width = 570;
},
{
layerId = m010;
shapes = (
{
closed = 1;
nodes = (
(117,0,l),
(159,0,l),
(159,358,l),
(609,358,ls),
(779,358,o),
(875,438,o),
(875,579,cs),
(875,720,o),
(779,800,o),
(609,800,cs),
(117,800,l)
);
},
{
closed = 1;
nodes = (
(159,764,l),
(613,764,ls),
(753,764,o),
(832,697,o),
(832,578,cs),
(832,459,o),
(753,392,o),
(613,392,cs),
(159,392,l)
);
}
);
width = 898;
},
{
layerId = "434FAEF3-677A-47AD-84F7-3A7F762C5BD0";
shapes = (
{
closed = 1;
nodes = (
(35,0,l),
(455,0,l),
(455,208,l),
(683,208,ls),
(951,208,o),
(1089,309,o),
(1089,504,cs),
(1089,699,o),
(951,800,o),
(683,800,cs),
(35,800,l)
);
},
{
closed = 1;
nodes = (
(455,554,l),
(603,554,ls),
(644,554,o),
(669,532,o),
(669,494,cs),
(669,456,o),
(644,434,o),
(603,434,cs),
(455,434,l)
);
}
);
width = 1096;
},
{
layerId = "C0ED73B8-BF3D-4D9D-8EF3-572E464554C2";
shapes = (
{
closed = 1;
nodes = (
(35,0,l),
(323,0,l),
(323,208,l),
(391,208,ls),
(561,208,o),
(665,320,o),
(665,504,cs),
(665,688,o),
(561,800,o),
(391,800,cs),
(35,800,l)
);
},
{
closed = 1;
nodes = (
(323,564,l),
(331,564,ls),
(363,564,o),
(377,543,o),
(377,494,cs),
(377,445,o),
(363,424,o),
(331,424,cs),
(323,424,l)
);
}
);
width = 672;
}
);
metricLeft = "=H";
metricRight = "=SQRU/5";
unicode = 80;
},
{
glyphname = Thorn;
lastChange = "2022-07-16 08:55:14 +0000";
layers = (
{
layerId = m009;
shapes = (
{
closed = 1;
nodes = (
(95,0,l),
(137,0,l),
(137,189,l),
(329,189,ls),
(467,189,o),
(551,273,o),
(551,410,cs),
(551,547,o),
(467,631,o),
(329,631,cs),
(137,631,l),
(137,800,l),
(95,800,l)
);
},
{
closed = 1;
nodes = (
(137,593,l),
(333,593,ls),
(442,593,o),
(509,523,o),
(509,409,cs),
(509,295,o),
(442,225,o),
(333,225,cs),
(137,225,l)
);
}
);
width = 570;
},
{
layerId = m007;
shapes = (
{
closed = 1;
nodes = (
(106,0,l),
(148,0,l),
(148,189,l),
(408,189,ls),
(563,189,o),
(650,269,o),
(650,410,cs),
(650,551,o),
(563,631,o),
(408,631,cs),
(148,631,l),
(148,800,l),
(106,800,l)
);
},
{
closed = 1;
nodes = (
(148,593,l),
(412,593,ls),
(537,593,o),
(608,527,o),
(608,409,cs),
(608,291,o),
(537,225,o),
(412,225,cs),
(148,225,l)
);
}
);
width = 671;
},
{
layerId = m010;
shapes = (
{
closed = 1;
nodes = (
(117,0,l),
(159,0,l),
(159,189,l),
(609,189,ls),
(779,189,o),
(875,269,o),
(875,410,cs),
(875,551,o),
(779,631,o),
(609,631,cs),
(159,631,l),
(159,800,l),
(117,800,l)
);
},
{
closed = 1;
nodes = (
(159,595,l),
(613,595,ls),
(753,595,o),
(832,528,o),
(832,409,cs),
(832,290,o),
(753,223,o),
(613,223,cs),
(159,223,l)
);
}
);
width = 898;
},
{
layerId = m005;
shapes = (
{
closed = 1;
nodes = (
(95,0,l),
(209,0,l),
(209,176,l),
(355,176,ls),
(503,176,o),
(597,266,o),
(597,408,cs),
(597,552,o),
(503,644,o),
(355,644,cs),
(209,644,l),
(209,800,l),
(95,800,l)
);
},
{
closed = 1;
nodes = (
(209,538,l),
(359,538,ls),
(433,538,o),
(483,485,o),
(483,407,cs),
(483,329,o),
(433,276,o),
(359,276,cs),
(209,276,l)
);
}
);
width = 616;
},
{
layerId = m01;
shapes = (
{
closed = 1;
nodes = (
(106,0,l),
(220,0,l),
(220,175,l),
(452,175,ls),
(604,175,o),
(706,269,o),
(706,409,cs),
(706,551,o),
(604,645,o),
(452,645,cs),
(220,645,l),
(220,800,l),
(106,800,l)
);
},
{
closed = 1;
nodes = (
(220,537,l),
(456,537,ls),
(537,537,o),
(592,485,o),
(592,408,cs),
(592,331,o),
(537,279,o),
(456,279,cs),
(220,279,l)
);
}
);
width = 727;
},
{
layerId = m003;
shapes = (
{
closed = 1;
nodes = (
(106,0,l),
(220,0,l),
(220,175,l),
(656,175,ls),
(843,175,o),
(948,259,o),
(948,409,cs),
(948,560,o),
(843,645,o),
(656,645,cs),
(220,645,l),
(220,800,l),
(106,800,l)
);
},
{
closed = 1;
nodes = (
(220,545,l),
(664,545,ls),
(770,545,o),
(832,494,o),
(832,408,cs),
(832,322,o),
(770,271,o),
(664,271,cs),
(220,271,l)
);
}
);
width = 969;
},
{
layerId = m006;
shapes = (
{
closed = 1;
nodes = (
(62,0,l),
(250,0,l),
(250,159,l),
(372,159,ls),
(523,159,o),
(624,257,o),
(624,405,cs),
(624,559,o),
(523,661,o),
(372,661,cs),
(250,661,l),
(250,800,l),
(62,800,l)
);
},
{
closed = 1;
nodes = (
(250,485,l),
(342,485,ls),
(401,485,o),
(436,455,o),
(436,405,cs),
(436,355,o),
(401,325,o),
(342,325,cs),
(250,325,l)
);
}
);
width = 636;
},
{
layerId = m002;
shapes = (
{
closed = 1;
nodes = (
(73,0,l),
(261,0,l),
(261,159,l),
(473,159,ls),
(641,159,o),
(755,259,o),
(755,405,cs),
(755,557,o),
(641,661,o),
(473,661,cs),
(261,661,l),
(261,800,l),
(73,800,l)
);
},
{
closed = 1;
nodes = (
(261,485,l),
(459,485,ls),
(524,485,o),
(563,456,o),
(563,407,cs),
(563,358,o),
(524,329,o),
(459,329,cs),
(261,329,l)
);
}
);
width = 770;
},
{
layerId = m004;
shapes = (
{
closed = 1;
nodes = (
(84,0,l),
(272,0,l),
(272,158,l),
(662,158,ls),
(858,158,o),
(974,250,o),
(974,406,cs),
(974,567,o),
(858,662,o),
(662,662,cs),
(272,662,l),
(272,800,l),
(84,800,l)
);
},
{
closed = 1;
nodes = (
(272,502,l),
(662,502,ls),
(737,502,o),
(782,467,o),
(782,408,cs),
(782,349,o),
(737,314,o),
(662,314,cs),
(272,314,l)
);
}
);
width = 991;
},
{
layerId = "C0ED73B8-BF3D-4D9D-8EF3-572E464554C2";
shapes = (
{
closed = 1;
nodes = (
(35,0,l),
(323,0,l),
(323,114,l),
(391,114,ls),
(561,114,o),
(665,226,o),
(665,410,cs),
(665,594,o),
(561,706,o),
(391,706,cs),
(323,706,l),
(323,800,l),
(35,800,l)
);
},
{
closed = 1;
nodes = (
(323,470,l),
(331,470,ls),
(363,470,o),
(377,449,o),
(377,400,cs),
(377,351,o),
(363,330,o),
(331,330,cs),
(323,330,l)
);
}
);
width = 672;
},
{
layerId = m008;
shapes = (
{
closed = 1;
nodes = (
(35,0,l),
(371,0,l),
(371,118,l),
(469,118,ls),
(662,118,o),
(781,229,o),
(781,410,cs),
(781,591,o),
(662,702,o),
(469,702,cs),
(371,702,l),
(371,800,l),
(35,800,l)
);
},
{
closed = 1;
nodes = (
(371,446,l),
(399,446,ls),
(436,446,o),
(455,429,o),
(455,396,cs),
(455,363,o),
(436,346,o),
(399,346,cs),
(371,346,l)
);
}
);
width = 788;
},
{
layerId = "434FAEF3-677A-47AD-84F7-3A7F762C5BD0";
shapes = (
{
closed = 1;
nodes = (
(35,0,l),
(455,0,l),
(455,114,l),
(683,114,ls),
(951,114,o),
(1089,215,o),
(1089,410,cs),
(1089,605,o),
(951,706,o),
(683,706,cs),
(455,706,l),
(455,800,l),
(35,800,l)
);
},
{
closed = 1;
nodes = (
(455,460,l),
(603,460,ls),
(644,460,o),
(669,438,o),
(669,400,cs),
(669,362,o),
(644,340,o),
(603,340,cs),
(455,340,l)
);
}
);
width = 1096;
}
);
metricLeft = H;
metricRight = "=SQRU/5";
unicode = 222;
},
{
glyphname = S;
kernLeft = S_LEFT;
kernRight = S_RIGHT;
lastChange = "2022-12-13 08:21:36 +0000";
layers = (
{
anchors = (
{
name = bottom;
pos = (364,0);
},
{
name = currencystroke;
pos = (371,400);
},
{
name = top;
pos = (374,800);
}
);
background = {
shapes = (
{
pos = (-48,0);
ref = H;
}
);
};
layerId = m01;
shapes = (
{
closed = 1;
nodes = (
(56,224,l),
(66,73,o),
(183,-16,o),
(370,-16,cs),
(554,-16,o),
(670,72,o),
(670,224,cs),
(670,352,o),
(584,431,o),
(430,450,cs),
(322,463,ls),
(231,474,o),
(178,515,o),
(178,574,cs),
(178,660,o),
(248,708,o),
(372,708,cs),
(489,708,o),
(559,653,o),
(578,556,c),
(690,556,l),
(676,722,o),
(561,816,o),
(372,816,cs),
(182,816,o),
(66,722,o),
(66,574,cs),
(66,446,o),
(152,367,o),
(306,348,cs),
(414,335,ls),
(504,324,o),
(557,282,o),
(557,222,cs),
(557,139,o),
(490,92,o),
(370,92,cs),
(258,92,o),
(190,140,o),
(171,224,c)
);
}
);
width = 725;
},
{
anchors = (
{
name = bottom;
pos = (384,0);
},
{
name = currencystroke;
pos = (390,400);
},
{
name = top;
pos = (394,800);
}
);
background = {
shapes = (
{
pos = (-25,0);
ref = H;
}
);
};
layerId = m002;
shapes = (
{
closed = 1;
nodes = (
(38,244,l),
(50,70,o),
(170,-20,o),
(390,-20,cs),
(602,-20,o),
(728,75,o),
(728,238,cs),
(728,385,o),
(633,468,o),
(446,486,cs),
(342,496,ls),
(269,503,o),
(232,527,o),
(232,566,cs),
(232,626,o),
(280,652,o),
(390,652,cs),
(488,652,o),
(547,613,o),
(564,536,c),
(744,536,l),
(734,718,o),
(607,820,o),
(390,820,cs),
(176,820,o),
(48,724,o),
(48,560,cs),
(48,411,o),
(143,326,o),
(330,308,cs),
(434,298,ls),
(507,291,o),
(544,269,o),
(544,232,cs),
(544,173,o),
(497,148,o),
(390,148,cs),
(296,148,o),
(241,180,o),
(226,244,c)
);
}
);
width = 768;
},
{
anchors = (
{
name = bottom;
pos = (496,0);
},
{
name = currencystroke;
pos = (492,400);
},
{
name = top;
pos = (506,800);
}
);
background = {
shapes = (
{
pos = (-78,0);
ref = H;
}
);
};
layerId = m003;
shapes = (
{
closed = 1;
nodes = (
(56,244,l),
(76,72,o),
(228,-16,o),
(495,-16,cs),
(767,-16,o),
(920,74,o),
(920,238,cs),
(920,363,o),
(829,437,o),
(650,447,cs),
(356,464,ls),
(245,470,o),
(182,510,o),
(182,570,cs),
(182,662,o),
(297,716,o),
(495,716,cs),
(679,716,o),
(794,655,o),
(828,536,c),
(940,536,l),
(920,721,o),
(766,816,o),
(495,816,cs),
(221,816,o),
(66,723,o),
(66,560,cs),
(66,435,o),
(157,361,o),
(336,351,cs),
(630,334,ls),
(741,328,o),
(804,288,o),
(804,228,cs),
(804,137,o),
(690,84,o),
(495,84,cs),
(319,84,o),
(207,138,o),
(172,244,c)
);
}
);
width = 975;
},
{
anchors = (
{
name = bottom;
pos = (510,0);
},
{
name = currencystroke;
pos = (518,400);
},
{
name = top;
pos = (520,800);
}
);
background = {
shapes = (
{
pos = (-32,0);
ref = H;
}
);
};
layerId = m004;
shapes = (
{
closed = 1;
nodes = (
(44,244,l),
(55,60,o),
(197,-20,o),
(514,-20,cs),
(833,-20,o),
(972,59,o),
(972,242,cs),
(972,389,o),
(869,469,o),
(666,481,cs),
(390,497,ls),
(282,503,o),
(244,521,o),
(244,566,cs),
(244,638,o),
(315,664,o),
(514,664,cs),
(691,664,o),
(777,625,o),
(798,536,c),
(988,536,l),
(977,734,o),
(834,820,o),
(514,820,cs),
(193,820,o),
(54,740,o),
(54,556,cs),
(54,408,o),
(157,328,o),
(360,316,cs),
(636,300,ls),
(744,294,o),
(782,276,o),
(782,232,cs),
(782,162,o),
(711,136,o),
(514,136,cs),
(345,136,o),
(264,169,o),
(246,244,c)
);
}
);
width = 1016;
},
{
anchors = (
{
name = bottom;
pos = (308,0);
},
{
name = currencystroke;
pos = (319,400);
},
{
name = top;
pos = (318,800);
}
);
background = {
shapes = (
{
pos = (-34,0);
ref = H;
}
);
};
layerId = m005;
shapes = (
{
closed = 1;
nodes = (
(50,224,l),
(56,70,o),
(152,-16,o),
(316,-16,cs),
(466,-16,o),
(566,78,o),
(566,220,cs),
(566,346,o),
(497,424,o),
(361,449,cs),
(285,463,ls),
(209,477,o),
(170,515,o),
(170,580,cs),
(170,661,o),
(225,710,o),
(314,710,cs),
(401,710,o),
(455,658,o),
(474,556,c),
(580,556,l),
(574,722,o),
(478,816,o),
(314,816,cs),
(160,816,o),
(58,722,o),
(58,580,cs),
(58,452,o),
(127,374,o),
(263,349,cs),
(339,335,ls),
(415,321,o),
(454,283,o),
(454,220,cs),
(454,139,o),
(402,90,o),
(316,90,cs),
(232,90,o),
(179,136,o),
(160,224,c)
);
}
);
width = 611;
},
{
anchors = (
{
name = bottom;
pos = (326,0);
},
{
name = currencystroke;
pos = (333,400);
},
{
name = top;
pos = (336,800);
}
);
background = {
shapes = (
{
pos = (-18,0);
ref = H;
}
);
};
layerId = m006;
shapes = (
{
closed = 1;
nodes = (
(33,244,l),
(43,75,o),
(151,-20,o),
(333,-20,cs),
(512,-20,o),
(621,76,o),
(621,232,cs),
(621,371,o),
(531,468,o),
(385,487,cs),
(309,497,ls),
(252,504,o),
(223,529,o),
(223,570,cs),
(223,624,o),
(263,654,o),
(334,654,cs),
(409,654,o),
(453,614,o),
(469,536,c),
(635,536,l),
(629,712,o),
(515,820,o),
(336,820,cs),
(154,820,o),
(43,723,o),
(43,566,cs),
(43,427,o),
(133,330,o),
(279,311,cs),
(355,301,ls),
(412,294,o),
(441,269,o),
(441,228,cs),
(441,175,o),
(405,146,o),
(335,146,cs),
(264,146,o),
(223,179,o),
(207,244,c)
);
}
);
width = 656;
},
{
anchors = (
{
name = bottom;
pos = (338,0);
},
{
name = currencystroke;
pos = (341,400);
},
{
name = top;
pos = (348,800);
}
);
background = {
shapes = (
{
pos = (-50,0);
ref = H;
}
);
};
layerId = m007;
shapes = (
{
closed = 1;
nodes = (
(56,224,l),
(71,68,o),
(168,-12,o),
(345,-12,cs),
(508,-12,o),
(608,72,o),
(608,208,cs),
(608,327,o),
(535,397,o),
(392,414,cs),
(290,426,ls),
(165,441,o),
(106,493,o),
(106,590,cs),
(106,704,o),
(193,774,o),
(334,774,cs),
(484,774,o),
(569,700,o),
(583,556,c),
(624,556,l),
(609,725,o),
(510,812,o),
(334,812,cs),
(167,812,o),
(64,728,o),
(64,590,cs),
(64,471,o),
(137,401,o),
(280,384,cs),
(382,372,ls),
(507,357,o),
(566,305,o),
(566,208,cs),
(566,95,o),
(482,26,o),
(345,26,cs),
(195,26,o),
(111,93,o),
(97,224,c)
);
}
);
width = 659;
},
{
anchors = (
{
name = bottom;
pos = (416,0);
},
{
name = currencystroke;
pos = (418,400);
},
{
name = top;
pos = (426,800);
}
);
background = {
shapes = (
{
pos = (-14,0);
ref = H;
}
);
};
layerId = m008;
shapes = (
{
closed = 1;
nodes = (
(18,306,l),
(27,86,o),
(164,-26,o),
(423,-26,cs),
(668,-26,o),
(812,72,o),
(812,238,cs),
(812,387,o),
(741,453,o),
(576,458,cs),
(421,463,ls),
(378,464,o),
(356,481,o),
(356,512,cs),
(356,550,o),
(382,566,o),
(426,566,cs),
(474,566,o),
(500,546,o),
(504,488,c),
(826,488,l),
(818,712,o),
(680,826,o),
(418,826,cs),
(168,826,o),
(20,728,o),
(20,562,cs),
(20,416,o),
(92,348,o),
(258,340,cs),
(418,332,ls),
(456,330,o),
(476,316,o),
(476,284,cs),
(476,249,o),
(454,234,o),
(417,234,cs),
(373,234,o),
(348,258,o),
(344,306,c)
);
}
);
width = 837;
},
{
anchors = (
{
name = bottom;
pos = (288,0);
},
{
name = currencystroke;
pos = (291,400);
},
{
name = top;
pos = (298,800);
}
);
background = {
shapes = (
{
pos = (-47,0);
ref = H;
}
);
};
layerId = m009;
shapes = (
{
closed = 1;
nodes = (
(50,224,l),
(61,68,o),
(144,-12,o),
(294,-12,cs),
(429,-12,o),
(512,68,o),
(512,198,cs),
(512,315,o),
(450,388,o),
(328,413,cs),
(250,429,ls),
(147,450,o),
(98,504,o),
(98,600,cs),
(98,708,o),
(169,774,o),
(284,774,cs),
(407,774,o),
(475,700,o),
(485,556,c),
(526,556,l),
(515,725,o),
(433,812,o),
(284,812,cs),
(143,812,o),
(56,731,o),
(56,600,cs),
(56,483,o),
(118,411,o),
(240,386,cs),
(318,370,ls),
(421,349,o),
(470,294,o),
(470,198,cs),
(470,91,o),
(403,26,o),
(294,26,cs),
(170,26,o),
(101,93,o),
(91,224,c)
);
}
);
width = 557;
},
{
anchors = (
{
name = bottom;
pos = (454,0);
},
{
name = currencystroke;
pos = (451,400);
},
{
name = top;
pos = (464,800);
}
);
background = {
shapes = (
{
pos = (-67,0);
ref = H;
}
);
};
layerId = m010;
shapes = (
{
closed = 1;
nodes = (
(62,224,l),
(75,68,o),
(209,-12,o),
(455,-12,cs),
(696,-12,o),
(832,71,o),
(832,218,cs),
(832,337,o),
(752,403,o),
(596,412,cs),
(316,428,ls),
(178,436,o),
(113,485,o),
(113,580,cs),
(113,704,o),
(236,774,o),
(455,774,cs),
(680,774,o),
(801,700,o),
(811,556,c),
(852,556,l),
(841,725,o),
(706,812,o),
(455,812,cs),
(209,812,o),
(70,728,o),
(70,580,cs),
(70,461,o),
(150,395,o),
(306,386,cs),
(586,370,ls),
(724,362,o),
(789,313,o),
(789,218,cs),
(789,95,o),
(669,26,o),
(455,26,cs),
(235,26,o),
(116,93,o),
(104,224,c)
);
}
);
width = 891;
},
{
anchors = (
{
name = bottom;
pos = (588,0);
},
{
name = currencystroke;
pos = (579,400);
},
{
name = top;
pos = (598,800);
}
);
background = {
shapes = (
{
pos = (-14,0);
ref = H;
}
);
};
layerId = "434FAEF3-677A-47AD-84F7-3A7F762C5BD0";
shapes = (
{
closed = 1;
nodes = (
(18,304,l),
(29,80,o),
(210,-26,o),
(583,-26,cs),
(934,-26,o),
(1132,70,o),
(1132,242,cs),
(1132,375,o),
(1039,445,o),
(856,450,cs),
(557,458,ls),
(485,460,o),
(454,475,o),
(454,508,cs),
(454,546,o),
(495,562,o),
(590,562,cs),
(689,562,o),
(727,542,o),
(732,486,c),
(1148,486,l),
(1140,714,o),
(959,826,o),
(582,826,cs),
(212,826,o),
(24,732,o),
(24,548,cs),
(24,422,o),
(104,355,o),
(262,350,cs),
(613,339,ls),
(675,337,o),
(702,323,o),
(702,290,cs),
(702,254,o),
(664,238,o),
(577,238,cs),
(480,238,o),
(442,256,o),
(438,304,c)
);
}
);
width = 1159;
},
{
anchors = (
{
name = bottom;
pos = (352,0);
},
{
name = currencystroke;
pos = (352,400);
},
{
name = top;
pos = (362,800);
}
);
background = {
shapes = (
{
pos = (-14,0);
ref = H;
}
);
};
layerId = "C0ED73B8-BF3D-4D9D-8EF3-572E464554C2";
shapes = (
{
closed = 1;
nodes = (
(18,296,l),
(28,83,o),
(143,-26,o),
(356,-26,cs),
(558,-26,o),
(678,70,o),
(678,232,cs),
(678,360,o),
(611,432,o),
(478,446,cs),
(361,458,ls),
(327,461,o),
(310,481,o),
(310,518,cs),
(310,552,o),
(327,570,o),
(359,570,cs),
(391,570,o),
(408,542,o),
(412,488,c),
(692,488,l),
(684,710,o),
(568,826,o),
(351,826,cs),
(143,826,o),
(20,730,o),
(20,568,cs),
(20,433,o),
(87,356,o),
(220,340,cs),
(335,326,ls),
(370,322,o),
(388,306,o),
(388,278,cs),
(388,247,o),
(375,230,o),
(348,230,cs),
(323,230,o),
(307,252,o),
(302,296,c)
);
}
);
width = 703;
}
);
metricLeft = RNDU;
metricRight = "=RNDU/1.6";
unicode = 83;
},
{
glyphname = Germandbls;
lastChange = "2022-06-15 06:58:09 +0000";
layers = (
{
layerId = m009;
shapes = (
{
closed = 1;
nodes = (
(137,0,l),
(137,552,ls),
(137,686,o),
(201,762,o),
(315,762,cs),
(530,762,l),
(521,776,l),
(307,440,l),
(307,406,l),
(363,406,ls),
(491,406,o),
(569,336,o),
(569,222,cs),
(569,108,o),
(491,38,o),
(363,38,cs),
(307,38,l),
(307,0,l),
(367,0,ls),
(518,0,o),
(611,84,o),
(611,222,cs),
(611,357,o),
(518,440,o),
(367,440,cs),
(334,440,l),
(341,423,l),
(557,762,l),
(557,800,l),
(319,800,ls),
(176,800,o),
(95,709,o),
(95,548,cs),
(95,0,l)
);
}
);
width = 651;
},
{
background = {
shapes = (
{
pos = (43,0);
ref = B;
}
);
};
layerId = m007;
shapes = (
{
closed = 1;
nodes = (
(148,0,l),
(148,512,ls),
(148,672,o),
(233,762,o),
(384,762,cs),
(636,762,l),
(627,776,l),
(366,440,l),
(366,406,l),
(450,406,ls),
(590,406,o),
(676,336,o),
(676,222,cs),
(676,108,o),
(590,38,o),
(450,38,cs),
(366,38,l),
(366,0,l),
(454,0,ls),
(618,0,o),
(718,84,o),
(718,222,cs),
(718,357,o),
(618,440,o),
(454,440,cs),
(393,440,l),
(400,422,l),
(664,762,l),
(664,800,l),
(388,800,ls),
(208,800,o),
(106,695,o),
(106,508,cs),
(106,0,l)
);
}
);
width = 762;
},
{
layerId = m010;
shapes = (
{
closed = 1;
nodes = (
(159,0,l),
(159,492,ls),
(159,670,o),
(266,762,o),
(475,762,cs),
(867,762,l),
(855,776,l),
(477,440,l),
(477,406,l),
(611,406,ls),
(826,406,o),
(927,347,o),
(927,222,cs),
(927,97,o),
(826,38,o),
(611,38,cs),
(477,38,l),
(477,0,l),
(615,0,ls),
(856,0,o),
(969,71,o),
(969,222,cs),
(969,370,o),
(856,440,o),
(615,440,cs),
(504,440,l),
(511,419,l),
(895,762,l),
(895,800,l),
(479,800,ls),
(240,800,o),
(117,694,o),
(117,488,cs),
(117,0,l)
);
}
);
width = 1018;
},
{
background = {
shapes = (
{
pos = (43,0);
ref = B;
}
);
};
layerId = m005;
shapes = (
{
closed = 1;
nodes = (
(209,0,l),
(209,532,ls),
(209,632,o),
(261,694,o),
(346,694,cs),
(520,694,l),
(520,729,l),
(328,472,l),
(328,372,l),
(422,372,ls),
(499,372,o),
(555,317,o),
(555,240,cs),
(555,162,o),
(499,106,o),
(422,106,cs),
(328,106,l),
(328,0,l),
(426,0,ls),
(567,0,o),
(669,101,o),
(669,240,cs),
(669,375,o),
(567,472,o),
(426,472,cs),
(395,472,l),
(418,431,l),
(613,694,l),
(613,800,l),
(350,800,ls),
(192,800,o),
(95,697,o),
(95,528,cs),
(95,0,l)
);
}
);
width = 709;
},
{
background = {
shapes = (
{
pos = (43,0);
ref = B;
}
);
};
layerId = m01;
shapes = (
{
closed = 1;
nodes = (
(220,0,l),
(220,512,ls),
(220,627,o),
(285,692,o),
(400,692,cs),
(639,692,l),
(639,729,l),
(392,472,l),
(392,372,l),
(506,372,ls),
(609,372,o),
(672,322,o),
(672,240,cs),
(672,158,o),
(609,108,o),
(506,108,cs),
(392,108,l),
(392,0,l),
(510,0,ls),
(681,0,o),
(786,91,o),
(786,240,cs),
(786,384,o),
(681,472,o),
(510,472,cs),
(459,472,l),
(486,431,l),
(736,692,l),
(736,800,l),
(404,800,ls),
(213,800,o),
(106,695,o),
(106,508,cs),
(106,0,l)
);
}
);
width = 830;
},
{
background = {
shapes = (
{
pos = (43,0);
ref = B;
}
);
};
layerId = m003;
shapes = (
{
closed = 1;
nodes = (
(220,0,l),
(220,492,ls),
(220,625,o),
(322,700,o),
(503,700,cs),
(856,700,l),
(856,729,l),
(485,472,l),
(485,376,l),
(669,376,ls),
(845,376,o),
(936,330,o),
(936,242,cs),
(936,148,o),
(845,100,o),
(669,100,cs),
(485,100,l),
(485,0,l),
(673,0,ls),
(923,0,o),
(1052,82,o),
(1052,242,cs),
(1052,391,o),
(923,468,o),
(673,468,cs),
(552,468,l),
(595,431,l),
(982,700,l),
(982,800,l),
(507,800,ls),
(250,800,o),
(106,688,o),
(106,488,cs),
(106,0,l)
);
}
);
width = 1096;
},
{
layerId = m006;
shapes = (
{
closed = 1;
nodes = (
(250,0,l),
(250,492,ls),
(250,582,o),
(290,632,o),
(362,632,cs),
(506,632,l),
(506,688,l),
(324,494,l),
(324,346,l),
(408,346,ls),
(470,346,o),
(508,312,o),
(508,257,cs),
(508,202,o),
(470,168,o),
(408,168,cs),
(324,168,l),
(324,0,l),
(412,0,ls),
(588,0,o),
(696,94,o),
(696,247,cs),
(696,400,o),
(588,494,o),
(412,494,cs),
(391,494,l),
(454,435,l),
(639,632,l),
(639,800,l),
(366,800,ls),
(171,800,o),
(62,688,o),
(62,488,cs),
(62,0,l)
);
}
);
width = 722;
},
{
background = {
shapes = (
{
pos = (49,0);
ref = B;
}
);
};
layerId = m002;
shapes = (
{
closed = 1;
nodes = (
(261,0,l),
(261,482,ls),
(261,578,o),
(309,628,o),
(402,628,cs),
(626,628,l),
(626,688,l),
(394,496,l),
(394,344,l),
(508,344,ls),
(591,344,o),
(637,313,o),
(637,258,cs),
(637,203,o),
(591,172,o),
(508,172,cs),
(394,172,l),
(394,0,l),
(512,0,ls),
(712,0,o),
(825,89,o),
(825,248,cs),
(825,407,o),
(712,496,o),
(512,496,cs),
(461,496,l),
(537,435,l),
(768,628,l),
(768,800,l),
(406,800,ls),
(186,800,o),
(73,691,o),
(73,478,cs),
(73,0,l)
);
}
);
width = 855;
},
{
layerId = m004;
shapes = (
{
closed = 1;
nodes = (
(272,0,l),
(272,462,ls),
(272,583,o),
(343,646,o),
(481,646,cs),
(838,646,l),
(838,688,l),
(473,484,l),
(473,348,l),
(677,348,ls),
(831,348,o),
(904,317,o),
(904,251,cs),
(904,185,o),
(831,154,o),
(677,154,cs),
(473,154,l),
(473,0,l),
(681,0,ls),
(960,0,o),
(1092,77,o),
(1092,242,cs),
(1092,407,o),
(960,484,o),
(681,484,cs),
(560,484,l),
(647,435,l),
(1015,640,l),
(1015,800,l),
(485,800,ls),
(220,800,o),
(84,684,o),
(84,458,cs),
(84,0,l)
);
}
);
width = 1127;
},
{
layerId = "C0ED73B8-BF3D-4D9D-8EF3-572E464554C2";
shapes = (
{
closed = 1;
nodes = (
(323,0,l),
(323,472,ls),
(323,537,o),
(350,570,o),
(401,570,cs),
(549,570,l),
(549,612,l),
(357,458,l),
(357,358,l),
(403,358,ls),
(453,358,o),
(479,336,o),
(479,294,cs),
(479,252,o),
(453,230,o),
(403,230,cs),
(357,230,l),
(357,0,l),
(467,0,ls),
(658,0,o),
(757,78,o),
(757,229,cs),
(757,380,o),
(658,458,o),
(467,458,cs),
(410,458,l),
(522,418,l),
(701,564,l),
(701,800,l),
(405,800,ls),
(146,800,o),
(35,700,o),
(35,468,cs),
(35,0,l)
);
}
);
width = 772;
},
{
background = {
shapes = (
{
pos = (53,0);
ref = B;
}
);
};
layerId = m008;
shapes = (
{
closed = 1;
nodes = (
(371,0,l),
(371,462,ls),
(371,529,o),
(406,564,o),
(473,564,cs),
(643,564,l),
(643,612,l),
(429,472,l),
(429,344,l),
(495,344,ls),
(549,344,o),
(575,327,o),
(575,290,cs),
(575,253,o),
(549,236,o),
(495,236,cs),
(429,236,l),
(429,0,l),
(539,0,ls),
(785,0,o),
(901,76,o),
(901,236,cs),
(901,396,o),
(785,472,o),
(539,472,cs),
(482,472,l),
(654,438,l),
(845,564,l),
(845,800,l),
(477,800,ls),
(168,800,o),
(35,697,o),
(35,458,cs),
(35,0,l)
);
}
);
width = 916;
},
{
layerId = "434FAEF3-677A-47AD-84F7-3A7F762C5BD0";
shapes = (
{
closed = 1;
nodes = (
(455,0,l),
(455,432,ls),
(455,519,o),
(509,564,o),
(613,564,cs),
(933,564,l),
(933,612,l),
(599,472,l),
(599,344,l),
(695,344,ls),
(787,344,o),
(831,327,o),
(831,290,cs),
(831,253,o),
(787,236,o),
(695,236,cs),
(599,236,l),
(599,0,l),
(789,0,ls),
(1103,0,o),
(1251,76,o),
(1251,236,cs),
(1251,396,o),
(1103,472,o),
(789,472,cs),
(702,472,l),
(874,438,l),
(1175,564,l),
(1175,800,l),
(617,800,ls),
(210,800,o),
(35,688,o),
(35,428,cs),
(35,0,l)
);
}
);
width = 1266;
}
);
metricLeft = SQRU;
metricRight = "=SQRU/2.4";
unicode = 7838;
},
{
glyphname = U;
kernRight = U_RIGHT;
lastChange = "2022-09-04 18:53:31 +0000";
layers = (
{
anchors = (
{
name = bottom;
pos = (411,0);
},
{
name = ogonek;
pos = (520,10);
},
{
name = top;
pos = (411,800);
},
{
name = topright;
pos = (784,800);
}
);
background = {
shapes = (
{
pos = (-6,0);
ref = H;
}
);
};
layerId = m01;
shapes = (
{
closed = 1;
nodes = (
(106,300,ls),
(106,104,o),
(222,-16,o),
(411,-16,cs),
(600,-16,o),
(716,104,o),
(716,300,cs),
(716,800,l),
(606,800,l),
(606,310,ls),
(606,174,o),
(534,94,o),
(413,94,cs),
(292,94,o),
(220,174,o),
(220,310,cs),
(220,800,l),
(106,800,l)
);
}
);
width = 804;
},
{
anchors = (
{
name = bottom;
pos = (418,0);
},
{
name = ogonek;
pos = (554,10);
},
{
name = top;
pos = (418,800);
},
{
name = topright;
pos = (804,800);
}
);
layerId = m002;
shapes = (
{
closed = 1;
nodes = (
(73,320,ls),
(73,106,o),
(201,-20,o),
(418,-20,cs),
(635,-20,o),
(763,106,o),
(763,320,cs),
(763,800,l),
(583,800,l),
(583,342,ls),
(583,228,o),
(523,160,o),
(422,160,cs),
(321,160,o),
(261,223,o),
(261,330,cs),
(261,800,l),
(73,800,l)
);
}
);
width = 824;
},
{
anchors = (
{
name = bottom;
pos = (529,0);
},
{
name = ogonek;
pos = (680,10);
},
{
name = top;
pos = (529,800);
},
{
name = topright;
pos = (1020,800);
}
);
layerId = m003;
shapes = (
{
closed = 1;
nodes = (
(106,320,ls),
(106,109,o),
(263,-16,o),
(529,-16,cs),
(795,-16,o),
(952,109,o),
(952,320,cs),
(952,800,l),
(842,800,l),
(842,330,ls),
(842,180,o),
(726,92,o),
(531,92,cs),
(336,92,o),
(220,180,o),
(220,330,cs),
(220,800,l),
(106,800,l)
);
}
);
width = 1040;
},
{
anchors = (
{
name = bottom;
pos = (545,0);
},
{
name = ogonek;
pos = (722,10);
},
{
name = top;
pos = (545,800);
},
{
name = topright;
pos = (1056,800);
}
);
layerId = m004;
shapes = (
{
closed = 1;
nodes = (
(84,340,ls),
(84,114,o),
(255,-20,o),
(545,-20,cs),
(835,-20,o),
(1006,114,o),
(1006,340,cs),
(1006,800,l),
(826,800,l),
(826,361,ls),
(826,230,o),
(723,152,o),
(549,152,cs),
(375,152,o),
(272,226,o),
(272,350,cs),
(272,800,l),
(84,800,l)
);
}
);
width = 1076;
},
{
anchors = (
{
name = bottom;
pos = (352,0);
},
{
name = ogonek;
pos = (452,10);
},
{
name = top;
pos = (352,800);
},
{
name = topright;
pos = (668,800);
}
);
layerId = m005;
shapes = (
{
closed = 1;
nodes = (
(95,260,ls),
(95,87,o),
(190,-16,o),
(352,-16,cs),
(514,-16,o),
(609,87,o),
(609,260,cs),
(609,800,l),
(499,800,l),
(499,270,ls),
(499,159,o),
(445,94,o),
(354,94,cs),
(263,94,o),
(209,159,o),
(209,270,cs),
(209,800,l),
(95,800,l)
);
}
);
width = 688;
},
{
anchors = (
{
name = bottom;
pos = (353,0);
},
{
name = ogonek;
pos = (472,10);
},
{
name = top;
pos = (353,800);
},
{
name = topright;
pos = (676,800);
}
);
layerId = m006;
shapes = (
{
closed = 1;
nodes = (
(62,290,ls),
(62,95,o),
(170,-20,o),
(353,-20,cs),
(536,-20,o),
(644,95,o),
(644,290,cs),
(644,800,l),
(464,800,l),
(464,306,ls),
(464,214,o),
(424,160,o),
(357,160,cs),
(290,160,o),
(250,212,o),
(250,300,cs),
(250,800,l),
(62,800,l)
);
}
);
width = 696;
},
{
anchors = (
{
name = bottom;
pos = (381,0);
},
{
name = ogonek;
pos = (470,10);
},
{
name = top;
pos = (381,800);
},
{
name = topright;
pos = (724,800);
}
);
layerId = m007;
shapes = (
{
closed = 1;
nodes = (
(106,280,ls),
(106,99,o),
(211,-12,o),
(381,-12,cs),
(551,-12,o),
(656,99,o),
(656,280,cs),
(656,800,l),
(615,800,l),
(615,280,ls),
(615,124,o),
(525,28,o),
(381,28,cs),
(237,28,o),
(148,124,o),
(148,280,cs),
(148,800,l),
(106,800,l)
);
}
);
width = 744;
},
{
anchors = (
{
name = bottom;
pos = (426,0);
},
{
name = ogonek;
pos = (609,10);
},
{
name = top;
pos = (426,800);
},
{
name = topright;
pos = (826,800);
}
);
background = {
shapes = (
{
pos = (-4,0);
ref = H;
}
);
};
layerId = m008;
shapes = (
{
closed = 1;
nodes = (
(35,320,ls),
(35,91,o),
(167,-26,o),
(426,-26,cs),
(685,-26,o),
(817,91,o),
(817,320,cs),
(817,800,l),
(497,800,l),
(497,320,ls),
(497,266,o),
(476,238,o),
(434,238,cs),
(392,238,o),
(371,266,o),
(371,320,cs),
(371,800,l),
(35,800,l)
);
}
);
width = 846;
},
{
anchors = (
{
name = bottom;
pos = (327,0);
},
{
name = ogonek;
pos = (406,10);
},
{
name = top;
pos = (327,800);
},
{
name = topright;
pos = (618,800);
}
);
layerId = m009;
shapes = (
{
closed = 1;
nodes = (
(95,250,ls),
(95,88,o),
(183,-12,o),
(327,-12,cs),
(471,-12,o),
(559,88,o),
(559,250,cs),
(559,800,l),
(518,800,l),
(518,250,ls),
(518,112,o),
(445,28,o),
(327,28,cs),
(209,28,o),
(137,112,o),
(137,250,cs),
(137,800,l),
(95,800,l)
);
}
);
width = 638;
},
{
anchors = (
{
name = bottom;
pos = (500,0);
},
{
name = ogonek;
pos = (623,10);
},
{
name = top;
pos = (500,800);
},
{
name = topright;
pos = (961,800);
}
);
layerId = m010;
shapes = (
{
closed = 1;
nodes = (
(117,320,ls),
(117,108,o),
(255,-12,o),
(500,-12,cs),
(745,-12,o),
(883,108,o),
(883,320,cs),
(883,800,l),
(842,800,l),
(842,320,ls),
(842,133,o),
(718,28,o),
(500,28,cs),
(282,28,o),
(159,133,o),
(159,320,cs),
(159,800,l),
(117,800,l)
);
}
);
width = 981;
},
{
anchors = (
{
name = bottom;
pos = (582,0);
},
{
name = ogonek;
pos = (825,10);
},
{
name = top;
pos = (582,800);
},
{
name = topright;
pos = (1138,800);
}
);
background = {
shapes = (
{
pos = (-8,0);
ref = H;
}
);
};
layerId = "434FAEF3-677A-47AD-84F7-3A7F762C5BD0";
shapes = (
{
closed = 1;
nodes = (
(35,360,ls),
(35,105,o),
(221,-26,o),
(582,-26,cs),
(943,-26,o),
(1129,105,o),
(1129,360,cs),
(1129,800,l),
(729,800,l),
(729,360,ls),
(729,279,o),
(676,238,o),
(592,238,cs),
(508,238,o),
(455,279,o),
(455,360,cs),
(455,800,l),
(35,800,l)
);
}
);
width = 1158;
},
{
anchors = (
{
name = bottom;
pos = (362,0);
},
{
name = ogonek;
pos = (512,10);
},
{
name = top;
pos = (362,800);
},
{
name = topright;
pos = (698,800);
}
);
background = {
shapes = (
{
pos = (-2,0);
ref = H;
}
);
};
layerId = "C0ED73B8-BF3D-4D9D-8EF3-572E464554C2";
shapes = (
{
closed = 1;
nodes = (
(35,300,ls),
(35,91,o),
(153,-26,o),
(362,-26,cs),
(571,-26,o),
(689,91,o),
(689,300,cs),
(689,800,l),
(417,800,l),
(417,296,ls),
(417,257,o),
(400,234,o),
(370,234,cs),
(340,234,o),
(323,257,o),
(323,296,cs),
(323,800,l),
(35,800,l)
);
}
);
width = 718;
}
);
metricLeft = SQRU;
metricRight = "=SQRU/1.2";
unicode = 85;
},
{
glyphname = V;
lastChange = "2023-01-16 20:17:03 +0000";
layers = (
{
anchors = (
{
name = connect;
pos = (367,800);
}
);
background = {
shapes = (
{
pos = (-52,0);
ref = H;
}
);
};
layerId = m01;
shapes = (
{
closed = 1;
nodes = (
(5,800,l),
(267,0,l),
(461,0,l),
(723,800,l),
(608,800,l),
(352,6,l),
(382,6,l),
(126,800,l)
);
}
);
width = 728;
},
{
anchors = (
{
name = connect;
pos = (396,800);
}
);
layerId = m002;
shapes = (
{
closed = 1;
nodes = (
(4,800,l),
(236,0,l),
(556,0,l),
(788,800,l),
(609,800,l),
(392,40,l),
(412,40,l),
(196,800,l)
);
}
);
width = 792;
},
{
anchors = (
{
name = connect;
pos = (508,800);
}
);
layerId = m003;
shapes = (
{
closed = 1;
nodes = (
(5,800,l),
(412,0,l),
(602,0,l),
(1009,800,l),
(891,800,l),
(490,8,l),
(538,8,l),
(137,800,l)
);
}
);
width = 1014;
},
{
anchors = (
{
name = connect;
pos = (525,800);
}
);
layerId = m004;
shapes = (
{
closed = 1;
nodes = (
(4,800,l),
(370,0,l),
(680,0,l),
(1046,800,l),
(859,800,l),
(506,24,l),
(558,24,l),
(206,800,l)
);
}
);
width = 1050;
},
{
anchors = (
{
name = connect;
pos = (311,800);
}
);
layerId = m005;
shapes = (
{
closed = 1;
nodes = (
(5,800,l),
(221,0,l),
(399,0,l),
(615,800,l),
(505,800,l),
(305,24,l),
(324,24,l),
(123,800,l)
);
}
);
width = 620;
},
{
anchors = (
{
name = connect;
pos = (335,800);
}
);
layerId = m006;
shapes = (
{
closed = 1;
nodes = (
(3,800,l),
(185,0,l),
(485,0,l),
(667,800,l),
(490,800,l),
(326,32,l),
(357,32,l),
(192,800,l)
);
}
);
width = 670;
},
{
anchors = (
{
name = connect;
pos = (330,800);
}
);
layerId = m007;
shapes = (
{
closed = 1;
nodes = (
(5,800,l),
(295,0,l),
(365,0,l),
(655,800,l),
(611,800,l),
(324,2,l),
(338,2,l),
(51,800,l)
);
}
);
width = 660;
},
{
anchors = (
{
name = connect;
pos = (432,800);
}
);
background = {
shapes = (
{
pos = (2,0);
ref = H;
}
);
};
layerId = m008;
shapes = (
{
closed = 1;
nodes = (
(2,800,l),
(168,0,l),
(696,0,l),
(862,800,l),
(549,800,l),
(422,6,l),
(471,6,l),
(344,800,l)
);
}
);
width = 864;
},
{
anchors = (
{
name = connect;
pos = (279,800);
}
);
layerId = m009;
shapes = (
{
closed = 1;
nodes = (
(5,800,l),
(246,0,l),
(312,0,l),
(553,800,l),
(510,800,l),
(273,7,l),
(287,7,l),
(50,800,l)
);
}
);
width = 558;
},
{
anchors = (
{
name = connect;
pos = (460,800);
}
);
layerId = m010;
shapes = (
{
closed = 1;
nodes = (
(6,800,l),
(425,0,l),
(495,0,l),
(914,800,l),
(868,800,l),
(450,1,l),
(472,1,l),
(55,800,l)
);
}
);
width = 920;
},
{
anchors = (
{
name = connect;
pos = (606,800);
}
);
background = {
shapes = (
{
pos = (4,0);
ref = H;
}
);
};
layerId = "434FAEF3-677A-47AD-84F7-3A7F762C5BD0";
shapes = (
{
closed = 1;
nodes = (
(2,800,l),
(282,0,l),
(930,0,l),
(1210,800,l),
(808,800,l),
(577,16,l),
(673,16,l),
(442,800,l)
);
}
);
width = 1212;
},
{
anchors = (
{
name = connect;
pos = (360,800);
}
);
background = {
shapes = (
{
pos = (4,0);
ref = H;
}
);
};
layerId = "C0ED73B8-BF3D-4D9D-8EF3-572E464554C2";
shapes = (
{
closed = 1;
nodes = (
(2,800,l),
(126,0,l),
(594,0,l),
(718,800,l),
(450,800,l),
(348,6,l),
(392,6,l),
(294,800,l)
);
}
);
width = 720;
}
);
metricLeft = TNGU;
metricRight = TNGU;
unicode = 86;
},
{
glyphname = W;
kernLeft = W_LEFT;
kernRight = W_RIGHT;
lastChange = "2022-10-11 19:20:30 +0000";
layers = (
{
anchors = (
{
name = bottom;
pos = (534,0);
},
{
name = top;
pos = (534,800);
},
{
name = topacute;
pos = (532,800);
},
{
name = topgrave;
pos = (542,800);
}
);
layerId = m01;
shapes = (
{
closed = 1;
nodes = (
(20,800,l),
(197,0,l),
(386,0,l),
(545,793,l),
(525,793,l),
(683,0,l),
(871,0,l),
(1048,800,l),
(937,800,l),
(766,2,l),
(785,2,l),
(626,800,l),
(449,800,l),
(290,2,l),
(309,2,l),
(137,800,l)
);
}
);
width = 1068;
},
{
anchors = (
{
name = bottom;
pos = (619,0);
},
{
name = top;
pos = (619,800);
},
{
name = topacute;
pos = (622,800);
},
{
name = topgrave;
pos = (630,800);
}
);
layerId = m002;
shapes = (
{
closed = 1;
nodes = (
(16,800,l),
(198,0,l),
(503,0,l),
(632,764,l),
(604,764,l),
(742,0,l),
(1036,0,l),
(1222,800,l),
(1045,800,l),
(871,20,l),
(901,20,l),
(760,800,l),
(488,800,l),
(356,20,l),
(377,20,l),
(205,800,l)
);
}
);
width = 1238;
},
{
anchors = (
{
name = bottom;
pos = (736,0);
},
{
name = top;
pos = (736,800);
},
{
name = topacute;
pos = (724,800);
},
{
name = topgrave;
pos = (753,800);
}
);
layerId = m003;
shapes = (
{
closed = 1;
nodes = (
(20,800,l),
(304,0,l),
(490,0,l),
(751,798,l),
(718,798,l),
(982,0,l),
(1168,0,l),
(1452,800,l),
(1339,800,l),
(1057,2,l),
(1095,2,l),
(831,800,l),
(645,800,l),
(387,2,l),
(424,2,l),
(143,800,l)
);
}
);
width = 1472;
},
{
anchors = (
{
name = bottom;
pos = (817,0);
},
{
name = top;
pos = (817,800);
},
{
name = topacute;
pos = (820,800);
},
{
name = topgrave;
pos = (824,800);
}
);
layerId = m004;
shapes = (
{
closed = 1;
nodes = (
(16,800,l),
(304,0,l),
(614,0,l),
(838,781,l),
(796,781,l),
(1020,0,l),
(1330,0,l),
(1618,800,l),
(1437,800,l),
(1157,13,l),
(1195,13,l),
(970,800,l),
(673,800,l),
(447,13,l),
(494,13,l),
(214,800,l)
);
}
);
width = 1634;
},
{
anchors = (
{
name = bottom;
pos = (436,0);
},
{
name = top;
pos = (436,800);
},
{
name = topacute;
pos = (431,800);
},
{
name = topgrave;
pos = (445,800);
}
);
background = {
shapes = (
{
pos = (-64,0);
ref = H;
}
);
};
layerId = m005;
shapes = (
{
closed = 1;
nodes = (
(20,800,l),
(155,0,l),
(333,0,l),
(445,794,l),
(427,794,l),
(541,0,l),
(717,0,l),
(852,800,l),
(753,800,l),
(620,4,l),
(637,4,l),
(523,800,l),
(355,800,l),
(243,4,l),
(260,4,l),
(128,800,l)
);
}
);
width = 872;
},
{
anchors = (
{
name = bottom;
pos = (498,0);
},
{
name = top;
pos = (498,800);
},
{
name = topacute;
pos = (500,800);
},
{
name = topgrave;
pos = (514,800);
}
);
background = {
shapes = (
{
pos = (-50,0);
ref = H;
}
);
};
layerId = m006;
shapes = (
{
closed = 1;
nodes = (
(12,800,l),
(145,0,l),
(417,0,l),
(509,778,l),
(487,778,l),
(579,0,l),
(851,0,l),
(984,800,l),
(817,800,l),
(695,13,l),
(724,13,l),
(632,800,l),
(376,800,l),
(284,13,l),
(313,13,l),
(191,800,l)
);
}
);
width = 996;
},
{
anchors = (
{
name = bottom;
pos = (481,0);
},
{
name = top;
pos = (481,800);
},
{
name = topacute;
pos = (478,800);
},
{
name = topgrave;
pos = (484,800);
}
);
layerId = m007;
shapes = (
{
closed = 1;
nodes = (
(20,800,l),
(239,0,l),
(310,0,l),
(486,795,l),
(478,795,l),
(655,0,l),
(723,0,l),
(942,800,l),
(901,800,l),
(685,3,l),
(694,3,l),
(517,800,l),
(449,800,l),
(272,1,l),
(281,1,l),
(65,800,l)
);
}
);
width = 962;
},
{
anchors = (
{
name = bottom;
pos = (552,0);
},
{
name = top;
pos = (552,800);
},
{
name = topacute;
pos = (564,800);
},
{
name = topgrave;
pos = (572,800);
}
);
guides = (
{
pos = (755,269);
}
);
layerId = m008;
shapes = (
{
closed = 1;
nodes = (
(8,800,l),
(76,0,l),
(506,0,l),
(566,669,l),
(548,669,l),
(608,0,l),
(1028,0,l),
(1096,800,l),
(788,800,l),
(747,136,l),
(764,136,l),
(704,800,l),
(426,800,l),
(366,136,l),
(383,136,l),
(342,800,l)
);
}
);
width = 1104;
},
{
anchors = (
{
name = bottom;
pos = (392,0);
},
{
name = top;
pos = (392,800);
},
{
name = topacute;
pos = (386,800);
},
{
name = topgrave;
pos = (398,800);
}
);
background = {
shapes = (
{
pos = (-75,0);
ref = H;
}
);
};
layerId = m009;
shapes = (
{
closed = 1;
nodes = (
(20,800,l),
(196,0,l),
(264,0,l),
(395,785,l),
(389,785,l),
(521,0,l),
(588,0,l),
(764,800,l),
(723,800,l),
(551,14,l),
(557,14,l),
(426,800,l),
(359,800,l),
(229,14,l),
(235,14,l),
(64,800,l)
);
}
);
width = 784;
},
{
anchors = (
{
name = bottom;
pos = (672,0);
},
{
name = top;
pos = (672,800);
},
{
name = topacute;
pos = (671,800);
},
{
name = topgrave;
pos = (673,800);
}
);
layerId = m010;
shapes = (
{
closed = 1;
nodes = (
(24,800,l),
(337,0,l),
(407,0,l),
(678,791,l),
(666,791,l),
(936,0,l),
(1006,0,l),
(1319,800,l),
(1275,800,l),
(964,1,l),
(979,1,l),
(706,800,l),
(641,800,l),
(367,1,l),
(382,1,l),
(71,800,l)
);
}
);
width = 1343;
},
{
anchors = (
{
name = bottom;
pos = (772,0);
},
{
name = top;
pos = (772,800);
},
{
name = topacute;
pos = (771,800);
},
{
name = topgrave;
pos = (814,800);
}
);
layerId = "434FAEF3-677A-47AD-84F7-3A7F762C5BD0";
shapes = (
{
closed = 1;
nodes = (
(8,800,l),
(136,0,l),
(712,0,l),
(793,764,l),
(756,764,l),
(842,0,l),
(1408,0,l),
(1536,800,l),
(1159,800,l),
(1058,60,l),
(1085,60,l),
(1002,800,l),
(572,800,l),
(493,60,l),
(518,60,l),
(415,800,l)
);
}
);
width = 1544;
},
{
anchors = (
{
name = bottom;
pos = (462,0);
},
{
name = top;
pos = (462,800);
},
{
name = topacute;
pos = (466,800);
},
{
name = topgrave;
pos = (480,800);
}
);
background = {
shapes = (
{
pos = (-75,0);
ref = H;
}
);
};
guides = (
{
pos = (623,198);
}
);
layerId = "C0ED73B8-BF3D-4D9D-8EF3-572E464554C2";
shapes = (
{
closed = 1;
nodes = (
(8,800,l),
(72,0,l),
(419,0,l),
(465,709,l),
(451,709,l),
(503,0,l),
(852,0,l),
(916,800,l),
(658,800,l),
(617,91,l),
(631,91,l),
(579,800,l),
(355,800,l),
(309,91,l),
(322,91,l),
(281,800,l)
);
}
);
width = 924;
}
);
metricLeft = "=TNGU*4";
metricRight = "=TNGU*4";
unicode = 87;
},
{
glyphname = X;
kernLeft = X_LEFT;
kernRight = X_RIGHT;
lastChange = "2023-04-24 17:12:09 +0000";
layers = (
{
anchors = (
{
name = "#exit";
pos = (606,0);
}
);
background = {
shapes = (
{
pos = (-68,0);
ref = H;
}
);
};
layerId = m01;
shapes = (
{
closed = 1;
nodes = (
(10,800,l),
(251,384,l),
(28,0,l),
(159,0,l),
(381,385,l),
(142,800,l)
);
},
{
closed = 1;
nodes = (
(316,384,l),
(534,0,l),
(668,0,l),
(446,388,l),
(686,800,l),
(558,800,l)
);
}
);
width = 696;
},
{
anchors = (
{
name = "#exit";
pos = (606,0);
}
);
background = {
shapes = (
{
pos = (-9,0);
ref = V;
}
);
};
layerId = m002;
shapes = (
{
closed = 1;
nodes = (
(8,800,l),
(232,386,l),
(22,0,l),
(222,0,l),
(434,390,l),
(213,800,l)
);
},
{
closed = 1;
nodes = (
(341,378,l),
(543,0,l),
(752,0,l),
(542,392,l),
(766,800,l),
(572,800,l)
);
}
);
width = 774;
},
{
anchors = (
{
name = "#exit";
pos = (890,0);
}
);
background = {
shapes = (
{
pos = (-56,0);
ref = H;
}
);
};
layerId = m003;
shapes = (
{
closed = 1;
nodes = (
(10,800,l),
(364,384,l),
(34,0,l),
(176,0,l),
(511,390,l),
(162,800,l)
);
},
{
closed = 1;
nodes = (
(449,387,l),
(774,0,l),
(926,0,l),
(596,394,l),
(950,800,l),
(809,800,l)
);
}
);
width = 960;
},
{
anchors = (
{
name = "#exit";
pos = (852,0);
}
);
background = {
shapes = (
{
pos = (-10,0);
ref = V;
}
);
};
layerId = m004;
shapes = (
{
closed = 1;
nodes = (
(8,800,l),
(348,382,l),
(30,0,l),
(249,0,l),
(572,388,l),
(237,800,l)
);
},
{
closed = 1;
nodes = (
(458,384,l),
(766,0,l),
(1000,0,l),
(682,395,l),
(1022,800,l),
(808,800,l)
);
}
);
width = 1030;
},
{
anchors = (
{
name = "#exit";
pos = (512,0);
}
);
background = {
shapes = (
{
pos = (-47,0);
ref = H;
}
);
};
layerId = m005;
shapes = (
{
closed = 1;
nodes = (
(10,800,l),
(210,380,l),
(24,0,l),
(144,0,l),
(331,383,l),
(134,800,l)
);
},
{
closed = 1;
nodes = (
(269,382,l),
(449,0,l),
(574,0,l),
(389,390,l),
(588,800,l),
(470,800,l)
);
}
);
width = 598;
},
{
anchors = (
{
name = "#exit";
pos = (496,0);
}
);
layerId = m006;
shapes = (
{
closed = 1;
nodes = (
(6,800,l),
(183,384,l),
(20,0,l),
(208,0,l),
(372,394,l),
(203,800,l)
);
},
{
closed = 1;
nodes = (
(281,371,l),
(432,0,l),
(632,0,l),
(469,390,l),
(646,800,l),
(462,800,l)
);
}
);
width = 652;
},
{
anchors = (
{
name = "#exit";
pos = (594,0);
}
);
background = {
shapes = (
{
pos = (-15,0);
ref = V;
}
);
};
layerId = m007;
shapes = (
{
closed = 1;
nodes = (
(10,800,l),
(274,386,l),
(26,0,l),
(76,0,l),
(324,387,l),
(61,800,l)
);
},
{
closed = 1;
nodes = (
(306,386,l),
(552,0,l),
(604,0,l),
(356,389,l),
(620,800,l),
(571,800,l)
);
}
);
width = 630;
},
{
anchors = (
{
name = "#exit";
pos = (554,0);
}
);
background = {
shapes = (
{
pos = (-13,0);
ref = V;
}
);
};
layerId = m008;
shapes = (
{
closed = 1;
nodes = (
(4,800,l),
(150,386,l),
(12,0,l),
(344,0,l),
(466,392,l),
(361,800,l)
);
},
{
closed = 1;
nodes = (
(372,372,l),
(469,0,l),
(826,0,l),
(688,386,l),
(834,800,l),
(506,800,l)
);
}
);
width = 838;
},
{
anchors = (
{
name = "#exit";
pos = (500,0);
}
);
layerId = m009;
shapes = (
{
closed = 1;
nodes = (
(10,800,l),
(231,386,l),
(26,0,l),
(74,0,l),
(279,387,l),
(59,800,l)
);
},
{
closed = 1;
nodes = (
(255,383,l),
(458,0,l),
(508,0,l),
(303,386,l),
(524,800,l),
(478,800,l)
);
}
);
width = 534;
},
{
anchors = (
{
name = "#exit";
pos = (818,0);
}
);
background = {
shapes = (
{
pos = (-23,0);
ref = V;
}
);
};
layerId = m010;
shapes = (
{
closed = 1;
nodes = (
(12,800,l),
(384,386,l),
(38,0,l),
(96,0,l),
(442,386,l),
(70,800,l)
);
},
{
closed = 1;
nodes = (
(424,386,l),
(776,0,l),
(836,0,l),
(481,388,l),
(862,800,l),
(806,800,l)
);
}
);
width = 874;
},
{
anchors = (
{
name = "#exit";
pos = (840,0);
}
);
background = {
shapes = (
{
pos = (-19,0);
ref = V;
}
);
};
layerId = "434FAEF3-677A-47AD-84F7-3A7F762C5BD0";
shapes = (
{
closed = 1;
nodes = (
(4,800,l),
(238,376,l),
(12,0,l),
(446,0,l),
(666,390,l),
(462,800,l)
);
},
{
closed = 1;
nodes = (
(510,386,l),
(698,0,l),
(1162,0,l),
(936,396,l),
(1170,800,l),
(744,800,l)
);
}
);
width = 1174;
},
{
anchors = (
{
name = "#exit";
pos = (444,0);
}
);
background = {
shapes = (
{
pos = (-11,0);
ref = V;
}
);
};
layerId = "C0ED73B8-BF3D-4D9D-8EF3-572E464554C2";
shapes = (
{
closed = 1;
nodes = (
(4,800,l),
(130,386,l),
(12,0,l),
(294,0,l),
(396,392,l),
(307,800,l)
);
},
{
closed = 1;
nodes = (
(302,372,l),
(383,0,l),
(686,0,l),
(568,386,l),
(694,800,l),
(416,800,l)
);
}
);
width = 698;
}
);
metricLeft = "=TNGU*2";
metricRight = "=TNGU*2";
unicode = 88;
},
{
glyphname = Y;
kernLeft = Y_LEFT;
kernRight = Y_RIGHT;
lastChange = "2023-04-28 15:26:06 +0000";
layers = (
{
anchors = (
{
name = bottom;
pos = (335,0);
},
{
name = center;
pos = (335,270);
},
{
name = top;
pos = (335,800);
},
{
name = topleft;
pos = (20,800);
}
);
background = {
shapes = (
{
pos = (-36,0);
ref = V;
}
);
};
layerId = m01;
shapes = (
{
closed = 1;
nodes = (
(-5,800,l),
(278,368,l),
(278,0,l),
(392,0,l),
(392,368,l),
(675,800,l),
(546,800,l),
(316,449,l),
(361,449,l),
(131,800,l)
);
}
);
width = 670;
},
{
anchors = (
{
name = bottom;
pos = (378,0);
},
{
name = center;
pos = (378,270);
},
{
name = top;
pos = (378,800);
},
{
name = topleft;
pos = (20,800);
}
);
background = {
shapes = (
{
pos = (-27,0);
ref = V;
}
);
};
layerId = m002;
shapes = (
{
closed = 1;
nodes = (
(-4,800,l),
(284,316,l),
(284,0,l),
(472,0,l),
(472,316,l),
(760,800,l),
(562,800,l),
(353,444,l),
(414,444,l),
(206,800,l)
);
}
);
width = 756;
},
{
anchors = (
{
name = bottom;
pos = (467,0);
},
{
name = center;
pos = (467,270);
},
{
name = top;
pos = (467,800);
},
{
name = topleft;
pos = (20,800);
}
);
background = {
shapes = (
{
pos = (-47,0);
ref = V;
}
);
};
layerId = m003;
shapes = (
{
closed = 1;
nodes = (
(-5,800,l),
(410,372,l),
(410,0,l),
(524,0,l),
(524,372,l),
(939,800,l),
(792,800,l),
(445,443,l),
(501,443,l),
(154,800,l)
);
}
);
width = 934;
},
{
anchors = (
{
name = bottom;
pos = (506,0);
},
{
name = center;
pos = (505,270);
},
{
name = top;
pos = (506,800);
},
{
name = topleft;
pos = (20,800);
}
);
layerId = m004;
shapes = (
{
closed = 1;
nodes = (
(-4,800,l),
(412,313,l),
(412,0,l),
(600,0,l),
(600,313,l),
(1016,800,l),
(800,800,l),
(496,442,l),
(534,442,l),
(230,800,l)
);
}
);
width = 1012;
},
{
anchors = (
{
name = bottom;
pos = (282,0);
},
{
name = center;
pos = (282,270);
},
{
name = top;
pos = (282,800);
},
{
name = topleft;
pos = (20,800);
}
);
layerId = m005;
shapes = (
{
closed = 1;
nodes = (
(-5,800,l),
(225,354,l),
(225,0,l),
(339,0,l),
(339,354,l),
(569,800,l),
(450,800,l),
(261,434,l),
(309,434,l),
(121,800,l)
);
}
);
width = 564;
},
{
anchors = (
{
name = bottom;
pos = (319,0);
},
{
name = center;
pos = (318,270);
},
{
name = top;
pos = (319,800);
},
{
name = topleft;
pos = (20,800);
}
);
layerId = m006;
shapes = (
{
closed = 1;
nodes = (
(-3,800,l),
(225,306,l),
(225,0,l),
(413,0,l),
(413,306,l),
(641,800,l),
(453,800,l),
(312,465,l),
(339,465,l),
(198,800,l)
);
}
);
width = 638;
},
{
anchors = (
{
name = bottom;
pos = (302,0);
},
{
name = center;
pos = (302,280);
},
{
name = top;
pos = (302,800);
},
{
name = topleft;
pos = (20,800);
}
);
layerId = m007;
shapes = (
{
closed = 1;
nodes = (
(-5,800,l),
(281,376,l),
(281,0,l),
(323,0,l),
(323,376,l),
(609,800,l),
(561,800,l),
(284,389,l),
(324,389,l),
(47,800,l)
);
}
);
width = 604;
},
{
anchors = (
{
name = bottom;
pos = (431,0);
},
{
name = center;
pos = (431,270);
},
{
name = top;
pos = (431,800);
},
{
name = topleft;
pos = (20,800);
}
);
background = {
shapes = (
{
pos = (1,0);
ref = H;
}
);
};
layerId = m008;
shapes = (
{
closed = 1;
nodes = (
(-2,800,l),
(263,276,l),
(263,0,l),
(599,0,l),
(599,276,l),
(864,800,l),
(532,800,l),
(357,383,l),
(538,383,l),
(363,800,l)
);
}
);
width = 862;
},
{
anchors = (
{
name = bottom;
pos = (254,0);
},
{
name = center;
pos = (254,280);
},
{
name = top;
pos = (254,800);
},
{
name = topleft;
pos = (20,800);
}
);
layerId = m009;
shapes = (
{
closed = 1;
nodes = (
(-5,800,l),
(233,376,l),
(233,0,l),
(275,0,l),
(275,376,l),
(513,800,l),
(467,800,l),
(239,394,l),
(272,394,l),
(44,800,l)
);
}
);
width = 508;
},
{
anchors = (
{
name = bottom;
pos = (421,0);
},
{
name = center;
pos = (421,280);
},
{
name = top;
pos = (421,800);
},
{
name = topleft;
pos = (20,800);
}
);
layerId = m010;
shapes = (
{
closed = 1;
nodes = (
(-6,800,l),
(400,376,l),
(400,0,l),
(442,0,l),
(442,376,l),
(848,800,l),
(795,800,l),
(405,392,l),
(440,392,l),
(51,800,l)
);
}
);
width = 842;
},
{
anchors = (
{
name = bottom;
pos = (606,0);
},
{
name = center;
pos = (606,230);
},
{
name = top;
pos = (606,800);
},
{
name = topleft;
pos = (20,800);
}
);
layerId = "434FAEF3-677A-47AD-84F7-3A7F762C5BD0";
shapes = (
{
closed = 1;
nodes = (
(-2,800,l),
(396,246,l),
(396,0,l),
(816,0,l),
(816,246,l),
(1214,800,l),
(773,800,l),
(493,353,l),
(773,353,l),
(495,800,l)
);
}
);
width = 1212;
},
{
anchors = (
{
name = bottom;
pos = (359,0);
},
{
name = center;
pos = (359,230);
},
{
name = top;
pos = (359,800);
},
{
name = topleft;
pos = (20,800);
}
);
layerId = "C0ED73B8-BF3D-4D9D-8EF3-572E464554C2";
shapes = (
{
closed = 1;
nodes = (
(-2,800,l),
(215,236,l),
(215,0,l),
(503,0,l),
(503,236,l),
(720,800,l),
(439,800,l),
(307,343,l),
(432,343,l),
(302,800,l)
);
}
);
width = 718;
}
);
metricLeft = "=TNGU*-1";
metricRight = "=TNGU*-1";
unicode = 89;
},
{
glyphname = Z;
kernLeft = Z_LEFT;
kernRight = Z_RIGHT;
lastChange = "2022-10-11 19:21:41 +0000";
layers = (
{
anchors = (
{
name = bottom;
pos = (366,0);
},
{
name = center;
pos = (366,400);
},
{
name = top;
pos = (366,800);
}
);
background = {
shapes = (
{
pos = (-60,0);
ref = H;
}
);
};
layerId = m01;
metricLeft = "=76";
metricRight = "=56";
shapes = (
{
closed = 1;
nodes = (
(634,0,l),
(634,108,l),
(88,108,l),
(102,73,l),
(636,599,l),
(636,800,l),
(76,800,l),
(76,692,l),
(626,692,l),
(612,727,l),
(78,201,l),
(78,0,l)
);
}
);
width = 692;
},
{
anchors = (
{
name = bottom;
pos = (382,0);
},
{
name = center;
pos = (382,400);
},
{
name = top;
pos = (382,800);
}
);
background = {
shapes = (
{
pos = (-34,0);
ref = H;
}
);
};
layerId = m002;
metricLeft = "=72";
metricRight = "=60";
shapes = (
{
closed = 1;
nodes = (
(682,0,l),
(682,176,l),
(107,176,l),
(107,101,l),
(684,505,l),
(684,800,l),
(72,800,l),
(72,624,l),
(651,624,l),
(651,699,l),
(74,295,l),
(74,0,l)
);
}
);
width = 744;
},
{
anchors = (
{
name = bottom;
pos = (466,0);
},
{
name = center;
pos = (466,400);
},
{
name = top;
pos = (466,800);
}
);
background = {
shapes = (
{
pos = (-70,0);
ref = H;
}
);
};
layerId = m003;
metricLeft = "=76";
metricRight = "=56";
shapes = (
{
closed = 1;
nodes = (
(854,0,l),
(854,100,l),
(85,100,l),
(94,71,l),
(856,613,l),
(856,800,l),
(76,800,l),
(76,700,l),
(849,700,l),
(840,729,l),
(78,187,l),
(78,0,l)
);
}
);
width = 912;
},
{
anchors = (
{
name = bottom;
pos = (518,0);
},
{
name = center;
pos = (518,400);
},
{
name = top;
pos = (518,800);
}
);
background = {
shapes = (
{
pos = (-35,0);
ref = H;
}
);
};
layerId = m004;
metricLeft = "=84";
metricRight = "=72";
shapes = (
{
closed = 1;
nodes = (
(934,0,l),
(934,164,l),
(88,164,l),
(88,124,l),
(936,494,l),
(936,800,l),
(84,800,l),
(84,636,l),
(934,636,l),
(934,676,l),
(86,306,l),
(86,0,l)
);
}
);
width = 1008;
},
{
anchors = (
{
name = bottom;
pos = (308,0);
},
{
name = center;
pos = (308,400);
},
{
name = top;
pos = (308,800);
}
);
background = {
shapes = (
{
pos = (-61,0);
ref = H;
}
);
};
layerId = m005;
metricLeft = "=60";
metricRight = "=44";
shapes = (
{
closed = 1;
nodes = (
(530,0,l),
(530,106,l),
(85,106,l),
(103,67,l),
(532,614,l),
(532,800,l),
(60,800,l),
(60,694,l),
(509,694,l),
(491,733,l),
(62,186,l),
(62,0,l)
);
}
);
width = 576;
},
{
anchors = (
{
name = bottom;
pos = (333,0);
},
{
name = center;
pos = (333,400);
},
{
name = top;
pos = (333,800);
}
);
background = {
shapes = (
{
pos = (-28,0);
ref = H;
}
);
};
layerId = m006;
metricLeft = "=62";
metricRight = "=50";
shapes = (
{
closed = 1;
nodes = (
(582,0,l),
(582,170,l),
(105,170,l),
(127,78,l),
(584,546,l),
(584,800,l),
(62,800,l),
(62,630,l),
(543,630,l),
(521,722,l),
(64,254,l),
(64,0,l)
);
}
);
width = 634;
},
{
anchors = (
{
name = bottom;
pos = (322,0);
},
{
name = center;
pos = (322,400);
},
{
name = top;
pos = (322,800);
}
);
background = {
shapes = (
{
pos = (-78,0);
ref = H;
}
);
};
layerId = m007;
metricLeft = "=56";
metricRight = "=44";
shapes = (
{
closed = 1;
nodes = (
(558,0,l),
(558,38,l),
(61,38,l),
(69,23,l),
(560,721,l),
(560,800,l),
(56,800,l),
(56,762,l),
(557,762,l),
(549,777,l),
(58,79,l),
(58,0,l)
);
}
);
width = 604;
},
{
anchors = (
{
name = bottom;
pos = (394,0);
},
{
name = center;
pos = (394,400);
},
{
name = top;
pos = (394,800);
}
);
background = {
shapes = (
{
pos = (-46,0);
ref = H;
}
);
};
layerId = m008;
metricLeft = "=32";
metricRight = "=28";
shapes = (
{
closed = 1;
nodes = (
(740,0,l),
(740,260,l),
(177,260,l),
(177,206,l),
(740,396,l),
(740,800,l),
(32,800,l),
(32,540,l),
(595,540,l),
(595,594,l),
(32,404,l),
(32,0,l)
);
}
);
width = 768;
},
{
anchors = (
{
name = bottom;
pos = (267,0);
},
{
name = center;
pos = (267,400);
},
{
name = top;
pos = (267,800);
}
);
background = {
shapes = (
{
pos = (-68,0);
ref = H;
}
);
};
layerId = m009;
metricLeft = "=50";
metricRight = "=38";
shapes = (
{
closed = 1;
nodes = (
(474,0,l),
(474,38,l),
(56,38,l),
(65,22,l),
(476,720,l),
(476,800,l),
(50,800,l),
(50,762,l),
(472,762,l),
(463,778,l),
(52,80,l),
(52,0,l)
);
}
);
width = 514;
},
{
anchors = (
{
name = bottom;
pos = (416,0);
},
{
name = center;
pos = (416,400);
},
{
name = top;
pos = (416,800);
}
);
background = {
shapes = (
{
pos = (-106,0);
ref = H;
}
);
};
layerId = m010;
metricLeft = "=60";
metricRight = "=48";
shapes = (
{
closed = 1;
nodes = (
(762,0,l),
(762,38,l),
(66,38,l),
(66,25,l),
(764,721,l),
(764,800,l),
(60,800,l),
(60,762,l),
(760,762,l),
(760,775,l),
(62,79,l),
(62,0,l)
);
}
);
width = 812;
},
{
anchors = (
{
name = bottom;
pos = (540,0);
},
{
name = center;
pos = (540,400);
},
{
name = top;
pos = (540,800);
}
);
background = {
shapes = (
{
pos = (-63,0);
ref = H;
}
);
};
layerId = "434FAEF3-677A-47AD-84F7-3A7F762C5BD0";
metricLeft = "=32";
metricRight = "=28";
shapes = (
{
closed = 1;
nodes = (
(1026,0,l),
(1026,250,l),
(210,250,l),
(213,215,l),
(1026,376,l),
(1026,800,l),
(32,800,l),
(32,550,l),
(848,550,l),
(845,585,l),
(32,424,l),
(32,0,l)
);
}
);
width = 1054;
},
{
anchors = (
{
name = bottom;
pos = (335,0);
},
{
name = center;
pos = (335,400);
},
{
name = top;
pos = (335,800);
}
);
background = {
shapes = (
{
pos = (-39,0);
ref = H;
}
);
};
layerId = "C0ED73B8-BF3D-4D9D-8EF3-572E464554C2";
metricLeft = "=32";
metricRight = "=28";
shapes = (
{
closed = 1;
nodes = (
(622,0,l),
(622,250,l),
(95,250,l),
(101,197,l),
(622,363,l),
(622,800,l),
(32,800,l),
(32,550,l),
(559,550,l),
(553,603,l),
(32,437,l),
(32,0,l)
);
}
);
width = 650;
}
);
unicode = 90;
},
{
glyphname = Saltillo;
lastChange = "2022-09-23 17:39:13 +0000";
layers = (
{
layerId = m009;
shapes = (
{
closed = 1;
nodes = (
(72,420,l),
(84,630,l),
(84,800,l),
(48,800,l),
(48,420,l)
);
}
);
width = 118;
},
{
layerId = m007;
shapes = (
{
closed = 1;
nodes = (
(77,420,l),
(89,630,l),
(89,800,l),
(53,800,l),
(53,420,l)
);
}
);
width = 127;
},
{
layerId = m010;
shapes = (
{
closed = 1;
nodes = (
(83,420,l),
(95,630,l),
(95,800,l),
(59,800,l),
(59,420,l)
);
}
);
width = 137;
},
{
layerId = m005;
shapes = (
{
closed = 1;
nodes = (
(128,400,l),
(148,620,l),
(148,800,l),
(48,800,l),
(48,400,l)
);
}
);
width = 182;
},
{
layerId = m01;
shapes = (
{
closed = 1;
nodes = (
(133,400,l),
(153,620,l),
(153,800,l),
(53,800,l),
(53,400,l)
);
}
);
width = 191;
},
{
layerId = m003;
shapes = (
{
closed = 1;
nodes = (
(133,400,l),
(153,620,l),
(153,800,l),
(53,800,l),
(53,400,l)
);
}
);
width = 191;
},
{
layerId = m006;
shapes = (
{
closed = 1;
nodes = (
(161,380,l),
(191,610,l),
(191,800,l),
(31,800,l),
(31,380,l)
);
}
);
width = 213;
},
{
layerId = m002;
shapes = (
{
closed = 1;
nodes = (
(167,380,l),
(197,610,l),
(197,800,l),
(37,800,l),
(37,380,l)
);
}
);
width = 223;
},
{
layerId = m004;
shapes = (
{
closed = 1;
nodes = (
(172,380,l),
(202,610,l),
(202,800,l),
(42,800,l),
(42,380,l)
);
}
);
width = 232;
},
{
layerId = "C0ED73B8-BF3D-4D9D-8EF3-572E464554C2";
shapes = (
{
closed = 1;
nodes = (
(188,360,l),
(218,600,l),
(218,800,l),
(18,800,l),
(18,360,l)
);
}
);
width = 231;
},
{
layerId = m008;
shapes = (
{
closed = 1;
nodes = (
(218,360,l),
(258,600,l),
(258,800,l),
(18,800,l),
(18,360,l)
);
}
);
width = 271;
},
{
layerId = "434FAEF3-677A-47AD-84F7-3A7F762C5BD0";
shapes = (
{
closed = 1;
nodes = (
(258,360,l),
(318,600,l),
(318,800,l),
(18,800,l),
(18,360,l)
);
}
);
width = 331;
}
);
metricLeft = RND;
metricRight = "=RND/1.4";
unicode = 42891;
},
{
export = 0;
glyphname = Ldot.002;
lastChange = "2022-10-02 05:42:54 +0000";
layers = (
{
layerId = m009;
shapes = (
{
closed = 1;
nodes = (
(495,0,l),
(495,38,l),
(137,38,l),
(137,800,l),
(95,800,l),
(95,0,l)
);
},
{
closed = 1;
nodes = (
(342,344,o),
(356,365,o),
(356,400,cs),
(356,435,o),
(342,456,o),
(318,456,cs),
(294,456,o),
(280,435,o),
(280,400,cs),
(280,365,o),
(294,344,o),
(318,344,cs)
);
}
);
width = 500;
},
{
layerId = m007;
shapes = (
{
closed = 1;
nodes = (
(576,0,l),
(576,38,l),
(148,38,l),
(148,800,l),
(106,800,l),
(106,0,l)
);
},
{
closed = 1;
nodes = (
(401,352,o),
(419,371,o),
(419,400,cs),
(419,429,o),
(401,448,o),
(375,448,cs),
(349,448,o),
(331,429,o),
(331,400,cs),
(331,371,o),
(349,352,o),
(375,352,cs)
);
}
);
width = 581;
},
{
layerId = m010;
shapes = (
{
closed = 1;
nodes = (
(811,0,l),
(811,38,l),
(159,38,l),
(159,800,l),
(117,800,l),
(117,0,l)
);
},
{
closed = 1;
nodes = (
(507,358,o),
(527,374,o),
(527,400,cs),
(527,426,o),
(507,442,o),
(473,442,cs),
(439,442,o),
(419,426,o),
(419,400,cs),
(419,374,o),
(439,358,o),
(473,358,cs)
);
}
);
width = 817;
},
{
layerId = m005;
shapes = (
{
closed = 1;
nodes = (
(525,0,l),
(525,106,l),
(209,106,l),
(209,800,l),
(95,800,l),
(95,0,l)
);
},
{
closed = 1;
nodes = (
(413,316,o),
(443,350,o),
(443,400,cs),
(443,450,o),
(413,484,o),
(369,484,cs),
(325,484,o),
(295,450,o),
(295,400,cs),
(295,350,o),
(325,316,o),
(369,316,cs)
);
}
);
width = 530;
},
{
layerId = m01;
shapes = (
{
closed = 1;
nodes = (
(625,0,l),
(625,108,l),
(220,108,l),
(220,800,l),
(106,800,l),
(106,0,l)
);
},
{
closed = 1;
nodes = (
(469,322,o),
(503,354,o),
(503,400,cs),
(503,446,o),
(469,478,o),
(419,478,cs),
(369,478,o),
(335,446,o),
(335,400,cs),
(335,354,o),
(369,322,o),
(419,322,cs)
);
}
);
width = 630;
},
{
layerId = m003;
shapes = (
{
closed = 1;
nodes = (
(856,0,l),
(856,100,l),
(220,100,l),
(220,800,l),
(106,800,l),
(106,0,l)
);
},
{
closed = 1;
nodes = (
(574,326,o),
(611,356,o),
(611,400,cs),
(611,444,o),
(574,474,o),
(521,474,cs),
(468,474,o),
(431,444,o),
(431,400,cs),
(431,356,o),
(468,326,o),
(521,326,cs)
);
}
);
width = 861;
},
{
layerId = m006;
shapes = (
{
closed = 1;
nodes = (
(546,0,l),
(546,176,l),
(250,176,l),
(250,800,l),
(62,800,l),
(62,0,l)
);
},
{
closed = 1;
nodes = (
(472,276,o),
(511,322,o),
(511,400,cs),
(511,478,o),
(472,524,o),
(405,524,cs),
(338,524,o),
(299,478,o),
(299,400,cs),
(299,322,o),
(338,276,o),
(405,276,cs)
);
}
);
width = 549;
},
{
layerId = m002;
shapes = (
{
closed = 1;
nodes = (
(653,0,l),
(653,180,l),
(261,180,l),
(261,800,l),
(73,800,l),
(73,0,l)
);
},
{
closed = 1;
nodes = (
(540,290,o),
(589,335,o),
(589,400,cs),
(589,465,o),
(540,510,o),
(469,510,cs),
(398,510,o),
(349,465,o),
(349,400,cs),
(349,335,o),
(398,290,o),
(469,290,cs)
);
}
);
width = 657;
},
{
layerId = m004;
shapes = (
{
closed = 1;
nodes = (
(894,0,l),
(894,164,l),
(272,164,l),
(272,800,l),
(84,800,l),
(84,0,l)
);
},
{
closed = 1;
nodes = (
(667,294,o),
(719,333,o),
(719,400,cs),
(719,467,o),
(667,506,o),
(579,506,cs),
(491,506,o),
(439,467,o),
(439,400,cs),
(439,333,o),
(491,294,o),
(579,294,cs)
);
}
);
width = 898;
},
{
layerId = "C0ED73B8-BF3D-4D9D-8EF3-572E464554C2";
shapes = (
{
closed = 1;
nodes = (
(585,0,l),
(585,260,l),
(323,260,l),
(323,800,l),
(35,800,l),
(35,0,l)
);
},
{
closed = 1;
nodes = (
(526,304,o),
(562,365,o),
(562,475,cs),
(562,586,o),
(526,647,o),
(463,647,cs),
(400,647,o),
(365,586,o),
(365,475,cs),
(365,365,o),
(400,304,o),
(463,304,cs)
);
}
);
width = 587;
},
{
layerId = m008;
shapes = (
{
closed = 1;
nodes = (
(685,0,l),
(685,278,l),
(371,278,l),
(371,800,l),
(35,800,l),
(35,0,l)
);
},
{
closed = 1;
nodes = (
(623,331,o),
(668,385,o),
(668,490,cs),
(668,596,o),
(623,650,o),
(536,650,cs),
(449,650,o),
(405,596,o),
(405,490,cs),
(405,385,o),
(449,331,o),
(536,331,cs)
);
}
);
width = 687;
},
{
layerId = "434FAEF3-677A-47AD-84F7-3A7F762C5BD0";
shapes = (
{
closed = 1;
nodes = (
(975,0,l),
(975,280,l),
(455,280,l),
(455,800,l),
(35,800,l),
(35,0,l)
);
},
{
closed = 1;
nodes = (
(875,337,o),
(953,382,o),
(953,470,cs),
(953,558,o),
(875,603,o),
(723,603,cs),
(571,603,o),
(493,558,o),
(493,470,cs),
(493,382,o),
(571,337,o),
(723,337,cs)
);
}
);
width = 977;
}
);
},
{
glyphname = a;
kernLeft = a_left;
kernRight = n_right;
lastChange = "2022-09-27 19:14:43 +0000";
layers = (
{
anchors = (
{
name = bottom;
pos = (326,0);
},
{
name = ogonek;
pos = (565,10);
},
{
name = top;
pos = (326,600);
}
);
background = {
shapes = (
{
angle = 180;
pos = (661,600);
ref = n;
}
);
};
layerId = m01;
shapes = (
{
closed = 1;
nodes = (
(348,-14,o),
(409,14,o),
(443,64,c),
(457,64,l),
(457,0,l),
(565,0,l),
(565,390,ls),
(565,534,o),
(478,616,o),
(321,616,cs),
(156,616,o),
(57,528,o),
(41,380,c),
(147,380,l),
(167,464,o),
(223,512,o),
(319,512,cs),
(409,512,o),
(457,461,o),
(457,370,cs),
(457,231,ls),
(457,150,o),
(384,87,o),
(291,87,cs),
(234,87,o),
(195,117,o),
(195,161,cs),
(195,204,o),
(221,231,o),
(275,239,cs),
(467,269,l),
(467,366,l),
(259,334,ls),
(143,316,o),
(77,254,o),
(77,156,cs),
(77,49,o),
(149,-14,o),
(270,-14,cs)
);
}
);
width = 651;
},
{
anchors = (
{
name = bottom;
pos = (348,0);
},
{
name = ogonek;
pos = (626,10);
},
{
name = top;
pos = (348,620);
}
);
background = {
shapes = (
{
angle = 180;
pos = (692,620);
ref = n;
}
);
};
layerId = m002;
shapes = (
{
closed = 1;
nodes = (
(344,-16,o),
(403,13,o),
(432,70,c),
(452,70,l),
(452,0,l),
(626,0,l),
(626,390,ls),
(626,547,o),
(521,640,o),
(344,640,cs),
(161,640,o),
(48,543,o),
(28,380,c),
(198,380,l),
(220,450,o),
(268,486,o),
(342,486,cs),
(414,486,o),
(452,447,o),
(452,370,cs),
(452,242,ls),
(452,178,o),
(390,130,o),
(314,130,cs),
(266,130,o),
(242,148,o),
(242,182,cs),
(242,211,o),
(262,230,o),
(296,236,cs),
(462,263,l),
(462,389,l),
(274,360,ls),
(128,337,o),
(60,274,o),
(60,159,cs),
(60,57,o),
(142,-16,o),
(255,-16,cs)
);
}
);
width = 685;
},
{
anchors = (
{
name = bottom;
pos = (432,0);
},
{
name = ogonek;
pos = (772,10);
},
{
name = top;
pos = (432,600);
}
);
background = {
shapes = (
{
angle = 180;
pos = (868,600);
ref = n;
}
);
};
layerId = m003;
shapes = (
{
closed = 1;
nodes = (
(491,-14,o),
(601,20,o),
(644,76,c),
(664,76,l),
(664,0,l),
(772,0,l),
(772,370,ls),
(772,532,o),
(654,616,o),
(424,616,cs),
(193,616,o),
(63,536,o),
(41,380,c),
(149,380,l),
(179,475,o),
(266,520,o),
(424,520,cs),
(587,520,o),
(664,466,o),
(664,350,cs),
(664,248,ls),
(664,147,o),
(548,80,o),
(375,80,cs),
(267,80,o),
(200,111,o),
(200,162,cs),
(200,213,o),
(238,238,o),
(328,244,cs),
(674,268,l),
(674,360,l),
(308,334,ls),
(159,323,o),
(82,266,o),
(82,164,cs),
(82,46,o),
(168,-14,o),
(355,-14,cs)
);
}
);
width = 858;
},
{
anchors = (
{
name = bottom;
pos = (464,0);
},
{
name = ogonek;
pos = (844,10);
},
{
name = top;
pos = (464,620);
}
);
background = {
shapes = (
{
angle = 180;
pos = (920,620);
ref = n;
}
);
};
layerId = m004;
shapes = (
{
closed = 1;
nodes = (
(494,-16,o),
(605,20,o),
(640,80,c),
(670,80,l),
(670,0,l),
(844,0,l),
(844,370,ls),
(844,549,o),
(716,640,o),
(463,640,cs),
(192,640,o),
(46,552,o),
(32,380,c),
(210,380,l),
(229,456,o),
(310,492,o),
(463,492,cs),
(600,492,o),
(670,447,o),
(670,360,cs),
(670,240,ls),
(670,174,o),
(547,122,o),
(394,122,cs),
(296,122,o),
(250,140,o),
(250,179,cs),
(250,214,o),
(275,233,o),
(324,236,cs),
(680,261,l),
(680,384,l),
(322,360,ls),
(147,348,o),
(64,288,o),
(64,172,cs),
(64,48,o),
(160,-16,o),
(347,-16,cs)
);
}
);
width = 912;
},
{
anchors = (
{
name = bottom;
pos = (278,0);
},
{
name = ogonek;
pos = (481,10);
},
{
name = top;
pos = (278,600);
}
);
background = {
shapes = (
{
angle = 180;
pos = (557,600);
ref = n;
}
);
};
layerId = m005;
shapes = (
{
closed = 1;
nodes = (
(290,-14,o),
(339,11,o),
(360,54,c),
(374,54,l),
(374,0,l),
(481,0,l),
(481,410,ls),
(481,542,o),
(407,616,o),
(273,616,cs),
(134,616,o),
(47,532,o),
(37,380,c),
(139,380,l),
(153,469,o),
(201,514,o),
(273,514,cs),
(336,514,o),
(374,472,o),
(374,400,cs),
(374,210,ls),
(374,142,o),
(322,88,o),
(254,88,cs),
(201,88,o),
(174,112,o),
(174,159,cs),
(174,199,o),
(203,232,o),
(247,240,cs),
(384,266,l),
(384,364,l),
(232,336,ls),
(121,316,o),
(59,250,o),
(59,153,cs),
(59,54,o),
(120,-14,o),
(228,-14,cs)
);
}
);
width = 558;
},
{
anchors = (
{
name = bottom;
pos = (294,0);
},
{
name = ogonek;
pos = (528,10);
},
{
name = top;
pos = (294,620);
}
);
background = {
shapes = (
{
angle = 180;
pos = (584,620);
ref = n;
}
);
};
layerId = m006;
shapes = (
{
closed = 1;
nodes = (
(275,-14,o),
(314,11,o),
(334,60,c),
(354,60,l),
(354,0,l),
(528,0,l),
(528,420,ls),
(528,558,o),
(439,640,o),
(288,640,cs),
(132,640,o),
(32,541,o),
(24,380,c),
(192,380,l),
(202,448,o),
(236,486,o),
(286,486,cs),
(329,486,o),
(354,454,o),
(354,400,cs),
(354,214,ls),
(354,170,o),
(315,136,o),
(272,136,cs),
(242,136,o),
(222,154,o),
(222,180,cs),
(222,206,o),
(240,227,o),
(266,232,cs),
(364,252,l),
(364,380,l),
(228,354,ls),
(107,331,o),
(44,267,o),
(44,159,cs),
(44,62,o),
(115,-14,o),
(206,-14,cs)
);
}
);
width = 578;
},
{
anchors = (
{
name = bottom;
pos = (308,0);
},
{
name = ogonek;
pos = (517,10);
},
{
name = top;
pos = (308,588);
}
);
background = {
shapes = (
{
angle = 180;
pos = (613,588);
ref = n;
}
);
};
layerId = m007;
shapes = (
{
closed = 1;
nodes = (
(355,-12,o),
(436,27,o),
(468,90,c),
(478,90,l),
(478,0,l),
(517,0,l),
(517,386,ls),
(517,519,o),
(431,600,o),
(292,600,cs),
(150,600,o),
(53,512,o),
(41,380,c),
(80,380,l),
(93,490,o),
(174,564,o),
(292,564,cs),
(407,564,o),
(478,494,o),
(478,380,cs),
(478,228,ls),
(478,102,o),
(395,24,o),
(262,24,cs),
(172,24,o),
(112,72,o),
(112,143,cs),
(112,211,o),
(159,256,o),
(243,269,cs),
(488,307,l),
(488,346,l),
(228,305,ls),
(128,289,o),
(71,231,o),
(71,143,cs),
(71,50,o),
(146,-12,o),
(258,-12,cs)
);
}
);
width = 603;
},
{
anchors = (
{
name = bottom;
pos = (376,0);
},
{
name = ogonek;
pos = (698,10);
},
{
name = top;
pos = (376,640);
}
);
background = {
shapes = (
{
angle = 180;
pos = (730,640);
ref = n;
}
);
};
layerId = m008;
shapes = (
{
closed = 1;
nodes = (
(287,-14,o),
(350,25,o),
(374,100,c),
(394,100,l),
(394,0,l),
(698,0,l),
(698,390,ls),
(698,567,o),
(579,666,o),
(368,666,cs),
(156,666,o),
(28,561,o),
(14,374,c),
(308,374,l),
(314,414,o),
(331,434,o),
(358,434,cs),
(382,434,o),
(394,417,o),
(394,384,cs),
(394,230,ls),
(394,198,o),
(383,180,o),
(364,180,cs),
(345,180,o),
(335,194,o),
(335,219,cs),
(335,248,o),
(349,266,o),
(375,271,cs),
(398,275,l),
(398,363,l),
(212,336,ls),
(87,318,o),
(22,254,o),
(22,148,cs),
(22,54,o),
(93,-14,o),
(190,-14,cs)
);
}
);
width = 727;
},
{
anchors = (
{
name = bottom;
pos = (258,0);
},
{
name = ogonek;
pos = (439,10);
},
{
name = top;
pos = (258,588);
}
);
background = {
shapes = (
{
angle = 180;
pos = (525,588);
ref = n;
}
);
};
layerId = m009;
shapes = (
{
closed = 1;
nodes = (
(298,-12,o),
(362,21,o),
(390,74,c),
(400,74,l),
(400,0,l),
(439,0,l),
(439,406,ls),
(439,530,o),
(372,600,o),
(254,600,cs),
(129,600,o),
(47,516,o),
(37,380,c),
(75,380,l),
(85,494,o),
(153,564,o),
(254,564,cs),
(347,564,o),
(400,505,o),
(400,400,cs),
(400,206,ls),
(400,93,o),
(332,24,o),
(224,24,cs),
(148,24,o),
(97,71,o),
(97,141,cs),
(97,203,o),
(140,250,o),
(209,264,cs),
(410,305,l),
(410,344,l),
(194,300,ls),
(109,283,o),
(57,222,o),
(57,141,cs),
(57,49,o),
(123,-12,o),
(223,-12,cs)
);
}
);
width = 516;
},
{
anchors = (
{
name = bottom;
pos = (402,0);
},
{
name = ogonek;
pos = (709,10);
},
{
name = top;
pos = (402,588);
}
);
background = {
shapes = (
{
angle = 180;
pos = (815,588);
ref = n;
}
);
};
layerId = m010;
shapes = (
{
closed = 1;
nodes = (
(484,-12,o),
(601,33,o),
(654,114,c),
(670,114,l),
(670,0,l),
(709,0,l),
(709,366,ls),
(709,516,o),
(596,600,o),
(394,600,cs),
(191,600,o),
(65,521,o),
(45,380,c),
(85,380,l),
(103,498,o),
(214,564,o),
(394,564,cs),
(570,564,o),
(670,491,o),
(670,360,cs),
(670,250,ls),
(670,114,o),
(536,24,o),
(336,24,cs),
(189,24,o),
(113,70,o),
(113,159,cs),
(113,223,o),
(168,266,o),
(259,272,cs),
(680,302,l),
(680,340,l),
(255,310,ls),
(142,302,o),
(73,244,o),
(73,157,cs),
(73,45,o),
(161,-12,o),
(332,-12,cs)
);
}
);
width = 804;
},
{
anchors = (
{
name = bottom;
pos = (326,0);
},
{
name = ogonek;
pos = (590,10);
},
{
name = top;
pos = (326,640);
}
);
background = {
shapes = (
{
angle = 180;
pos = (622,640);
ref = n;
}
);
};
layerId = "C0ED73B8-BF3D-4D9D-8EF3-572E464554C2";
shapes = (
{
closed = 1;
nodes = (
(248,-12,o),
(300,23,o),
(314,80,c),
(334,80,l),
(334,0,l),
(590,0,l),
(590,410,ls),
(590,574,o),
(494,666,o),
(324,666,cs),
(139,666,o),
(28,562,o),
(14,378,c),
(272,378,l),
(278,425,o),
(287,440,o),
(308,440,cs),
(328,440,o),
(334,428,o),
(334,390,cs),
(334,218,ls),
(334,186,o),
(327,170,o),
(312,170,cs),
(297,170,o),
(289,184,o),
(289,210,cs),
(289,240,o),
(300,259,o),
(320,263,cs),
(338,267,l),
(338,366,l),
(188,339,ls),
(80,320,o),
(20,252,o),
(20,150,cs),
(20,56,o),
(86,-12,o),
(176,-12,cs)
);
}
);
width = 619;
},
{
anchors = (
{
name = bottom;
pos = (520,0);
},
{
name = ogonek;
pos = (964,10);
},
{
name = top;
pos = (520,640);
}
);
background = {
shapes = (
{
angle = 180;
pos = (996,640);
ref = n;
}
);
};
layerId = "434FAEF3-677A-47AD-84F7-3A7F762C5BD0";
shapes = (
{
closed = 1;
nodes = (
(416,-16,o),
(505,19,o),
(538,80,c),
(578,80,l),
(578,0,l),
(964,0,l),
(964,390,ls),
(964,572,o),
(809,666,o),
(508,666,cs),
(198,666,o),
(30,565,o),
(14,370,c),
(402,370,l),
(410,411,o),
(442,430,o),
(502,430,cs),
(554,430,o),
(578,411,o),
(578,370,cs),
(578,223,ls),
(578,194,o),
(541,172,o),
(494,172,cs),
(456,172,o),
(435,184,o),
(435,205,cs),
(435,227,o),
(452,240,o),
(481,242,cs),
(582,249,l),
(582,358,l),
(278,337,ls),
(111,325,o),
(32,269,o),
(32,160,cs),
(32,47,o),
(126,-16,o),
(292,-16,cs)
);
}
);
width = 993;
}
);
metricLeft = "=RND/1.3";
metricRight = n;
unicode = 97;
},
{
glyphname = c;
kernLeft = rnd_left;
kernRight = rnd_right;
lastChange = "2022-04-08 18:51:37 +0000";
layers = (
{
anchors = (
{
name = bottom;
pos = (356,0);
},
{
name = currencystroke;
pos = (348,300);
},
{
name = top;
pos = (356,600);
}
);
background = {
shapes = (
{
ref = o;
}
);
};
layerId = m01;
shapes = (
{
closed = 1;
nodes = (
(503,-16,o),
(615,76,o),
(623,214,c),
(522,214,l),
(502,136,o),
(438,88,o),
(348,88,cs),
(233,88,o),
(163,167,o),
(163,297,cs),
(163,430,o),
(237,512,o),
(358,512,cs),
(456,512,o),
(524,457,o),
(542,368,c),
(643,368,l),
(637,517,o),
(523,616,o),
(362,616,cs),
(177,616,o),
(53,488,o),
(53,297,cs),
(53,109,o),
(171,-16,o),
(348,-16,cs)
);
}
);
width = 676;
},
{
anchors = (
{
name = bottom;
pos = (360,0);
},
{
name = currencystroke;
pos = (355,310);
},
{
name = top;
pos = (360,620);
}
);
background = {
shapes = (
{
ref = o;
}
);
};
layerId = m002;
shapes = (
{
closed = 1;
nodes = (
(518,-20,o),
(635,83,o),
(649,238,c),
(483,238,l),
(465,177,o),
(419,140,o),
(357,140,cs),
(266,140,o),
(211,203,o),
(211,307,cs),
(211,414,o),
(268,480,o),
(361,480,cs),
(434,480,o),
(485,434,o),
(501,360,c),
(665,360,l),
(659,528,o),
(537,640,o),
(361,640,cs),
(167,640,o),
(37,507,o),
(37,307,cs),
(37,111,o),
(165,-20,o),
(357,-20,cs)
);
}
);
width = 688;
},
{
anchors = (
{
name = bottom;
pos = (470,0);
},
{
name = currencystroke;
pos = (464,300);
},
{
name = top;
pos = (470,600);
}
);
background = {
shapes = (
{
ref = o;
}
);
};
layerId = m003;
shapes = (
{
closed = 1;
nodes = (
(689,-16,o),
(828,67,o),
(849,214,c),
(744,214,l),
(713,128,o),
(613,80,o),
(462,80,cs),
(272,80,o),
(165,158,o),
(165,297,cs),
(165,440,o),
(275,520,o),
(470,520,cs),
(632,520,o),
(737,465,o),
(765,368,c),
(869,368,l),
(854,527,o),
(710,616,o),
(470,616,cs),
(211,616,o),
(53,495,o),
(53,297,cs),
(53,103,o),
(208,-16,o),
(462,-16,cs)
);
}
);
width = 902;
},
{
anchors = (
{
name = bottom;
pos = (478,0);
},
{
name = currencystroke;
pos = (474,310);
},
{
name = top;
pos = (478,620);
}
);
background = {
shapes = (
{
ref = o;
}
);
};
layerId = m004;
shapes = (
{
closed = 1;
nodes = (
(713,-20,o),
(857,73,o),
(874,238,c),
(694,238,l),
(672,168,o),
(600,132,o),
(474,132,cs),
(310,132,o),
(226,192,o),
(226,307,cs),
(226,426,o),
(310,488,o),
(474,488,cs),
(615,488,o),
(693,444,o),
(712,360,c),
(890,360,l),
(876,539,o),
(727,640,o),
(476,640,cs),
(198,640,o),
(42,520,o),
(42,307,cs),
(42,98,o),
(198,-20,o),
(474,-20,cs)
);
}
);
width = 916;
},
{
anchors = (
{
name = bottom;
pos = (300,0);
},
{
name = currencystroke;
pos = (301,300);
},
{
name = top;
pos = (300,600);
}
);
background = {
shapes = (
{
pos = (6,0);
ref = o;
}
);
};
layerId = m005;
shapes = (
{
closed = 1;
nodes = (
(430,-16,o),
(521,71,o),
(528,214,c),
(430,214,l),
(414,132,o),
(369,86,o),
(297,86,cs),
(207,86,o),
(156,162,o),
(156,297,cs),
(156,436,o),
(210,514,o),
(305,514,cs),
(379,514,o),
(426,461,o),
(444,368,c),
(542,368,l),
(537,522,o),
(446,616,o),
(307,616,cs),
(146,616,o),
(48,495,o),
(48,297,cs),
(48,103,o),
(143,-16,o),
(297,-16,cs)
);
}
);
width = 572;
},
{
anchors = (
{
name = bottom;
pos = (306,0);
},
{
name = currencystroke;
pos = (298,310);
},
{
name = top;
pos = (306,620);
}
);
background = {
shapes = (
{
ref = o;
}
);
};
layerId = m006;
shapes = (
{
closed = 1;
nodes = (
(447,-20,o),
(538,73,o),
(551,238,c),
(397,238,l),
(381,169,o),
(351,134,o),
(299,134,cs),
(234,134,o),
(201,193,o),
(201,307,cs),
(201,425,o),
(237,486,o),
(307,486,cs),
(365,486,o),
(395,443,o),
(409,360,c),
(563,360,l),
(557,539,o),
(465,640,o),
(307,640,cs),
(130,640,o),
(31,520,o),
(31,307,cs),
(31,98,o),
(127,-20,o),
(299,-20,cs)
);
}
);
width = 582;
},
{
anchors = (
{
name = bottom;
pos = (330,0);
},
{
name = currencystroke;
pos = (323,294);
},
{
name = top;
pos = (330,588);
}
);
background = {
shapes = (
{
ref = o;
}
);
};
layerId = m007;
shapes = (
{
closed = 1;
nodes = (
(460,-12,o),
(554,69,o),
(571,202,c),
(532,202,l),
(517,92,o),
(437,24,o),
(323,24,cs),
(181,24,o),
(94,126,o),
(94,292,cs),
(94,461,o),
(184,564,o),
(331,564,cs),
(450,564,o),
(531,490,o),
(544,368,c),
(583,368,l),
(571,511,o),
(474,600,o),
(331,600,cs),
(159,600,o),
(53,483,o),
(53,292,cs),
(53,104,o),
(156,-12,o),
(323,-12,cs)
);
}
);
width = 616;
},
{
anchors = (
{
name = bottom;
pos = (388,0);
},
{
name = currencystroke;
pos = (382,320);
},
{
name = top;
pos = (388,640);
}
);
background = {
shapes = (
{
ref = o;
}
);
};
layerId = m008;
shapes = (
{
closed = 1;
nodes = (
(576,-26,o),
(712,98,o),
(720,284,c),
(426,284,l),
(422,235,o),
(409,214,o),
(382,214,cs),
(351,214,o),
(338,245,o),
(338,317,cs),
(338,393,o),
(353,426,o),
(388,426,cs),
(418,426,o),
(432,400,o),
(434,338,c),
(728,338,l),
(726,538,o),
(592,666,o),
(382,666,cs),
(164,666,o),
(18,526,o),
(18,317,cs),
(18,111,o),
(160,-26,o),
(372,-26,cs)
);
}
);
width = 739;
},
{
anchors = (
{
name = bottom;
pos = (282,0);
},
{
name = currencystroke;
pos = (282,294);
},
{
name = top;
pos = (282,588);
}
);
background = {
shapes = (
{
ref = o;
}
);
};
layerId = m009;
shapes = (
{
closed = 1;
nodes = (
(394,-12,o),
(468,65,o),
(484,202,c),
(446,202,l),
(431,88,o),
(371,24,o),
(278,24,cs),
(156,24,o),
(88,120,o),
(88,292,cs),
(88,466,o),
(159,564,o),
(284,564,cs),
(383,564,o),
(444,493,o),
(454,368,c),
(492,368,l),
(482,516,o),
(407,600,o),
(284,600,cs),
(133,600,o),
(48,489,o),
(48,292,cs),
(48,97,o),
(131,-12,o),
(278,-12,cs)
);
}
);
width = 522;
},
{
anchors = (
{
name = bottom;
pos = (446,0);
},
{
name = currencystroke;
pos = (435,294);
},
{
name = top;
pos = (446,588);
}
);
background = {
shapes = (
{
ref = o;
}
);
};
layerId = m010;
shapes = (
{
closed = 1;
nodes = (
(639,-12,o),
(764,65,o),
(785,202,c),
(746,202,l),
(727,88,o),
(616,24,o),
(437,24,cs),
(222,24,o),
(101,120,o),
(101,292,cs),
(101,466,o),
(223,564,o),
(441,564,cs),
(628,564,o),
(743,493,o),
(760,368,c),
(799,368,l),
(780,516,o),
(652,600,o),
(443,600,cs),
(197,600,o),
(59,489,o),
(59,292,cs),
(59,97,o),
(195,-12,o),
(437,-12,cs)
);
}
);
width = 836;
},
{
anchors = (
{
name = bottom;
pos = (516,0);
},
{
name = currencystroke;
pos = (516,320);
},
{
name = top;
pos = (516,640);
}
);
background = {
shapes = (
{
ref = o;
}
);
};
layerId = "434FAEF3-677A-47AD-84F7-3A7F762C5BD0";
shapes = (
{
closed = 1;
nodes = (
(815,-26,o),
(980,79,o),
(992,284,c),
(612,284,l),
(606,238,o),
(575,214,o),
(520,214,cs),
(453,214,o),
(418,249,o),
(418,317,cs),
(418,389,o),
(455,426,o),
(526,426,cs),
(587,426,o),
(620,396,o),
(624,338,c),
(1004,338,l),
(998,554,o),
(831,666,o),
(512,666,cs),
(186,666,o),
(18,547,o),
(18,317,cs),
(18,91,o),
(185,-26,o),
(508,-26,cs)
);
}
);
width = 1015;
},
{
anchors = (
{
name = bottom;
pos = (324,0);
},
{
name = currencystroke;
pos = (322,320);
},
{
name = top;
pos = (324,640);
}
);
background = {
shapes = (
{
ref = o;
}
);
};
layerId = "C0ED73B8-BF3D-4D9D-8EF3-572E464554C2";
shapes = (
{
closed = 1;
nodes = (
(494,-26,o),
(598,86,o),
(604,284,c),
(346,284,l),
(344,212,o),
(339,194,o),
(319,194,cs),
(296,194,o),
(290,219,o),
(290,317,cs),
(290,420,o),
(296,446,o),
(322,446,cs),
(344,446,o),
(350,424,o),
(352,338,c),
(610,338,l),
(608,548,o),
(504,666,o),
(320,666,cs),
(127,666,o),
(18,540,o),
(18,317,cs),
(18,97,o),
(125,-26,o),
(314,-26,cs)
);
}
);
width = 621;
}
);
metricLeft = RND;
metricRight = "=RND/1.6";
unicode = 99;
},
{
glyphname = eth;
kernLeft = rnd_left;
kernRight = rnd_right;
lastChange = "2022-10-11 19:36:13 +0000";
layers = (
{
background = {
shapes = (
{
ref = o;
}
);
};
layerId = m009;
shapes = (
{
closed = 1;
nodes = (
(425,-12,o),
(508,102,o),
(508,304,cs),
(508,508,o),
(404,702,o),
(219,843,c),
(188,821,l),
(285,751,o),
(373,649,o),
(416,552,c),
(407,545,l),
(378,578,o),
(329,598,o),
(278,598,cs),
(135,598,o),
(48,482,o),
(48,294,cs),
(48,98,o),
(131,-12,o),
(278,-12,cs)
);
},
{
closed = 1;
nodes = (
(87,461,o),
(160,564,o),
(278,564,cs),
(399,564,o),
(469,467,o),
(469,294,cs),
(469,121,o),
(400,24,o),
(278,24,cs),
(156,24,o),
(87,121,o),
(87,294,cs)
);
},
{
closed = 1;
nodes = (
(135,642,l),
(448,760,l),
(440,788,l),
(126,670,l)
);
}
);
width = 556;
},
{
background = {
shapes = (
{
ref = o;
}
);
};
layerId = m007;
shapes = (
{
closed = 1;
nodes = (
(495,-12,o),
(599,110,o),
(599,310,cs),
(599,510,o),
(476,702,o),
(256,843,c),
(223,821,l),
(350,744,o),
(453,639,o),
(510,531,c),
(499,524,l),
(460,569,o),
(394,598,o),
(326,598,cs),
(162,598,o),
(53,476,o),
(53,294,cs),
(53,104,o),
(157,-12,o),
(326,-12,cs)
);
},
{
closed = 1;
nodes = (
(94,456,o),
(187,564,o),
(326,564,cs),
(470,564,o),
(558,461,o),
(558,294,cs),
(558,127,o),
(470,24,o),
(326,24,cs),
(182,24,o),
(94,127,o),
(94,294,cs)
);
},
{
closed = 1;
nodes = (
(154,641,l),
(526,759,l),
(518,788,l),
(146,670,l)
);
}
);
width = 652;
},
{
background = {
shapes = (
{
ref = o;
}
);
};
layerId = m010;
shapes = (
{
closed = 1;
nodes = (
(682,-12,o),
(819,104,o),
(819,310,cs),
(819,513,o),
(653,695,o),
(332,843,c),
(294,821,l),
(469,744,o),
(613,645,o),
(693,545,c),
(681,535,l),
(623,577,o),
(540,598,o),
(439,598,cs),
(196,598,o),
(59,489,o),
(59,294,cs),
(59,98,o),
(196,-12,o),
(439,-12,cs)
);
},
{
closed = 1;
nodes = (
(101,467,o),
(223,564,o),
(439,564,cs),
(655,564,o),
(777,467,o),
(777,294,cs),
(777,121,o),
(655,24,o),
(439,24,cs),
(223,24,o),
(101,121,o),
(101,294,cs)
);
},
{
closed = 1;
nodes = (
(200,641,l),
(717,759,l),
(712,791,l),
(194,673,l)
);
}
);
width = 878;
},
{
background = {
shapes = (
{
ref = o;
}
);
};
layerId = m005;
shapes = (
{
closed = 1;
nodes = (
(458,-16,o),
(556,106,o),
(556,318,cs),
(556,510,o),
(434,732,o),
(251,874,c),
(167,814,l),
(249,755,o),
(328,671,o),
(369,604,c),
(359,593,l),
(345,602,o),
(320,608,o),
(294,608,cs),
(143,608,o),
(48,491,o),
(48,300,cs),
(48,104,o),
(141,-16,o),
(294,-16,cs)
);
},
{
closed = 1;
nodes = (
(155,437,o),
(208,514,o),
(302,514,cs),
(396,514,o),
(449,437,o),
(449,300,cs),
(449,163,o),
(396,86,o),
(302,86,cs),
(208,86,o),
(155,163,o),
(155,300,cs)
);
},
{
closed = 1;
nodes = (
(152,633,l),
(486,740,l),
(464,817,l),
(130,710,l)
);
}
);
width = 604;
},
{
background = {
shapes = (
{
ref = o;
}
);
};
layerId = m01;
shapes = (
{
closed = 1;
nodes = (
(538,-16,o),
(657,111,o),
(657,318,cs),
(657,510,o),
(512,732,o),
(294,874,c),
(205,814,l),
(306,753,o),
(401,668,o),
(450,600,c),
(438,589,l),
(414,601,o),
(379,608,o),
(345,608,cs),
(178,608,o),
(53,485,o),
(53,300,cs),
(53,110,o),
(170,-16,o),
(345,-16,cs)
);
},
{
closed = 1;
nodes = (
(163,431,o),
(236,512,o),
(355,512,cs),
(474,512,o),
(547,431,o),
(547,300,cs),
(547,169,o),
(474,88,o),
(355,88,cs),
(236,88,o),
(163,169,o),
(163,300,cs)
);
},
{
closed = 1;
nodes = (
(171,633,l),
(568,740,l),
(548,817,l),
(151,710,l)
);
}
);
width = 710;
},
{
background = {
shapes = (
{
ref = o;
}
);
};
layerId = m003;
shapes = (
{
closed = 1;
nodes = (
(737,-16,o),
(893,104,o),
(893,318,cs),
(893,519,o),
(693,730,o),
(368,874,c),
(278,814,l),
(421,753,o),
(557,672,o),
(636,600,c),
(625,587,l),
(583,600,o),
(517,608,o),
(459,608,cs),
(207,608,o),
(53,491,o),
(53,300,cs),
(53,104,o),
(207,-16,o),
(459,-16,cs)
);
},
{
closed = 1;
nodes = (
(165,441,o),
(276,520,o),
(473,520,cs),
(670,520,o),
(781,441,o),
(781,300,cs),
(781,159,o),
(670,80,o),
(473,80,cs),
(276,80,o),
(165,159,o),
(165,300,cs)
);
},
{
closed = 1;
nodes = (
(216,634,l),
(768,741,l),
(753,818,l),
(201,711,l)
);
}
);
width = 946;
},
{
background = {
shapes = (
{
ref = o;
}
);
};
layerId = m006;
shapes = (
{
closed = 1;
nodes = (
(477,-20,o),
(575,102,o),
(575,320,cs),
(575,539,o),
(450,760,o),
(246,902,c),
(126,816,l),
(207,757,o),
(280,690,o),
(322,635,c),
(311,623,l),
(302,626,o),
(288,628,o),
(276,628,cs),
(124,628,o),
(31,507,o),
(31,310,cs),
(31,99,o),
(129,-20,o),
(303,-20,cs)
);
},
{
closed = 1;
nodes = (
(201,426,o),
(236,486,o),
(303,486,cs),
(370,486,o),
(405,426,o),
(405,310,cs),
(405,194,o),
(370,134,o),
(303,134,cs),
(236,134,o),
(201,194,o),
(201,310,cs)
);
},
{
closed = 1;
nodes = (
(121,635,l),
(513,726,l),
(493,816,l),
(101,725,l)
);
}
);
width = 606;
},
{
background = {
shapes = (
{
ref = o;
}
);
};
layerId = m002;
shapes = (
{
closed = 1;
nodes = (
(552,-20,o),
(681,116,o),
(681,320,cs),
(681,539,o),
(533,760,o),
(291,902,c),
(164,816,l),
(276,747,o),
(368,676,o),
(406,629,c),
(395,616,l),
(383,623,o),
(359,628,o),
(338,628,cs),
(157,628,o),
(37,501,o),
(37,310,cs),
(37,112,o),
(166,-20,o),
(359,-20,cs)
);
},
{
closed = 1;
nodes = (
(211,415,o),
(267,480,o),
(359,480,cs),
(451,480,o),
(507,415,o),
(507,310,cs),
(507,205,o),
(451,140,o),
(359,140,cs),
(267,140,o),
(211,205,o),
(211,310,cs)
);
},
{
closed = 1;
nodes = (
(138,634,l),
(602,725,l),
(586,816,l),
(122,725,l)
);
}
);
width = 718;
},
{
background = {
shapes = (
{
ref = o;
}
);
};
layerId = m004;
shapes = (
{
closed = 1;
nodes = (
(750,-20,o),
(906,102,o),
(906,320,cs),
(906,550,o),
(711,759,o),
(363,902,c),
(218,814,l),
(376,746,o),
(507,677,o),
(562,632,c),
(552,617,l),
(534,623,o),
(489,628,o),
(459,628,cs),
(192,628,o),
(42,514,o),
(42,310,cs),
(42,99,o),
(198,-20,o),
(474,-20,cs)
);
},
{
closed = 1;
nodes = (
(226,427,o),
(310,488,o),
(474,488,cs),
(638,488,o),
(722,427,o),
(722,310,cs),
(722,193,o),
(638,132,o),
(474,132,cs),
(310,132,o),
(226,193,o),
(226,310,cs)
);
},
{
closed = 1;
nodes = (
(169,634,l),
(791,725,l),
(779,816,l),
(156,725,l)
);
}
);
width = 948;
},
{
background = {
shapes = (
{
ref = o;
}
);
};
layerId = "C0ED73B8-BF3D-4D9D-8EF3-572E464554C2";
shapes = (
{
closed = 1;
nodes = (
(506,-26,o),
(618,102,o),
(618,330,cs),
(618,568,o),
(482,806,o),
(278,926,c),
(87,795,l),
(161,749,o),
(232,691,o),
(275,642,c),
(266,627,l),
(260,629,o),
(252,630,o),
(245,630,cs),
(109,630,o),
(18,503,o),
(18,312,cs),
(18,96,o),
(122,-26,o),
(308,-26,cs)
);
},
{
closed = 1;
nodes = (
(290,421,o),
(296,446,o),
(318,446,cs),
(340,446,o),
(346,421,o),
(346,320,cs),
(346,219,o),
(340,194,o),
(318,194,cs),
(296,194,o),
(290,219,o),
(290,320,cs)
);
},
{
closed = 1;
nodes = (
(85,636,l),
(560,748,l),
(548,823,l),
(73,711,l)
);
}
);
width = 636;
},
{
background = {
shapes = (
{
ref = o;
}
);
};
layerId = m008;
shapes = (
{
closed = 1;
nodes = (
(597,-26,o),
(738,109,o),
(738,330,cs),
(738,568,o),
(575,806,o),
(330,926,c),
(101,795,l),
(200,750,o),
(293,692,o),
(346,642,c),
(335,627,l),
(328,629,o),
(318,630,o),
(310,630,cs),
(141,630,o),
(18,503,o),
(18,312,cs),
(18,109,o),
(157,-26,o),
(366,-26,cs)
);
},
{
closed = 1;
nodes = (
(337,394,o),
(349,426,o),
(378,426,cs),
(407,426,o),
(419,394,o),
(419,320,cs),
(419,246,o),
(407,214,o),
(378,214,cs),
(349,214,o),
(337,246,o),
(337,320,cs)
);
},
{
closed = 1;
nodes = (
(98,636,l),
(668,748,l),
(654,823,l),
(84,711,l)
);
}
);
width = 756;
},
{
background = {
shapes = (
{
ref = o;
}
);
};
layerId = "434FAEF3-677A-47AD-84F7-3A7F762C5BD0";
shapes = (
{
closed = 1;
nodes = (
(842,-26,o),
(1018,95,o),
(1018,330,cs),
(1018,576,o),
(801,804,o),
(448,928,c),
(123,785,l),
(265,743,o),
(386,695,o),
(481,645,c),
(474,627,l),
(462,629,o),
(446,630,o),
(434,630,cs),
(176,630,o),
(18,509,o),
(18,312,cs),
(18,89,o),
(182,-26,o),
(501,-26,cs)
);
},
{
closed = 1;
nodes = (
(418,390,o),
(452,426,o),
(518,426,cs),
(584,426,o),
(618,390,o),
(618,320,cs),
(618,250,o),
(584,214,o),
(518,214,cs),
(452,214,o),
(418,250,o),
(418,320,cs)
);
},
{
closed = 1;
nodes = (
(120,634,l),
(912,749,l),
(902,822,l),
(110,707,l)
);
}
);
width = 1036;
}
);
metricLeft = RND;
metricRight = RND;
unicode = 240;
},
{
glyphname = e;
kernLeft = rnd_left;
kernRight = rnd_right;
lastChange = "2023-04-27 14:59:11 +0000";
layers = (
{
anchors = (
{
name = "#entry";
pos = (53,0);
},
{
name = bottom;
pos = (348,0);
},
{
name = connect;
pos = (53,800);
},
{
name = ogonek;
pos = (340,10);
},
{
name = top;
pos = (348,600);
}
);
background = {
shapes = (
{
ref = o;
}
);
};
layerId = m01;
shapes = (
{
closed = 1;
nodes = (
(141,264,l),
(621,264,l),
(622,278,o),
(623,292,o),
(623,307,cs),
(623,497,o),
(516,616,o),
(347,616,cs),
(171,616,o),
(53,492,o),
(53,305,cs),
(53,106,o),
(167,-16,o),
(352,-16,cs),
(496,-16,o),
(602,56,o),
(641,184,c),
(537,184,l),
(502,124,o),
(435,86,o),
(352,86,cs),
(230,86,o),
(161,167,o),
(161,305,cs),
(161,433,o),
(232,514,o),
(347,514,cs),
(458,514,o),
(521,437,o),
(521,305,c),
(558,362,l),
(141,362,l)
);
}
);
width = 679;
},
{
anchors = (
{
name = "#entry";
pos = (37,0);
},
{
name = bottom;
pos = (360,0);
},
{
name = connect;
pos = (37,800);
},
{
name = ogonek;
pos = (354,10);
},
{
name = top;
pos = (360,620);
}
);
background = {
shapes = (
{
ref = o;
}
);
};
layerId = m002;
shapes = (
{
closed = 1;
nodes = (
(138,252,l),
(660,252,l),
(664,270,o),
(666,291,o),
(666,313,cs),
(666,514,o),
(548,640,o),
(362,640,cs),
(167,640,o),
(37,509,o),
(37,313,cs),
(37,107,o),
(161,-20,o),
(364,-20,cs),
(516,-20,o),
(631,57,o),
(682,194,c),
(500,194,l),
(470,151,o),
(425,130,o),
(364,130,cs),
(261,130,o),
(207,195,o),
(207,313,cs),
(207,422,o),
(265,490,o),
(362,490,cs),
(458,490,o),
(508,428,o),
(508,313,c),
(562,376,l),
(138,376,l)
);
}
);
width = 708;
},
{
anchors = (
{
name = "#entry";
pos = (53,0);
},
{
name = bottom;
pos = (466,0);
},
{
name = connect;
pos = (53,800);
},
{
name = ogonek;
pos = (457,10);
},
{
name = top;
pos = (466,600);
}
);
background = {
shapes = (
{
ref = o;
}
);
};
layerId = m003;
shapes = (
{
closed = 1;
nodes = (
(128,264,l),
(849,264,l),
(850,273,o),
(851,290,o),
(851,307,cs),
(851,505,o),
(710,616,o),
(459,616,cs),
(207,616,o),
(53,498,o),
(53,305,cs),
(53,100,o),
(200,-16,o),
(461,-16,cs),
(674,-16,o),
(819,56,o),
(875,184,c),
(755,184,l),
(692,116,o),
(609,78,o),
(461,78,cs),
(266,78,o),
(165,157,o),
(165,305,cs),
(165,443,o),
(271,522,o),
(459,522,cs),
(649,522,o),
(747,447,o),
(747,305,c),
(783,358,l),
(128,358,l)
);
}
);
width = 913;
},
{
anchors = (
{
name = "#entry";
pos = (42,0);
},
{
name = bottom;
pos = (476,0);
},
{
name = connect;
pos = (42,800);
},
{
name = ogonek;
pos = (467,10);
},
{
name = top;
pos = (476,620);
}
);
background = {
shapes = (
{
ref = o;
}
);
};
layerId = m004;
shapes = (
{
closed = 1;
nodes = (
(166,258,l),
(881,258,l),
(885,274,o),
(887,293,o),
(887,315,cs),
(887,529,o),
(746,640,o),
(473,640,cs),
(197,640,o),
(42,522,o),
(42,313,cs),
(42,93,o),
(189,-20,o),
(474,-20,cs),
(692,-20,o),
(838,53,o),
(904,194,c),
(696,194,l),
(647,143,o),
(578,124,o),
(474,124,cs),
(298,124,o),
(220,183,o),
(220,313,cs),
(220,439,o),
(298,496,o),
(473,496,cs),
(642,496,o),
(717,439,o),
(717,313,c),
(776,374,l),
(166,374,l)
);
}
);
width = 934;
},
{
anchors = (
{
name = "#entry";
pos = (48,0);
},
{
name = bottom;
pos = (304,0);
},
{
name = connect;
pos = (48,800);
},
{
name = ogonek;
pos = (288,10);
},
{
name = top;
pos = (304,600);
}
);
background = {
shapes = (
{
pos = (6,0);
ref = o;
}
);
};
layerId = m005;
shapes = (
{
closed = 1;
nodes = (
(121,264,l),
(528,264,l),
(529,278,o),
(530,292,o),
(530,317,cs),
(530,508,o),
(446,616,o),
(298,616,cs),
(143,616,o),
(48,498,o),
(48,305,cs),
(48,100,o),
(140,-16,o),
(304,-16,cs),
(426,-16,o),
(512,56,o),
(542,184,c),
(442,184,l),
(412,118,o),
(367,84,o),
(304,84,cs),
(205,84,o),
(154,159,o),
(154,305,cs),
(154,439,o),
(206,514,o),
(298,514,cs),
(386,514,o),
(428,450,o),
(428,315,c),
(466,360,l),
(121,360,l)
);
}
);
width = 576;
},
{
anchors = (
{
name = "#entry";
pos = (31,0);
},
{
name = bottom;
pos = (304,0);
},
{
name = connect;
pos = (31,800);
},
{
name = ogonek;
pos = (298,10);
},
{
name = top;
pos = (304,620);
}
);
background = {
shapes = (
{
ref = o;
}
);
};
layerId = m006;
shapes = (
{
closed = 1;
nodes = (
(155,254,l),
(556,254,l),
(559,268,o),
(560,291,o),
(560,313,cs),
(560,526,o),
(472,640,o),
(306,640,cs),
(130,640,o),
(31,522,o),
(31,313,cs),
(31,95,o),
(129,-20,o),
(308,-20,cs),
(446,-20,o),
(535,53,o),
(573,194,c),
(410,194,l),
(383,150,o),
(350,128,o),
(308,128,cs),
(233,128,o),
(195,192,o),
(195,313,cs),
(195,425,o),
(236,492,o),
(306,492,cs),
(372,492,o),
(406,431,o),
(406,313,c),
(462,374,l),
(155,374,l)
);
}
);
width = 595;
},
{
anchors = (
{
name = "#entry";
pos = (53,0);
},
{
name = bottom;
pos = (320,0);
},
{
name = connect;
pos = (53,800);
},
{
name = ogonek;
pos = (312,10);
},
{
name = top;
pos = (320,588);
}
);
background = {
shapes = (
{
ref = o;
}
);
};
layerId = m007;
shapes = (
{
closed = 1;
nodes = (
(86,284,l),
(567,284,l),
(568,295,o),
(569,308,o),
(569,318,cs),
(569,497,o),
(478,600,o),
(318,600,cs),
(154,600,o),
(53,486,o),
(53,300,cs),
(53,100,o),
(150,-12,o),
(322,-12,cs),
(454,-12,o),
(549,59,o),
(585,184,c),
(545,184,l),
(514,82,o),
(434,23,o),
(322,23,cs),
(176,23,o),
(94,123,o),
(94,300,cs),
(94,464,o),
(179,565,o),
(318,565,cs),
(454,565,o),
(531,475,o),
(531,318,c),
(555,319,l),
(86,319,l)
);
}
);
width = 623;
},
{
anchors = (
{
name = "#entry";
pos = (18,0);
},
{
name = bottom;
pos = (384,0);
},
{
name = connect;
pos = (18,800);
},
{
name = ogonek;
pos = (375,10);
},
{
name = top;
pos = (384,640);
}
);
background = {
shapes = (
{
ref = o;
}
);
};
layerId = m008;
shapes = (
{
closed = 1;
nodes = (
(241,298,l),
(725,298,l),
(726,307,o),
(726,320,o),
(726,330,cs),
(726,532,o),
(588,666,o),
(380,666,cs),
(163,666,o),
(18,528,o),
(18,320,cs),
(18,112,o),
(161,-26,o),
(376,-26,cs),
(581,-26,o),
(725,92,o),
(737,270,c),
(443,270,l),
(435,233,o),
(416,214,o),
(386,214,cs),
(345,214,o),
(326,246,o),
(326,320,cs),
(326,394,o),
(344,426,o),
(380,426,cs),
(412,426,o),
(428,400,o),
(428,338,c),
(593,358,l),
(241,358,l)
);
}
);
width = 750;
},
{
anchors = (
{
name = "#entry";
pos = (48,0);
},
{
name = bottom;
pos = (280,0);
},
{
name = connect;
pos = (48,800);
},
{
name = ogonek;
pos = (267,10);
},
{
name = top;
pos = (280,588);
}
);
background = {
shapes = (
{
ref = o;
}
);
};
layerId = m009;
shapes = (
{
closed = 1;
nodes = (
(76,284,l),
(486,284,l),
(487,292,o),
(488,306,o),
(488,318,cs),
(488,503,o),
(416,600,o),
(278,600,cs),
(131,600,o),
(48,492,o),
(48,300,cs),
(48,94,o),
(127,-12,o),
(280,-12,cs),
(396,-12,o),
(471,55,o),
(500,184,c),
(461,184,l),
(437,78,o),
(376,23,o),
(280,23,cs),
(153,23,o),
(88,118,o),
(88,300,cs),
(88,469,o),
(156,565,o),
(278,565,cs),
(392,565,o),
(450,480,o),
(450,316,c),
(464,318,l),
(76,318,l)
);
}
);
width = 534;
},
{
anchors = (
{
name = "#entry";
pos = (59,0);
},
{
name = bottom;
pos = (438,0);
},
{
name = connect;
pos = (59,800);
},
{
name = ogonek;
pos = (423,10);
},
{
name = top;
pos = (438,588);
}
);
background = {
shapes = (
{
ref = o;
}
);
};
layerId = m010;
shapes = (
{
closed = 1;
nodes = (
(89,284,l),
(785,284,l),
(786,293,o),
(787,305,o),
(787,318,cs),
(787,502,o),
(662,600,o),
(426,600,cs),
(191,600,o),
(59,492,o),
(59,300,cs),
(59,94,o),
(187,-12,o),
(436,-12,cs),
(632,-12,o),
(757,55,o),
(803,184,c),
(761,184,l),
(718,78,o),
(608,23,o),
(436,23,cs),
(215,23,o),
(101,118,o),
(101,300,cs),
(101,469,o),
(218,565,o),
(426,565,cs),
(639,565,o),
(749,480,o),
(749,318,c),
(763,319,l),
(89,319,l)
);
}
);
width = 845;
},
{
anchors = (
{
name = "#entry";
pos = (18,0);
},
{
name = bottom;
pos = (522,0);
},
{
name = connect;
pos = (18,800);
},
{
name = ogonek;
pos = (513,10);
},
{
name = top;
pos = (522,640);
}
);
background = {
shapes = (
{
ref = o;
}
);
};
layerId = "434FAEF3-677A-47AD-84F7-3A7F762C5BD0";
shapes = (
{
closed = 1;
nodes = (
(343,298,l),
(1001,298,l),
(1002,305,o),
(1002,316,o),
(1002,330,cs),
(1002,552,o),
(836,666,o),
(514,666,cs),
(187,666,o),
(18,548,o),
(18,320,cs),
(18,92,o),
(186,-26,o),
(512,-26,cs),
(817,-26,o),
(987,75,o),
(1013,270,c),
(633,270,l),
(621,233,o),
(585,214,o),
(526,214,cs),
(455,214,o),
(418,250,o),
(418,320,cs),
(418,392,o),
(451,426,o),
(522,426,cs),
(583,426,o),
(612,395,o),
(612,330,c),
(767,358,l),
(343,358,l)
);
}
);
width = 1026;
},
{
anchors = (
{
name = "#entry";
pos = (18,0);
},
{
name = bottom;
pos = (324,0);
},
{
name = connect;
pos = (18,800);
},
{
name = ogonek;
pos = (315,10);
},
{
name = top;
pos = (324,640);
}
);
background = {
shapes = (
{
ref = o;
}
);
};
layerId = "C0ED73B8-BF3D-4D9D-8EF3-572E464554C2";
shapes = (
{
closed = 1;
nodes = (
(213,298,l),
(607,298,l),
(608,307,o),
(608,320,o),
(608,330,cs),
(608,545,o),
(505,666,o),
(322,666,cs),
(126,666,o),
(18,541,o),
(18,320,cs),
(18,99,o),
(125,-26,o),
(314,-26,cs),
(498,-26,o),
(607,81,o),
(617,270,c),
(359,270,l),
(354,212,o),
(345,194,o),
(322,194,cs),
(294,194,o),
(284,224,o),
(284,320,cs),
(284,416,o),
(294,446,o),
(320,446,cs),
(343,446,o),
(352,419,o),
(352,330,c),
(505,358,l),
(213,358,l)
);
}
);
width = 630;
}
);
metricLeft = RND;
metricRight = "=RND/1.4";
unicode = 101;
},
{
glyphname = f;
kernLeft = f_left;
lastChange = "2023-01-17 15:50:17 +0000";
layers = (
{
layerId = m01;
shapes = (
{
closed = 1;
nodes = (
(262,496,l),
(486,496,l),
(486,600,l),
(262,600,l),
(262,648,ls),
(262,713,o),
(294,760,o),
(352,760,cs),
(404,760,o),
(436,734,o),
(448,688,c),
(550,688,l),
(546,799,o),
(472,864,o),
(352,864,cs),
(228,864,o),
(152,786,o),
(152,658,cs),
(152,600,l),
(32,600,l),
(32,496,l),
(152,496,l),
(152,0,l),
(262,0,l)
);
}
);
width = 486;
},
{
layerId = m002;
shapes = (
{
closed = 1;
nodes = (
(322,460,l),
(566,460,l),
(566,620,l),
(322,620,l),
(322,640,ls),
(322,688,o),
(348,716,o),
(392,716,cs),
(429,716,o),
(454,700,o),
(468,670,c),
(638,670,l),
(628,797,o),
(537,868,o),
(390,868,cs),
(229,868,o),
(142,786,o),
(142,640,cs),
(142,620,l),
(22,620,l),
(22,460,l),
(142,460,l),
(142,0,l),
(322,0,l)
);
}
);
width = 556;
},
{
layerId = m003;
shapes = (
{
closed = 1;
nodes = (
(314,504,l),
(678,504,l),
(678,600,l),
(314,600,l),
(314,618,ls),
(314,720,o),
(365,768,o),
(474,768,cs),
(559,768,o),
(608,736,o),
(634,668,c),
(734,668,l),
(718,797,o),
(630,864,o),
(474,864,cs),
(296,864,o),
(204,780,o),
(204,618,cs),
(204,600,l),
(32,600,l),
(32,504,l),
(204,504,l),
(204,0,l),
(314,0,l)
);
}
);
width = 668;
},
{
layerId = m004;
shapes = (
{
closed = 1;
nodes = (
(386,468,l),
(750,468,l),
(750,620,l),
(386,620,l),
(386,630,ls),
(386,691,o),
(434,722,o),
(528,722,cs),
(607,722,o),
(655,700,o),
(672,658,c),
(842,658,l),
(829,792,o),
(717,868,o),
(530,868,cs),
(323,868,o),
(206,782,o),
(206,630,cs),
(206,620,l),
(26,620,l),
(26,468,l),
(206,468,l),
(206,0,l),
(386,0,l)
);
}
);
width = 730;
},
{
layerId = m005;
shapes = (
{
closed = 1;
nodes = (
(238,498,l),
(412,498,l),
(412,600,l),
(238,600,l),
(238,678,ls),
(238,737,o),
(255,762,o),
(294,762,cs),
(329,762,o),
(347,740,o),
(358,688,c),
(458,688,l),
(452,802,o),
(394,864,o),
(294,864,cs),
(184,864,o),
(128,801,o),
(128,678,cs),
(128,600,l),
(28,600,l),
(28,498,l),
(128,498,l),
(128,0,l),
(238,0,l)
);
}
);
width = 422;
},
{
layerId = m006;
shapes = (
{
closed = 1;
nodes = (
(298,466,l),
(486,466,l),
(486,620,l),
(298,620,l),
(298,660,ls),
(298,698,o),
(310,718,o),
(334,718,cs),
(354,718,o),
(368,702,o),
(376,670,c),
(538,670,l),
(530,797,o),
(455,868,o),
(334,868,cs),
(194,868,o),
(118,793,o),
(118,660,cs),
(118,620,l),
(18,620,l),
(18,466,l),
(118,466,l),
(118,0,l),
(298,0,l)
);
}
);
width = 466;
},
{
layerId = m007;
shapes = (
{
closed = 1;
nodes = (
(180,552,l),
(464,552,l),
(464,588,l),
(180,588,l),
(180,668,ls),
(180,765,o),
(232,824,o),
(316,824,cs),
(398,824,o),
(454,769,o),
(463,678,c),
(502,678,l),
(492,791,o),
(421,860,o),
(316,860,cs),
(207,860,o),
(140,787,o),
(140,668,cs),
(140,588,l),
(32,588,l),
(32,552,l),
(140,552,l),
(140,0,l),
(180,0,l)
);
}
);
width = 424;
},
{
layerId = m008;
shapes = (
{
closed = 1;
nodes = (
(448,370,l),
(678,370,l),
(678,610,l),
(428,610,l),
(428,638,ls),
(428,662,o),
(435,672,o),
(450,672,cs),
(465,672,o),
(472,664,o),
(472,644,c),
(714,644,l),
(708,800,o),
(617,874,o),
(430,874,cs),
(225,874,o),
(128,798,o),
(128,636,cs),
(128,610,l),
(10,610,l),
(10,370,l),
(128,370,l),
(128,0,l),
(448,0,l)
);
}
);
width = 684;
},
{
layerId = m009;
shapes = (
{
closed = 1;
nodes = (
(176,554,l),
(394,554,l),
(394,588,l),
(176,588,l),
(176,688,ls),
(176,775,o),
(212,824,o),
(276,824,cs),
(340,824,o),
(379,771,o),
(384,678,c),
(422,678,l),
(416,794,o),
(363,860,o),
(276,860,cs),
(186,860,o),
(136,798,o),
(136,688,cs),
(136,588,l),
(28,588,l),
(28,554,l),
(136,554,l),
(136,0,l),
(176,0,l)
);
}
);
width = 374;
},
{
layerId = m010;
shapes = (
{
closed = 1;
nodes = (
(244,554,l),
(642,554,l),
(642,588,l),
(244,588,l),
(244,638,ls),
(244,757,o),
(314,824,o),
(438,824,cs),
(558,824,o),
(633,771,o),
(647,678,c),
(686,678,l),
(670,794,o),
(581,860,o),
(438,860,cs),
(288,860,o),
(204,780,o),
(204,638,cs),
(204,588,l),
(36,588,l),
(36,554,l),
(204,554,l),
(204,0,l),
(244,0,l)
);
}
);
width = 602;
},
{
layerId = "434FAEF3-677A-47AD-84F7-3A7F762C5BD0";
shapes = (
{
closed = 1;
nodes = (
(598,370,l),
(948,370,l),
(948,610,l),
(580,610,l),
(580,638,ls),
(580,661,o),
(593,672,o),
(622,672,cs),
(648,672,o),
(662,663,o),
(664,644,c),
(1004,644,l),
(998,805,o),
(874,874,o),
(590,874,cs),
(323,874,o),
(198,798,o),
(198,636,cs),
(198,610,l),
(10,610,l),
(10,370,l),
(198,370,l),
(198,0,l),
(598,0,l)
);
}
);
width = 960;
},
{
layerId = "C0ED73B8-BF3D-4D9D-8EF3-572E464554C2";
shapes = (
{
closed = 1;
nodes = (
(380,390,l),
(574,390,l),
(574,610,l),
(360,610,l),
(360,638,ls),
(360,661,o),
(367,672,o),
(382,672,cs),
(397,672,o),
(404,663,o),
(404,644,c),
(610,644,l),
(606,796,o),
(518,874,o),
(352,874,cs),
(191,874,o),
(108,793,o),
(108,636,cs),
(108,610,l),
(10,610,l),
(10,390,l),
(108,390,l),
(108,0,l),
(380,0,l)
);
}
);
width = 580;
}
);
metricLeft = "=TNG*2";
unicode = 102;
},
{
glyphname = g;
kernLeft = rnd_left;
kernRight = g_right;
lastChange = "2022-08-28 17:27:20 +0000";
layers = (
{
anchors = (
{
name = bottom;
pos = (365,-200);
},
{
name = top;
pos = (365,600);
}
);
background = {
shapes = (
{
pos = (5,0);
ref = o;
}
);
};
layerId = m01;
shapes = (
{
closed = 1;
nodes = (
(634,600,l),
(524,600,l),
(524,536,l),
(510,536,l),
(480,584,o),
(408,616,o),
(330,616,cs),
(167,616,o),
(58,498,o),
(58,320,cs),
(58,145,o),
(167,28,o),
(330,28,cs),
(408,28,o),
(480,58,o),
(510,104,c),
(524,104,l),
(524,40,ls),
(524,-55,o),
(454,-114,o),
(340,-114,cs),
(257,-114,o),
(192,-78,o),
(166,-20,c),
(58,-20,l),
(72,-138,o),
(185,-216,o),
(340,-216,cs),
(516,-216,o),
(634,-114,o),
(634,40,cs)
);
},
{
closed = 1;
nodes = (
(170,439,o),
(238,512,o),
(350,512,cs),
(462,512,o),
(530,439,o),
(530,320,cs),
(530,201,o),
(462,128,o),
(350,128,cs),
(238,128,o),
(170,201,o),
(170,320,cs)
);
}
);
width = 730;
},
{
anchors = (
{
name = bottom;
pos = (383,-200);
},
{
name = top;
pos = (383,620);
}
);
background = {
shapes = (
{
pos = (12,0);
ref = o;
}
);
};
layerId = m002;
shapes = (
{
closed = 1;
nodes = (
(679,620,l),
(499,620,l),
(499,562,l),
(479,562,l),
(458,608,o),
(398,636,o),
(320,636,cs),
(155,636,o),
(45,511,o),
(45,324,cs),
(45,146,o),
(155,28,o),
(320,28,cs),
(396,28,o),
(456,53,o),
(479,94,c),
(499,94,l),
(499,50,ls),
(499,-27,o),
(448,-70,o),
(356,-70,cs),
(287,-70,o),
(247,-51,o),
(222,-10,c),
(41,-10,l),
(61,-144,o),
(174,-220,o),
(356,-220,cs),
(556,-220,o),
(679,-117,o),
(679,50,cs)
);
},
{
closed = 1;
nodes = (
(225,420,o),
(276,472,o),
(367,472,cs),
(458,472,o),
(509,420,o),
(509,328,cs),
(509,236,o),
(458,184,o),
(367,184,cs),
(276,184,o),
(225,236,o),
(225,328,cs)
);
}
);
width = 745;
},
{
anchors = (
{
name = bottom;
pos = (472,-200);
},
{
name = top;
pos = (472,600);
}
);
background = {
shapes = (
{
pos = (5,0);
ref = o;
}
);
};
layerId = m003;
shapes = (
{
closed = 1;
nodes = (
(848,600,l),
(738,600,l),
(738,526,l),
(718,526,l),
(675,584,o),
(572,616,o),
(433,616,cs),
(201,616,o),
(58,504,o),
(58,320,cs),
(58,139,o),
(201,28,o),
(433,28,cs),
(572,28,o),
(674,59,o),
(718,114,c),
(738,114,l),
(738,62,ls),
(738,-59,o),
(639,-120,o),
(443,-120,cs),
(302,-120,o),
(217,-88,o),
(172,-20,c),
(58,-20,l),
(87,-149,o),
(218,-216,o),
(443,-216,cs),
(710,-216,o),
(848,-121,o),
(848,62,cs)
);
},
{
closed = 1;
nodes = (
(172,448,o),
(273,520,o),
(453,520,cs),
(639,520,o),
(744,448,o),
(744,320,cs),
(744,192,o),
(639,120,o),
(453,120,cs),
(273,120,o),
(172,192,o),
(172,320,cs)
);
}
);
width = 944;
},
{
anchors = (
{
name = bottom;
pos = (485,-200);
},
{
name = top;
pos = (485,620);
}
);
background = {
shapes = (
{
pos = (8,0);
ref = o;
}
);
};
layerId = m004;
shapes = (
{
closed = 1;
nodes = (
(894,620,l),
(714,620,l),
(714,552,l),
(684,552,l),
(644,608,o),
(549,640,o),
(422,640,cs),
(194,640,o),
(54,521,o),
(54,328,cs),
(54,142,o),
(194,28,o),
(422,28,cs),
(548,28,o),
(642,57,o),
(684,108,c),
(714,108,l),
(714,68,ls),
(714,-30,o),
(628,-80,o),
(460,-80,cs),
(335,-80,o),
(265,-58,o),
(240,-10,c),
(46,-10,l),
(64,-149,o),
(204,-220,o),
(460,-220,cs),
(738,-220,o),
(894,-116,o),
(894,68,cs)
);
},
{
closed = 1;
nodes = (
(240,434,o),
(322,488,o),
(482,488,cs),
(642,488,o),
(724,434,o),
(724,330,cs),
(724,226,o),
(642,172,o),
(482,172,cs),
(322,172,o),
(240,226,o),
(240,330,cs)
);
}
);
width = 970;
},
{
anchors = (
{
name = bottom;
pos = (314,-200);
},
{
name = top;
pos = (314,600);
}
);
background = {
shapes = (
{
pos = (11,0);
ref = o;
}
);
};
layerId = m005;
shapes = (
{
closed = 1;
nodes = (
(541,600,l),
(431,600,l),
(431,546,l),
(417,546,l),
(393,589,o),
(341,616,o),
(280,616,cs),
(139,616,o),
(53,504,o),
(53,320,cs),
(53,139,o),
(139,28,o),
(280,28,cs),
(341,28,o),
(393,53,o),
(417,94,c),
(431,94,l),
(431,22,ls),
(431,-65,o),
(383,-114,o),
(297,-114,cs),
(226,-114,o),
(178,-80,o),
(159,-20,c),
(53,-20,l),
(63,-142,o),
(156,-216,o),
(297,-216,cs),
(448,-216,o),
(541,-126,o),
(541,22,cs)
);
},
{
closed = 1;
nodes = (
(163,444,o),
(212,514,o),
(300,514,cs),
(388,514,o),
(437,444,o),
(437,320,cs),
(437,196,o),
(388,126,o),
(300,126,cs),
(212,126,o),
(163,196,o),
(163,320,cs)
);
}
);
width = 627;
},
{
anchors = (
{
name = bottom;
pos = (326,-200);
},
{
name = top;
pos = (326,620);
}
);
background = {
shapes = (
{
pos = (8,0);
ref = o;
}
);
};
layerId = m006;
shapes = (
{
closed = 1;
nodes = (
(576,620,l),
(396,620,l),
(396,566,l),
(376,566,l),
(355,611,o),
(311,636,o),
(254,636,cs),
(116,636,o),
(38,525,o),
(38,328,cs),
(38,136,o),
(116,28,o),
(254,28,cs),
(311,28,o),
(355,50,o),
(376,90,c),
(396,90,l),
(396,44,ls),
(396,-30,o),
(364,-68,o),
(301,-68,cs),
(252,-68,o),
(221,-48,o),
(204,-10,c),
(34,-10,l),
(50,-144,o),
(146,-220,o),
(301,-220,cs),
(477,-220,o),
(576,-125,o),
(576,44,cs)
);
},
{
closed = 1;
nodes = (
(212,423,o),
(245,472,o),
(309,472,cs),
(373,472,o),
(406,423,o),
(406,328,cs),
(406,233,o),
(373,184,o),
(309,184,cs),
(245,184,o),
(212,233,o),
(212,328,cs)
);
}
);
width = 632;
},
{
anchors = (
{
name = bottom;
pos = (336,-200);
},
{
name = top;
pos = (336,588);
}
);
background = {
shapes = (
{
pos = (2,0);
ref = o;
}
);
};
layerId = m007;
shapes = (
{
closed = 1;
nodes = (
(575,588,l),
(535,588,l),
(535,488,l),
(525,488,l),
(489,557,o),
(409,600,o),
(314,600,cs),
(155,600,o),
(58,491,o),
(58,314,cs),
(58,137,o),
(155,28,o),
(314,28,cs),
(409,28,o),
(489,71,o),
(525,140,c),
(535,140,l),
(535,10,ls),
(535,-105,o),
(452,-176,o),
(317,-176,cs),
(195,-176,o),
(111,-124,o),
(97,-40,c),
(58,-40,l),
(74,-147,o),
(172,-212,o),
(317,-212,cs),
(477,-212,o),
(575,-128,o),
(575,10,cs)
);
},
{
closed = 1;
nodes = (
(99,469,o),
(182,564,o),
(318,564,cs),
(454,564,o),
(537,469,o),
(537,314,cs),
(537,159,o),
(454,64,o),
(318,64,cs),
(182,64,o),
(99,159,o),
(99,314,cs)
);
}
);
width = 671;
},
{
anchors = (
{
name = bottom;
pos = (390,-200);
},
{
name = top;
pos = (390,640);
}
);
background = {
shapes = (
{
pos = (12,0);
ref = o;
}
);
};
layerId = m008;
shapes = (
{
closed = 1;
nodes = (
(728,640,l),
(408,640,l),
(408,552,l),
(388,552,l),
(376,616,o),
(322,656,o),
(248,656,cs),
(108,656,o),
(30,550,o),
(30,343,cs),
(30,141,o),
(108,28,o),
(248,28,cs),
(317,28,o),
(370,64,o),
(388,122,c),
(408,122,l),
(408,40,ls),
(408,-12,o),
(394,-36,o),
(364,-36,cs),
(342,-36,o),
(328,-26,o),
(322,-4,c),
(20,-4,l),
(35,-159,o),
(141,-226,o),
(370,-226,cs),
(607,-226,o),
(728,-130,o),
(728,60,cs)
);
},
{
closed = 1;
nodes = (
(352,401,o),
(362,428,o),
(386,428,cs),
(410,428,o),
(420,401,o),
(420,337,cs),
(420,273,o),
(410,246,o),
(386,246,cs),
(362,246,o),
(352,273,o),
(352,337,cs)
);
}
);
width = 760;
},
{
anchors = (
{
name = bottom;
pos = (291,-200);
},
{
name = top;
pos = (291,588);
}
);
background = {
shapes = (
{
pos = (5,0);
ref = o;
}
);
};
layerId = m009;
shapes = (
{
closed = 1;
nodes = (
(495,588,l),
(455,588,l),
(455,498,l),
(445,498,l),
(415,563,o),
(352,600,o),
(271,600,cs),
(131,600,o),
(53,497,o),
(53,314,cs),
(53,131,o),
(131,28,o),
(271,28,cs),
(352,28,o),
(415,65,o),
(445,130,c),
(455,130,l),
(455,-10,ls),
(455,-116,o),
(391,-176,o),
(276,-176,cs),
(172,-176,o),
(105,-127,o),
(91,-40,c),
(53,-40,l),
(68,-150,o),
(148,-212,o),
(276,-212,cs),
(416,-212,o),
(495,-139,o),
(495,-10,cs)
);
},
{
closed = 1;
nodes = (
(93,474,o),
(159,564,o),
(275,564,cs),
(391,564,o),
(457,474,o),
(457,314,cs),
(457,154,o),
(391,64,o),
(275,64,cs),
(159,64,o),
(93,154,o),
(93,314,cs)
);
}
);
width = 581;
},
{
anchors = (
{
name = bottom;
pos = (443,-200);
},
{
name = top;
pos = (443,588);
}
);
background = {
shapes = (
{
pos = (4,0);
ref = o;
}
);
};
layerId = m010;
shapes = (
{
closed = 1;
nodes = (
(779,588,l),
(739,588,l),
(739,474,l),
(723,474,l),
(681,555,o),
(572,600,o),
(420,600,cs),
(193,600,o),
(65,497,o),
(65,314,cs),
(65,132,o),
(193,29,o),
(420,29,cs),
(572,29,o),
(682,74,o),
(723,154,c),
(739,154,l),
(739,30,ls),
(739,-106,o),
(628,-176,o),
(412,-176,cs),
(229,-176,o),
(125,-130,o),
(104,-40,c),
(65,-40,l),
(86,-154,o),
(204,-212,o),
(412,-212,cs),
(654,-212,o),
(779,-130,o),
(779,30,cs)
);
},
{
closed = 1;
nodes = (
(107,474,o),
(221,564,o),
(424,564,cs),
(627,564,o),
(741,474,o),
(741,314,cs),
(741,154,o),
(627,64,o),
(424,64,cs),
(221,64,o),
(107,154,o),
(107,314,cs)
);
}
);
width = 885;
},
{
anchors = (
{
name = bottom;
pos = (526,-200);
},
{
name = top;
pos = (526,640);
}
);
background = {
shapes = (
{
pos = (12,0);
ref = o;
}
);
};
layerId = "434FAEF3-677A-47AD-84F7-3A7F762C5BD0";
shapes = (
{
closed = 1;
nodes = (
(1000,640,l),
(600,640,l),
(600,552,l),
(560,552,l),
(524,616,o),
(445,656,o),
(350,656,cs),
(145,656,o),
(30,543,o),
(30,343,cs),
(30,141,o),
(145,28,o),
(350,28,cs),
(438,28,o),
(518,64,o),
(560,122,c),
(600,122,l),
(600,30,ls),
(600,-15,o),
(568,-36,o),
(500,-36,cs),
(439,-36,o),
(408,-26,o),
(402,-4,c),
(20,-4,l),
(35,-166,o),
(163,-226,o),
(496,-226,cs),
(865,-226,o),
(1000,-152,o),
(1000,50,cs)
);
},
{
closed = 1;
nodes = (
(432,397,o),
(463,428,o),
(522,428,cs),
(581,428,o),
(612,397,o),
(612,337,cs),
(612,277,o),
(581,246,o),
(522,246,cs),
(463,246,o),
(432,277,o),
(432,337,cs)
);
}
);
width = 1032;
},
{
anchors = (
{
name = bottom;
pos = (335,-200);
},
{
name = top;
pos = (335,640);
}
);
background = {
shapes = (
{
pos = (12,0);
ref = o;
}
);
};
layerId = "C0ED73B8-BF3D-4D9D-8EF3-572E464554C2";
shapes = (
{
closed = 1;
nodes = (
(618,640,l),
(346,640,l),
(346,552,l),
(326,552,l),
(313,616,o),
(267,656,o),
(206,656,cs),
(86,656,o),
(30,556,o),
(30,343,cs),
(30,129,o),
(86,28,o),
(206,28,cs),
(261,28,o),
(307,64,o),
(326,122,c),
(346,122,l),
(346,40,ls),
(346,-13,o),
(335,-36,o),
(308,-36,cs),
(289,-36,o),
(278,-26,o),
(272,-4,c),
(20,-4,l),
(34,-151,o),
(134,-226,o),
(314,-226,cs),
(515,-226,o),
(618,-129,o),
(618,60,cs)
);
},
{
closed = 1;
nodes = (
(302,410,o),
(308,428,o),
(330,428,cs),
(352,428,o),
(358,410,o),
(358,337,cs),
(358,264,o),
(352,246,o),
(330,246,cs),
(308,246,o),
(302,264,o),
(302,337,cs)
);
}
);
width = 650;
}
);
metricLeft = "=RND*1.1";
metricRight = SQR;
unicode = 103;
},
{
glyphname = jdotless;
lastChange = "2022-09-18 19:24:23 +0000";
layers = (
{
anchors = (
{
name = top;
pos = (177,600);
},
{
name = topacute;
pos = (176,600);
}
);
layerId = m01;
shapes = (
{
closed = 1;
nodes = (
(122,-26,ls),
(122,-84,o),
(97,-116,o),
(53,-116,cs),
(12,-116,o),
(-12,-98,o),
(-22,-66,c),
(-126,-66,l),
(-122,-159,o),
(-54,-216,o),
(53,-216,cs),
(164,-216,o),
(232,-144,o),
(232,-26,cs),
(232,600,l),
(122,600,l)
);
}
);
width = 328;
},
{
anchors = (
{
name = top;
pos = (209,620);
},
{
name = topacute;
pos = (210,620);
}
);
layerId = m002;
shapes = (
{
closed = 1;
nodes = (
(119,2,ls),
(119,-46,o),
(103,-70,o),
(71,-70,cs),
(46,-70,o),
(31,-60,o),
(16,-40,c),
(-154,-40,l),
(-146,-155,o),
(-65,-220,o),
(71,-220,cs),
(217,-220,o),
(299,-140,o),
(299,2,cs),
(299,620,l),
(119,620,l)
);
}
);
width = 365;
},
{
anchors = (
{
name = top;
pos = (237,600);
},
{
name = topacute;
pos = (238,600);
}
);
layerId = m003;
shapes = (
{
closed = 1;
nodes = (
(182,-2,ls),
(182,-80,o),
(139,-120,o),
(55,-120,cs),
(-2,-120,o),
(-40,-98,o),
(-64,-56,c),
(-166,-56,l),
(-152,-158,o),
(-72,-216,o),
(55,-216,cs),
(207,-216,o),
(292,-139,o),
(292,-2,cs),
(292,600,l),
(182,600,l)
);
}
);
width = 388;
},
{
anchors = (
{
name = top;
pos = (265,620);
},
{
name = topacute;
pos = (272,620);
}
);
layerId = m004;
shapes = (
{
closed = 1;
nodes = (
(175,42,ls),
(175,-40,o),
(144,-78,o),
(79,-78,cs),
(36,-78,o),
(9,-66,o),
(-4,-40,c),
(-180,-40,l),
(-165,-159,o),
(-76,-220,o),
(79,-220,cs),
(261,-220,o),
(355,-131,o),
(355,42,cs),
(355,620,l),
(175,620,l)
);
}
);
width = 431;
},
{
anchors = (
{
name = top;
pos = (147,600);
},
{
name = topacute;
pos = (138,600);
}
);
layerId = m005;
shapes = (
{
closed = 1;
nodes = (
(92,-56,ls),
(92,-96,o),
(78,-116,o),
(52,-116,cs),
(28,-116,o),
(14,-99,o),
(6,-66,c),
(-96,-66,l),
(-90,-162,o),
(-37,-216,o),
(52,-216,cs),
(148,-216,o),
(202,-158,o),
(202,-56,cs),
(202,600,l),
(92,600,l)
);
}
);
width = 288;
},
{
anchors = (
{
name = top;
pos = (189,620);
},
{
name = topacute;
pos = (178,620);
}
);
layerId = m006;
shapes = (
{
closed = 1;
nodes = (
(99,-20,ls),
(99,-58,o),
(92,-74,o),
(76,-74,cs),
(63,-74,o),
(55,-64,o),
(50,-40,c),
(-118,-40,l),
(-114,-155,o),
(-41,-220,o),
(85,-220,cs),
(209,-220,o),
(279,-151,o),
(279,-28,cs),
(279,620,l),
(99,620,l)
);
}
);
width = 335;
},
{
anchors = (
{
name = top;
pos = (155,588);
},
{
name = topacute;
pos = (152,588);
}
);
layerId = m007;
shapes = (
{
closed = 1;
nodes = (
(135,-56,ls),
(135,-130,o),
(94,-176,o),
(28,-176,cs),
(-27,-176,o),
(-66,-142,o),
(-76,-86,c),
(-116,-86,l),
(-104,-164,o),
(-49,-212,o),
(28,-212,cs),
(119,-212,o),
(175,-153,o),
(175,-56,cs),
(175,588,l),
(135,588,l)
);
}
);
width = 271;
},
{
anchors = (
{
name = top;
pos = (222,640);
},
{
name = topacute;
pos = (220,640);
}
);
layerId = m008;
shapes = (
{
closed = 1;
nodes = (
(62,-20,ls),
(62,-47,o),
(55,-60,o),
(40,-60,cs),
(26,-60,o),
(19,-50,o),
(18,-30,c),
(-240,-30,l),
(-232,-159,o),
(-130,-226,o),
(60,-226,cs),
(273,-226,o),
(382,-142,o),
(382,22,cs),
(382,640,l),
(62,640,l)
);
}
);
width = 414;
},
{
anchors = (
{
name = top;
pos = (149,588);
},
{
name = topacute;
pos = (146,588);
}
);
layerId = m009;
shapes = (
{
closed = 1;
nodes = (
(129,-66,ls),
(129,-136,o),
(101,-176,o),
(50,-176,cs),
(-1,-176,o),
(-32,-144,o),
(-36,-86,c),
(-76,-86,l),
(-70,-167,o),
(-25,-212,o),
(50,-212,cs),
(126,-212,o),
(169,-159,o),
(169,-66,cs),
(169,588,l),
(129,588,l)
);
}
);
width = 255;
},
{
anchors = (
{
name = top;
pos = (211,588);
},
{
name = topacute;
pos = (210,588);
}
);
layerId = m010;
shapes = (
{
closed = 1;
nodes = (
(191,-16,ls),
(191,-122,o),
(139,-176,o),
(38,-176,cs),
(-46,-176,o),
(-98,-142,o),
(-114,-76,c),
(-154,-76,l),
(-135,-166,o),
(-70,-212,o),
(38,-212,cs),
(165,-212,o),
(231,-145,o),
(231,-16,cs),
(231,588,l),
(191,588,l)
);
}
);
width = 337;
},
{
anchors = (
{
name = top;
pos = (262,640);
},
{
name = topacute;
pos = (256,640);
}
);
layerId = "434FAEF3-677A-47AD-84F7-3A7F762C5BD0";
shapes = (
{
closed = 1;
nodes = (
(62,-22,ls),
(62,-49,o),
(52,-60,o),
(30,-60,cs),
(12,-60,o),
(2,-51,o),
(-2,-30,c),
(-302,-30,l),
(-293,-163,o),
(-171,-226,o),
(80,-226,cs),
(340,-226,o),
(462,-147,o),
(462,22,cs),
(462,640,l),
(62,640,l)
);
}
);
width = 494;
},
{
anchors = (
{
name = top;
pos = (198,640);
},
{
name = topacute;
pos = (196,640);
}
);
layerId = "C0ED73B8-BF3D-4D9D-8EF3-572E464554C2";
shapes = (
{
closed = 1;
nodes = (
(62,-30,ls),
(62,-50,o),
(55,-60,o),
(42,-60,cs),
(27,-60,o),
(19,-50,o),
(18,-30,c),
(-188,-30,l),
(-181,-155,o),
(-88,-226,o),
(70,-226,cs),
(239,-226,o),
(334,-140,o),
(334,12,cs),
(334,640,l),
(62,640,l)
);
}
);
width = 366;
}
);
metricRight = SQR;
unicode = 567;
},
{
glyphname = o;
kernLeft = rnd_left;
kernRight = rnd_right;
lastChange = "2023-01-17 12:12:17 +0000";
layers = (
{
anchors = (
{
name = bottom;
pos = (355,0);
},
{
name = center;
pos = (355,300);
},
{
name = ogonek;
pos = (639,10);
},
{
name = top;
pos = (355,600);
},
{
name = topright;
pos = (690,600);
}
);
background = {
shapes = (
{
pos = (6,0);
ref = "en-cy";
}
);
};
layerId = m01;
shapes = (
{
closed = 1;
nodes = (
(536,-16,o),
(657,110,o),
(657,300,cs),
(657,490,o),
(536,616,o),
(355,616,cs),
(174,616,o),
(53,490,o),
(53,300,cs),
(53,110,o),
(174,-16,o),
(355,-16,cs)
);
},
{
closed = 1;
nodes = (
(236,88,o),
(163,169,o),
(163,300,cs),
(163,431,o),
(236,512,o),
(355,512,cs),
(474,512,o),
(547,431,o),
(547,300,cs),
(547,169,o),
(474,88,o),
(355,88,cs)
);
}
);
width = 710;
},
{
anchors = (
{
name = bottom;
pos = (359,0);
},
{
name = center;
pos = (359,310);
},
{
name = ogonek;
pos = (646,10);
},
{
name = top;
pos = (359,620);
},
{
name = topright;
pos = (698,620);
}
);
background = {
shapes = (
{
pos = (-2,0);
ref = n;
}
);
};
layerId = m002;
shapes = (
{
closed = 1;
nodes = (
(552,-20,o),
(681,112,o),
(681,310,cs),
(681,508,o),
(552,640,o),
(359,640,cs),
(166,640,o),
(37,508,o),
(37,310,cs),
(37,112,o),
(166,-20,o),
(359,-20,cs)
);
},
{
closed = 1;
nodes = (
(267,140,o),
(211,205,o),
(211,310,cs),
(211,415,o),
(267,480,o),
(359,480,cs),
(451,480,o),
(507,415,o),
(507,310,cs),
(507,205,o),
(451,140,o),
(359,140,cs)
);
}
);
width = 718;
},
{
anchors = (
{
name = bottom;
pos = (473,0);
},
{
name = center;
pos = (473,300);
},
{
name = ogonek;
pos = (851,10);
},
{
name = top;
pos = (473,600);
},
{
name = topright;
pos = (926,600);
}
);
background = {
shapes = (
{
pos = (25,0);
ref = "en-cy";
}
);
};
layerId = m003;
shapes = (
{
closed = 1;
nodes = (
(733,-16,o),
(893,104,o),
(893,300,cs),
(893,496,o),
(733,616,o),
(473,616,cs),
(213,616,o),
(53,496,o),
(53,300,cs),
(53,104,o),
(213,-16,o),
(473,-16,cs)
);
},
{
closed = 1;
nodes = (
(276,80,o),
(165,159,o),
(165,300,cs),
(165,441,o),
(276,520,o),
(473,520,cs),
(670,520,o),
(781,441,o),
(781,300,cs),
(781,159,o),
(670,80,o),
(473,80,cs)
);
}
);
width = 946;
},
{
anchors = (
{
name = bottom;
pos = (474,0);
},
{
name = center;
pos = (474,310);
},
{
name = ogonek;
pos = (853,10);
},
{
name = top;
pos = (474,620);
},
{
name = topright;
pos = (928,620);
}
);
background = {
shapes = (
{
pos = (3,0);
ref = n;
}
);
};
layerId = m004;
shapes = (
{
closed = 1;
nodes = (
(750,-20,o),
(906,99,o),
(906,310,cs),
(906,521,o),
(750,640,o),
(474,640,cs),
(198,640,o),
(42,521,o),
(42,310,cs),
(42,99,o),
(198,-20,o),
(474,-20,cs)
);
},
{
closed = 1;
nodes = (
(310,132,o),
(226,193,o),
(226,310,cs),
(226,427,o),
(310,488,o),
(474,488,cs),
(638,488,o),
(722,427,o),
(722,310,cs),
(722,193,o),
(638,132,o),
(474,132,cs)
);
}
);
width = 948;
},
{
anchors = (
{
name = bottom;
pos = (302,0);
},
{
name = center;
pos = (302,300);
},
{
name = ogonek;
pos = (544,10);
},
{
name = top;
pos = (302,600);
},
{
name = topright;
pos = (584,600);
}
);
background = {
shapes = (
{
pos = (12,0);
ref = "en-cy";
}
);
};
layerId = m005;
shapes = (
{
closed = 1;
nodes = (
(459,-16,o),
(556,104,o),
(556,300,cs),
(556,496,o),
(459,616,o),
(302,616,cs),
(145,616,o),
(48,496,o),
(48,300,cs),
(48,104,o),
(145,-16,o),
(302,-16,cs)
);
},
{
closed = 1;
nodes = (
(209,86,o),
(156,163,o),
(156,300,cs),
(156,437,o),
(209,514,o),
(302,514,cs),
(395,514,o),
(448,437,o),
(448,300,cs),
(448,163,o),
(395,86,o),
(302,86,cs)
);
}
);
width = 604;
},
{
anchors = (
{
name = bottom;
pos = (303,0);
},
{
name = center;
pos = (303,310);
},
{
name = ogonek;
pos = (545,10);
},
{
name = top;
pos = (303,620);
},
{
name = topright;
pos = (586,620);
}
);
layerId = m006;
shapes = (
{
closed = 1;
nodes = (
(477,-20,o),
(575,99,o),
(575,310,cs),
(575,521,o),
(477,640,o),
(303,640,cs),
(129,640,o),
(31,521,o),
(31,310,cs),
(31,99,o),
(129,-20,o),
(303,-20,cs)
);
},
{
closed = 1;
nodes = (
(236,134,o),
(201,194,o),
(201,310,cs),
(201,426,o),
(236,486,o),
(303,486,cs),
(370,486,o),
(405,426,o),
(405,310,cs),
(405,194,o),
(370,134,o),
(303,134,cs)
);
}
);
width = 606;
},
{
anchors = (
{
name = bottom;
pos = (326,0);
},
{
name = center;
pos = (326,294);
},
{
name = ogonek;
pos = (587,10);
},
{
name = top;
pos = (326,588);
},
{
name = topright;
pos = (632,588);
}
);
layerId = m007;
shapes = (
{
closed = 1;
nodes = (
(495,-12,o),
(599,104,o),
(599,294,cs),
(599,484,o),
(495,600,o),
(326,600,cs),
(157,600,o),
(53,484,o),
(53,294,cs),
(53,104,o),
(157,-12,o),
(326,-12,cs)
);
},
{
closed = 1;
nodes = (
(182,24,o),
(94,127,o),
(94,294,cs),
(94,461,o),
(182,564,o),
(326,564,cs),
(470,564,o),
(558,461,o),
(558,294,cs),
(558,127,o),
(470,24,o),
(326,24,cs)
);
}
);
width = 652;
},
{
anchors = (
{
name = bottom;
pos = (378,0);
},
{
name = center;
pos = (378,320);
},
{
name = ogonek;
pos = (680,10);
},
{
name = top;
pos = (378,640);
},
{
name = topright;
pos = (736,640);
}
);
background = {
shapes = (
{
pos = (10,0);
ref = "en-cy";
}
);
};
layerId = m008;
shapes = (
{
closed = 1;
nodes = (
(594,-26,o),
(738,112,o),
(738,320,cs),
(738,528,o),
(594,666,o),
(378,666,cs),
(162,666,o),
(18,528,o),
(18,320,cs),
(18,112,o),
(162,-26,o),
(378,-26,cs)
);
},
{
closed = 1;
nodes = (
(350,214,o),
(338,246,o),
(338,320,cs),
(338,394,o),
(350,426,o),
(378,426,cs),
(406,426,o),
(418,394,o),
(418,320,cs),
(418,246,o),
(406,214,o),
(378,214,cs)
);
}
);
width = 756;
},
{
anchors = (
{
name = bottom;
pos = (278,0);
},
{
name = center;
pos = (278,294);
},
{
name = ogonek;
pos = (500,10);
},
{
name = top;
pos = (278,588);
},
{
name = topright;
pos = (536,588);
}
);
layerId = m009;
shapes = (
{
closed = 1;
nodes = (
(425,-12,o),
(508,98,o),
(508,294,cs),
(508,490,o),
(425,600,o),
(278,600,cs),
(131,600,o),
(48,490,o),
(48,294,cs),
(48,98,o),
(131,-12,o),
(278,-12,cs)
);
},
{
closed = 1;
nodes = (
(156,24,o),
(88,121,o),
(88,294,cs),
(88,467,o),
(156,564,o),
(278,564,cs),
(400,564,o),
(468,467,o),
(468,294,cs),
(468,121,o),
(400,24,o),
(278,24,cs)
);
}
);
width = 556;
},
{
anchors = (
{
name = bottom;
pos = (439,0);
},
{
name = center;
pos = (439,294);
},
{
name = ogonek;
pos = (790,10);
},
{
name = top;
pos = (439,588);
},
{
name = topright;
pos = (858,588);
}
);
layerId = m010;
shapes = (
{
closed = 1;
nodes = (
(682,-12,o),
(819,98,o),
(819,294,cs),
(819,490,o),
(682,600,o),
(439,600,cs),
(196,600,o),
(59,490,o),
(59,294,cs),
(59,98,o),
(196,-12,o),
(439,-12,cs)
);
},
{
closed = 1;
nodes = (
(223,24,o),
(101,121,o),
(101,294,cs),
(101,467,o),
(223,564,o),
(439,564,cs),
(655,564,o),
(777,467,o),
(777,294,cs),
(777,121,o),
(655,24,o),
(439,24,cs)
);
}
);
width = 878;
},
{
anchors = (
{
name = bottom;
pos = (318,0);
},
{
name = center;
pos = (318,320);
},
{
name = ogonek;
pos = (572,10);
},
{
name = top;
pos = (318,640);
},
{
name = topright;
pos = (616,640);
}
);
background = {
shapes = (
{
ref = "en-cy";
}
);
};
layerId = "C0ED73B8-BF3D-4D9D-8EF3-572E464554C2";
shapes = (
{
closed = 1;
nodes = (
(510,-26,o),
(618,99,o),
(618,320,cs),
(618,541,o),
(510,666,o),
(318,666,cs),
(126,666,o),
(18,541,o),
(18,320,cs),
(18,99,o),
(126,-26,o),
(318,-26,cs)
);
},
{
closed = 1;
nodes = (
(296,194,o),
(290,219,o),
(290,320,cs),
(290,421,o),
(296,446,o),
(318,446,cs),
(340,446,o),
(346,421,o),
(346,320,cs),
(346,219,o),
(340,194,o),
(318,194,cs)
);
}
);
width = 636;
},
{
anchors = (
{
name = bottom;
pos = (518,0);
},
{
name = center;
pos = (518,320);
},
{
name = ogonek;
pos = (932,10);
},
{
name = top;
pos = (518,640);
},
{
name = topright;
pos = (1016,640);
}
);
background = {
shapes = (
{
pos = (10,0);
ref = "en-cy";
}
);
};
layerId = "434FAEF3-677A-47AD-84F7-3A7F762C5BD0";
shapes = (
{
closed = 1;
nodes = (
(848,-26,o),
(1018,92,o),
(1018,320,cs),
(1018,548,o),
(848,666,o),
(518,666,cs),
(188,666,o),
(18,548,o),
(18,320,cs),
(18,92,o),
(188,-26,o),
(518,-26,cs)
);
},
{
closed = 1;
nodes = (
(452,214,o),
(418,250,o),
(418,320,cs),
(418,390,o),
(452,426,o),
(518,426,cs),
(584,426,o),
(618,390,o),
(618,320,cs),
(618,250,o),
(584,214,o),
(518,214,cs)
);
}
);
width = 1036;
}
);
metricLeft = RND;
metricRight = RND;
unicode = 111;
},
{
glyphname = thorn;
kernLeft = left_ascender;
kernRight = rnd_right;
lastChange = "2022-10-11 19:42:09 +0000";
layers = (
{
layerId = m009;
shapes = (
{
closed = 1;
nodes = (
(456,-12,o),
(536,98,o),
(536,294,cs),
(536,490,o),
(456,600,o),
(313,600,cs),
(232,600,o),
(168,563,o),
(136,496,c),
(126,496,l),
(126,848,l),
(86,848,l),
(86,-200,l),
(126,-200,l),
(126,92,l),
(136,92,l),
(168,25,o),
(232,-12,o),
(313,-12,cs)
);
},
{
closed = 1;
nodes = (
(122,467,o),
(189,564,o),
(309,564,cs),
(429,564,o),
(496,467,o),
(496,294,cs),
(496,121,o),
(429,24,o),
(309,24,cs),
(189,24,o),
(122,121,o),
(122,294,cs)
);
}
);
width = 584;
},
{
layerId = m007;
shapes = (
{
closed = 1;
nodes = (
(529,-12,o),
(630,104,o),
(630,294,cs),
(630,484,o),
(529,600,o),
(365,600,cs),
(263,600,o),
(180,552,o),
(146,474,c),
(136,474,l),
(136,848,l),
(96,848,l),
(96,-200,l),
(136,-200,l),
(136,114,l),
(146,114,l),
(180,36,o),
(263,-12,o),
(365,-12,cs)
);
},
{
closed = 1;
nodes = (
(133,461,o),
(220,564,o),
(361,564,cs),
(502,564,o),
(589,461,o),
(589,294,cs),
(589,127,o),
(502,24,o),
(361,24,cs),
(220,24,o),
(133,127,o),
(133,294,cs)
);
}
);
width = 683;
},
{
layerId = m010;
shapes = (
{
closed = 1;
nodes = (
(714,-12,o),
(846,98,o),
(846,294,cs),
(846,490,o),
(714,600,o),
(478,600,cs),
(326,600,o),
(212,552,o),
(162,466,c),
(146,466,l),
(146,848,l),
(106,848,l),
(106,-200,l),
(146,-200,l),
(146,122,l),
(162,122,l),
(212,36,o),
(326,-12,o),
(478,-12,cs)
);
},
{
closed = 1;
nodes = (
(144,467,o),
(263,564,o),
(474,564,cs),
(685,564,o),
(804,467,o),
(804,294,cs),
(804,121,o),
(685,24,o),
(474,24,cs),
(263,24,o),
(144,121,o),
(144,294,cs)
);
}
);
width = 905;
},
{
layerId = m005;
shapes = (
{
closed = 1;
nodes = (
(498,-16,o),
(586,104,o),
(586,300,cs),
(586,496,o),
(498,616,o),
(355,616,cs),
(290,616,o),
(238,591,o),
(210,546,c),
(196,546,l),
(196,848,l),
(86,848,l),
(86,-200,l),
(196,-200,l),
(196,54,l),
(210,54,l),
(238,9,o),
(290,-16,o),
(355,-16,cs)
);
},
{
closed = 1;
nodes = (
(192,437,o),
(243,514,o),
(335,514,cs),
(427,514,o),
(478,437,o),
(478,300,cs),
(478,163,o),
(427,86,o),
(335,86,cs),
(243,86,o),
(192,163,o),
(192,300,cs)
);
}
);
width = 634;
},
{
layerId = m01;
shapes = (
{
closed = 1;
nodes = (
(574,-16,o),
(684,110,o),
(684,300,cs),
(684,490,o),
(574,616,o),
(408,616,cs),
(329,616,o),
(261,587,o),
(220,536,c),
(206,536,l),
(206,848,l),
(96,848,l),
(96,-200,l),
(206,-200,l),
(206,64,l),
(220,64,l),
(261,13,o),
(329,-16,o),
(408,-16,cs)
);
},
{
closed = 1;
nodes = (
(202,431,o),
(273,512,o),
(388,512,cs),
(503,512,o),
(574,431,o),
(574,300,cs),
(574,169,o),
(503,88,o),
(388,88,cs),
(273,88,o),
(202,169,o),
(202,300,cs)
);
}
);
width = 737;
},
{
layerId = m003;
shapes = (
{
closed = 1;
nodes = (
(770,-16,o),
(918,104,o),
(918,300,cs),
(918,496,o),
(770,616,o),
(528,616,cs),
(391,616,o),
(282,583,o),
(226,524,c),
(206,524,l),
(206,848,l),
(96,848,l),
(96,-200,l),
(206,-200,l),
(206,76,l),
(226,76,l),
(282,17,o),
(391,-16,o),
(528,-16,cs)
);
},
{
closed = 1;
nodes = (
(202,441,o),
(311,520,o),
(504,520,cs),
(697,520,o),
(806,441,o),
(806,300,cs),
(806,159,o),
(697,80,o),
(504,80,cs),
(311,80,o),
(202,159,o),
(202,300,cs)
);
}
);
width = 971;
},
{
layerId = m006;
shapes = (
{
closed = 1;
nodes = (
(523,-16,o),
(600,101,o),
(600,310,cs),
(600,519,o),
(523,636,o),
(387,636,cs),
(327,636,o),
(280,612,o),
(256,570,c),
(236,570,l),
(236,848,l),
(56,848,l),
(56,-200,l),
(236,-200,l),
(236,50,l),
(256,50,l),
(280,8,o),
(327,-16,o),
(387,-16,cs)
);
},
{
closed = 1;
nodes = (
(226,420,o),
(260,476,o),
(327,476,cs),
(394,476,o),
(428,420,o),
(428,310,cs),
(428,200,o),
(394,144,o),
(327,144,cs),
(260,144,o),
(226,200,o),
(226,310,cs)
);
}
);
width = 631;
},
{
layerId = m002;
shapes = (
{
closed = 1;
nodes = (
(593,-16,o),
(702,114,o),
(702,310,cs),
(702,506,o),
(593,636,o),
(430,636,cs),
(356,636,o),
(294,607,o),
(266,560,c),
(246,560,l),
(246,848,l),
(66,848,l),
(66,-200,l),
(246,-200,l),
(246,60,l),
(266,60,l),
(294,13,o),
(356,-16,o),
(430,-16,cs)
);
},
{
closed = 1;
nodes = (
(234,410,o),
(289,472,o),
(380,472,cs),
(471,472,o),
(526,410,o),
(526,310,cs),
(526,210,o),
(471,148,o),
(380,148,cs),
(289,148,o),
(234,210,o),
(234,310,cs)
);
}
);
width = 739;
},
{
layerId = m004;
shapes = (
{
closed = 1;
nodes = (
(782,-20,o),
(924,105,o),
(924,310,cs),
(924,515,o),
(782,640,o),
(551,640,cs),
(422,640,o),
(326,610,o),
(286,558,c),
(256,558,l),
(256,848,l),
(76,848,l),
(76,-200,l),
(256,-200,l),
(256,62,l),
(286,62,l),
(326,10,o),
(422,-20,o),
(551,-20,cs)
);
},
{
closed = 1;
nodes = (
(244,427,o),
(328,488,o),
(491,488,cs),
(654,488,o),
(738,427,o),
(738,310,cs),
(738,193,o),
(654,132,o),
(491,132,cs),
(328,132,o),
(244,193,o),
(244,310,cs)
);
}
);
width = 966;
},
{
layerId = "C0ED73B8-BF3D-4D9D-8EF3-572E464554C2";
shapes = (
{
closed = 1;
nodes = (
(568,-16,o),
(624,92,o),
(624,320,cs),
(624,548,o),
(568,656,o),
(448,656,cs),
(389,656,o),
(342,618,o),
(324,556,c),
(304,556,l),
(304,848,l),
(32,848,l),
(32,-200,l),
(304,-200,l),
(304,84,l),
(324,84,l),
(342,22,o),
(389,-16,o),
(448,-16,cs)
);
},
{
closed = 1;
nodes = (
(294,406,o),
(300,428,o),
(322,428,cs),
(344,428,o),
(350,406,o),
(350,320,cs),
(350,234,o),
(344,212,o),
(322,212,cs),
(300,212,o),
(294,234,o),
(294,320,cs)
);
}
);
width = 642;
},
{
layerId = m008;
shapes = (
{
closed = 1;
nodes = (
(663,-16,o),
(744,105,o),
(744,320,cs),
(744,535,o),
(663,656,o),
(520,656,cs),
(447,656,o),
(390,614,o),
(372,546,c),
(352,546,l),
(352,848,l),
(32,848,l),
(32,-200,l),
(352,-200,l),
(352,94,l),
(372,94,l),
(390,26,o),
(447,-16,o),
(520,-16,cs)
);
},
{
closed = 1;
nodes = (
(344,394,o),
(356,426,o),
(384,426,cs),
(412,426,o),
(424,394,o),
(424,320,cs),
(424,246,o),
(412,214,o),
(384,214,cs),
(356,214,o),
(344,246,o),
(344,320,cs)
);
}
);
width = 762;
},
{
layerId = "434FAEF3-677A-47AD-84F7-3A7F762C5BD0";
shapes = (
{
closed = 1;
nodes = (
(905,-16,o),
(1020,105,o),
(1020,320,cs),
(1020,535,o),
(905,656,o),
(700,656,cs),
(599,656,o),
(508,612,o),
(472,546,c),
(432,546,l),
(432,848,l),
(32,848,l),
(32,-200,l),
(432,-200,l),
(432,94,l),
(472,94,l),
(508,28,o),
(599,-16,o),
(700,-16,cs)
);
},
{
closed = 1;
nodes = (
(420,377,o),
(454,406,o),
(520,406,cs),
(586,406,o),
(620,377,o),
(620,320,cs),
(620,263,o),
(586,234,o),
(520,234,cs),
(454,234,o),
(420,263,o),
(420,320,cs)
);
}
);
width = 1038;
}
);
metricLeft = SQR;
metricRight = RND;
unicode = 254;
},
{
glyphname = r;
kernLeft = sqr_left;
kernRight = n_right;
lastChange = "2022-09-17 12:39:53 +0000";
layers = (
{
anchors = (
{
name = bottom;
pos = (151,0);
},
{
name = top;
pos = (300,600);
}
);
background = {
shapes = (
{
ref = n;
}
);
};
layerId = m01;
shapes = (
{
closed = 1;
nodes = (
(206,0,l),
(206,320,ls),
(206,451,o),
(243,512,o),
(323,512,cs),
(385,512,o),
(414,474,o),
(414,394,cs),
(414,362,l),
(528,362,l),
(528,410,ls),
(528,538,o),
(462,616,o),
(355,616,cs),
(296,616,o),
(248,592,o),
(220,550,c),
(206,550,l),
(206,600,l),
(96,600,l),
(96,0,l)
);
}
);
width = 560;
},
{
anchors = (
{
name = bottom;
pos = (156,0);
},
{
name = top;
pos = (322,620);
}
);
layerId = m002;
shapes = (
{
closed = 1;
nodes = (
(246,0,l),
(246,278,ls),
(246,409,o),
(277,470,o),
(343,470,cs),
(394,470,o),
(418,437,o),
(418,366,cs),
(418,312,l),
(602,312,l),
(602,380,ls),
(602,552,o),
(538,640,o),
(413,640,cs),
(349,640,o),
(293,610,o),
(266,560,c),
(246,560,l),
(246,620,l),
(66,620,l),
(66,0,l)
);
}
);
width = 624;
},
{
anchors = (
{
name = bottom;
pos = (151,0);
},
{
name = top;
pos = (394,600);
}
);
layerId = m003;
shapes = (
{
closed = 1;
nodes = (
(206,0,l),
(206,280,ls),
(206,438,o),
(274,512,o),
(417,512,cs),
(529,512,o),
(582,471,o),
(582,384,cs),
(582,362,l),
(696,362,l),
(696,400,ls),
(696,538,o),
(606,616,o),
(447,616,cs),
(346,616,o),
(266,585,o),
(226,530,c),
(206,530,l),
(206,600,l),
(96,600,l),
(96,0,l)
);
}
);
width = 728;
},
{
anchors = (
{
name = bottom;
pos = (166,0);
},
{
name = top;
pos = (429,620);
}
);
layerId = m004;
shapes = (
{
closed = 1;
nodes = (
(256,0,l),
(256,240,ls),
(256,398,o),
(323,480,o),
(452,480,cs),
(554,480,o),
(606,435,o),
(606,348,cs),
(606,312,l),
(792,312,l),
(792,368,ls),
(792,542,o),
(690,640,o),
(508,640,cs),
(404,640,o),
(328,609,o),
(286,550,c),
(256,550,l),
(256,620,l),
(76,620,l),
(76,0,l)
);
}
);
width = 818;
},
{
anchors = (
{
name = bottom;
pos = (141,0);
},
{
name = top;
pos = (259,600);
}
);
layerId = m005;
shapes = (
{
closed = 1;
nodes = (
(196,0,l),
(196,340,ls),
(196,457,o),
(222,512,o),
(278,512,cs),
(317,512,o),
(336,481,o),
(336,414,cs),
(336,382,l),
(450,382,l),
(450,430,ls),
(450,549,o),
(401,616,o),
(314,616,cs),
(269,616,o),
(229,594,o),
(210,558,c),
(196,558,l),
(196,600,l),
(86,600,l),
(86,0,l)
);
}
);
width = 478;
},
{
anchors = (
{
name = bottom;
pos = (146,0);
},
{
name = top;
pos = (273,620);
}
);
layerId = m006;
shapes = (
{
closed = 1;
nodes = (
(236,0,l),
(236,306,ls),
(236,419,o),
(251,468,o),
(287,468,cs),
(314,468,o),
(326,446,o),
(326,394,cs),
(326,342,l),
(508,342,l),
(508,414,ls),
(508,568,o),
(465,640,o),
(374,640,cs),
(319,640,o),
(276,611,o),
(256,560,c),
(236,560,l),
(236,620,l),
(56,620,l),
(56,0,l)
);
}
);
width = 526;
},
{
anchors = (
{
name = bottom;
pos = (116,0);
},
{
name = top;
pos = (279,588);
}
);
layerId = m007;
shapes = (
{
closed = 1;
nodes = (
(136,0,l),
(136,326,ls),
(136,477,o),
(198,562,o),
(309,562,cs),
(398,562,o),
(444,512,o),
(444,414,cs),
(444,362,l),
(486,362,l),
(486,426,ls),
(486,534,o),
(422,600,o),
(317,600,cs),
(235,600,o),
(177,565,o),
(146,498,c),
(136,498,l),
(136,588,l),
(96,588,l),
(96,0,l)
);
}
);
width = 518;
},
{
anchors = (
{
name = bottom;
pos = (192,0);
},
{
name = top;
pos = (370,640);
}
);
background = {
shapes = (
{
ref = n;
}
);
};
layerId = m008;
shapes = (
{
closed = 1;
nodes = (
(352,0,l),
(352,320,ls),
(352,355,o),
(358,370,o),
(372,370,cs),
(383,370,o),
(388,361,o),
(388,340,cs),
(388,252,l),
(690,252,l),
(690,430,ls),
(690,579,o),
(634,656,o),
(526,656,cs),
(440,656,o),
(391,606,o),
(372,500,c),
(352,500,l),
(352,640,l),
(32,640,l),
(32,0,l)
);
}
);
width = 700;
},
{
anchors = (
{
name = bottom;
pos = (106,0);
},
{
name = top;
pos = (242,588);
}
);
layerId = m009;
shapes = (
{
closed = 1;
nodes = (
(126,0,l),
(126,346,ls),
(126,490,o),
(175,564,o),
(269,564,cs),
(340,564,o),
(374,522,o),
(374,434,cs),
(374,362,l),
(416,362,l),
(416,446,ls),
(416,545,o),
(365,600,o),
(275,600,cs),
(209,600,o),
(162,573,o),
(136,520,c),
(126,520,l),
(126,588,l),
(86,588,l),
(86,0,l)
);
}
);
width = 444;
},
{
anchors = (
{
name = bottom;
pos = (126,0);
},
{
name = top;
pos = (373,588);
}
);
layerId = m010;
shapes = (
{
closed = 1;
nodes = (
(146,0,l),
(146,286,ls),
(146,468,o),
(231,562,o),
(396,562,cs),
(540,562,o),
(608,502,o),
(608,374,cs),
(608,362,l),
(650,362,l),
(650,386,ls),
(650,527,o),
(566,600,o),
(402,600,cs),
(283,600,o),
(206,562,o),
(162,480,c),
(146,480,l),
(146,588,l),
(106,588,l),
(106,0,l)
);
}
);
width = 686;
},
{
anchors = (
{
name = bottom;
pos = (232,0);
},
{
name = top;
pos = (490,640);
}
);
background = {
shapes = (
{
ref = n;
}
);
};
layerId = "434FAEF3-677A-47AD-84F7-3A7F762C5BD0";
shapes = (
{
closed = 1;
nodes = (
(432,0,l),
(432,276,ls),
(432,326,o),
(445,350,o),
(472,350,cs),
(496,350,o),
(508,333,o),
(508,296,cs),
(508,232,l),
(910,232,l),
(910,390,ls),
(910,566,o),
(832,656,o),
(680,656,cs),
(580,656,o),
(509,610,o),
(472,520,c),
(432,520,l),
(432,640,l),
(32,640,l),
(32,0,l)
);
}
);
width = 920;
},
{
anchors = (
{
name = bottom;
pos = (168,0);
},
{
name = top;
pos = (321,640);
}
);
background = {
shapes = (
{
ref = n;
}
);
};
layerId = "C0ED73B8-BF3D-4D9D-8EF3-572E464554C2";
shapes = (
{
closed = 1;
nodes = (
(304,0,l),
(304,340,ls),
(304,375,o),
(310,390,o),
(324,390,cs),
(335,390,o),
(340,381,o),
(340,360,cs),
(340,272,l),
(592,272,l),
(592,470,ls),
(592,589,o),
(542,656,o),
(454,656,cs),
(383,656,o),
(336,607,o),
(324,520,c),
(304,520,l),
(304,640,l),
(32,640,l),
(32,0,l)
);
}
);
width = 602;
}
);
metricLeft = SQR;
metricRight = "=TNG*2";
unicode = 114;
},
{
glyphname = s;
kernLeft = s_left;
kernRight = s_right;
lastChange = "2023-01-17 11:40:19 +0000";
layers = (
{
anchors = (
{
name = bottom;
pos = (332,0);
},
{
name = top;
pos = (332,600);
}
);
background = {
shapes = (
{
pos = (-31,0);
ref = o;
}
);
};
layerId = m01;
shapes = (
{
closed = 1;
nodes = (
(64,184,l),
(70,58,o),
(168,-16,o),
(330,-16,cs),
(489,-16,o),
(582,54,o),
(582,174,cs),
(582,275,o),
(520,328,o),
(378,348,cs),
(292,360,ls),
(216,371,o),
(178,393,o),
(178,428,cs),
(178,484,o),
(229,512,o),
(328,512,cs),
(423,512,o),
(482,473,o),
(502,404,c),
(602,404,l),
(596,537,o),
(496,616,o),
(330,616,cs),
(164,616,o),
(68,546,o),
(68,426,cs),
(68,325,o),
(130,272,o),
(272,252,cs),
(358,240,ls),
(434,229,o),
(472,207,o),
(472,172,cs),
(472,116,o),
(425,88,o),
(332,88,cs),
(242,88,o),
(185,123,o),
(165,184,c)
);
}
);
width = 648;
},
{
anchors = (
{
name = bottom;
pos = (340,0);
},
{
name = top;
pos = (340,620);
}
);
background = {
shapes = (
{
pos = (-24,0);
ref = o;
}
);
};
layerId = m002;
shapes = (
{
closed = 1;
nodes = (
(44,194,l),
(57,53,o),
(158,-20,o),
(340,-20,cs),
(515,-20,o),
(622,61,o),
(622,193,cs),
(622,315,o),
(554,373,o),
(396,385,cs),
(290,393,ls),
(238,397,o),
(218,410,o),
(218,434,cs),
(218,470,o),
(256,488,o),
(332,488,cs),
(406,488,o),
(451,460,o),
(464,414,c),
(638,414,l),
(630,563,o),
(526,640,o),
(332,640,cs),
(153,640,o),
(44,559,o),
(44,427,cs),
(44,305,o),
(112,248,o),
(270,236,cs),
(376,228,ls),
(433,224,o),
(448,210,o),
(448,186,cs),
(448,150,o),
(412,132,o),
(340,132,cs),
(278,132,o),
(236,156,o),
(218,194,c)
);
}
);
width = 670;
},
{
anchors = (
{
name = bottom;
pos = (433,0);
},
{
name = top;
pos = (433,600);
}
);
background = {
shapes = (
{
pos = (-48,0);
ref = o;
}
);
};
layerId = m003;
shapes = (
{
closed = 1;
nodes = (
(64,184,l),
(74,52,o),
(198,-16,o),
(427,-16,cs),
(655,-16,o),
(784,55,o),
(784,181,cs),
(784,288,o),
(713,337,o),
(550,346,cs),
(322,358,ls),
(223,363,o),
(180,382,o),
(180,421,cs),
(180,486,o),
(264,520,o),
(427,520,cs),
(581,520,o),
(668,480,o),
(698,394,c),
(804,394,l),
(796,541,o),
(668,616,o),
(427,616,cs),
(197,616,o),
(68,545,o),
(68,419,cs),
(68,311,o),
(139,262,o),
(302,253,cs),
(530,241,ls),
(629,236,o),
(672,218,o),
(672,179,cs),
(672,114,o),
(589,80,o),
(427,80,cs),
(285,80,o),
(204,113,o),
(172,184,c)
);
}
);
width = 850;
},
{
anchors = (
{
name = bottom;
pos = (449,0);
},
{
name = top;
pos = (449,620);
}
);
background = {
shapes = (
{
pos = (-25,0);
ref = o;
}
);
};
layerId = m004;
shapes = (
{
closed = 1;
nodes = (
(50,194,l),
(61,48,o),
(189,-20,o),
(452,-20,cs),
(712,-20,o),
(846,52,o),
(846,192,cs),
(846,314,o),
(766,374,o),
(596,382,cs),
(328,394,ls),
(265,397,o),
(238,409,o),
(238,433,cs),
(238,473,o),
(306,492,o),
(450,492,cs),
(595,492,o),
(665,469,o),
(682,414,c),
(862,414,l),
(852,568,o),
(720,640,o),
(450,640,cs),
(189,640,o),
(54,567,o),
(54,426,cs),
(54,305,o),
(134,247,o),
(304,239,cs),
(572,227,ls),
(635,224,o),
(662,210,o),
(662,185,cs),
(662,146,o),
(595,128,o),
(452,128,cs),
(317,128,o),
(252,148,o),
(234,194,c)
);
}
);
width = 898;
},
{
anchors = (
{
name = bottom;
pos = (283,0);
},
{
name = top;
pos = (283,600);
}
);
background = {
shapes = (
{
pos = (-20,0);
ref = o;
}
);
};
layerId = m005;
shapes = (
{
closed = 1;
nodes = (
(58,184,l),
(64,58,o),
(146,-16,o),
(277,-16,cs),
(405,-16,o),
(493,59,o),
(493,170,cs),
(493,274,o),
(432,336,o),
(311,351,cs),
(264,357,ls),
(200,365,o),
(170,391,o),
(170,433,cs),
(170,481,o),
(210,514,o),
(271,514,cs),
(350,514,o),
(396,474,o),
(409,394,c),
(507,394,l),
(503,534,o),
(419,616,o),
(281,616,cs),
(151,616,o),
(62,541,o),
(62,430,cs),
(62,326,o),
(123,264,o),
(244,249,cs),
(291,243,ls),
(348,236,o),
(385,203,o),
(385,165,cs),
(385,120,o),
(346,86,o),
(287,86,cs),
(216,86,o),
(173,119,o),
(158,184,c)
);
}
);
width = 549;
},
{
anchors = (
{
name = bottom;
pos = (287,0);
},
{
name = top;
pos = (287,620);
}
);
background = {
shapes = (
{
pos = (-22,0);
ref = o;
}
);
};
layerId = m006;
shapes = (
{
closed = 1;
nodes = (
(37,194,l),
(47,53,o),
(132,-20,o),
(289,-20,cs),
(435,-20,o),
(525,61,o),
(525,193,cs),
(525,313,o),
(456,376,o),
(309,389,cs),
(265,393,ls),
(227,396,o),
(209,410,o),
(209,437,cs),
(209,471,o),
(234,490,o),
(279,490,cs),
(333,490,o),
(360,467,o),
(375,414,c),
(535,414,l),
(527,563,o),
(440,640,o),
(279,640,cs),
(130,640,o),
(39,559,o),
(39,427,cs),
(39,307,o),
(108,244,o),
(255,231,cs),
(299,227,ls),
(337,224,o),
(355,210,o),
(355,183,cs),
(355,149,o),
(331,130,o),
(289,130,cs),
(238,130,o),
(212,149,o),
(197,194,c)
);
}
);
width = 562;
},
{
anchors = (
{
name = bottom;
pos = (303,0);
},
{
name = top;
pos = (303,588);
}
);
background = {
shapes = (
{
pos = (-26,0);
ref = "en-cy";
}
);
};
layerId = m007;
shapes = (
{
closed = 1;
nodes = (
(64,184,l),
(73,59,o),
(159,-12,o),
(302,-12,cs),
(442,-12,o),
(528,54,o),
(528,162,cs),
(528,251,o),
(470,298,o),
(346,310,cs),
(260,318,ls),
(157,328,o),
(109,362,o),
(109,426,cs),
(109,512,o),
(182,564,o),
(302,564,cs),
(421,564,o),
(493,503,o),
(501,394,c),
(540,394,l),
(532,525,o),
(445,600,o),
(302,600,cs),
(157,600,o),
(68,534,o),
(68,426,cs),
(68,337,o),
(126,290,o),
(250,278,cs),
(336,270,ls),
(439,260,o),
(487,226,o),
(487,162,cs),
(487,76,o),
(417,24,o),
(302,24,cs),
(184,24,o),
(113,82,o),
(104,184,c)
);
}
);
width = 586;
},
{
anchors = (
{
name = bottom;
pos = (365,0);
},
{
name = top;
pos = (365,640);
}
);
background = {
shapes = (
{
pos = (-22,0);
ref = o;
}
);
};
layerId = m008;
shapes = (
{
closed = 1;
nodes = (
(22,266,l),
(30,73,o),
(146,-26,o),
(360,-26,cs),
(563,-26,o),
(686,60,o),
(686,198,cs),
(686,290,o),
(635,336,o),
(536,343,cs),
(362,356,ls),
(330,358,o),
(316,368,o),
(316,390,cs),
(316,413,o),
(333,426,o),
(362,426,cs),
(396,426,o),
(412,410,o),
(414,374,c),
(698,374,l),
(690,565,o),
(570,666,o),
(358,666,cs),
(151,666,o),
(26,581,o),
(26,442,cs),
(26,351,o),
(77,304,o),
(178,297,cs),
(359,284,ls),
(385,282,o),
(396,272,o),
(396,250,cs),
(396,227,o),
(382,214,o),
(359,214,cs),
(328,214,o),
(314,230,o),
(312,266,c)
);
}
);
width = 713;
},
{
anchors = (
{
name = bottom;
pos = (260,0);
},
{
name = top;
pos = (260,588);
}
);
background = {
shapes = (
{
pos = (-32,0);
ref = "en-cy";
}
);
};
layerId = m009;
shapes = (
{
closed = 1;
nodes = (
(58,184,l),
(70,55,o),
(138,-12,o),
(259,-12,cs),
(377,-12,o),
(450,53,o),
(450,160,cs),
(450,246,o),
(396,299,o),
(298,310,cs),
(224,318,ls),
(145,327,o),
(102,364,o),
(102,428,cs),
(102,513,o),
(160,564,o),
(255,564,cs),
(356,564,o),
(412,507,o),
(420,394,c),
(458,394,l),
(450,529,o),
(379,600,o),
(255,600,cs),
(135,600,o),
(62,535,o),
(62,428,cs),
(62,342,o),
(118,288,o),
(214,278,cs),
(288,270,ls),
(367,261,o),
(410,224,o),
(410,160,cs),
(410,76,o),
(353,24,o),
(259,24,cs),
(162,24,o),
(107,78,o),
(97,184,c)
);
}
);
width = 500;
},
{
anchors = (
{
name = bottom;
pos = (404,0);
},
{
name = top;
pos = (404,588);
}
);
background = {
shapes = (
{
pos = (-53,0);
ref = "en-cy";
}
);
};
layerId = m010;
shapes = (
{
closed = 1;
nodes = (
(71,184,l),
(81,55,o),
(193,-12,o),
(400,-12,cs),
(612,-12,o),
(721,49,o),
(721,166,cs),
(721,255,o),
(654,298,o),
(497,308,cs),
(313,320,ls),
(179,329,o),
(121,360,o),
(121,422,cs),
(121,516,o),
(216,564,o),
(400,564,cs),
(582,564,o),
(683,506,o),
(695,394,c),
(735,394,l),
(721,530,o),
(607,600,o),
(400,600,cs),
(188,600,o),
(79,539,o),
(79,422,cs),
(79,333,o),
(146,290,o),
(303,280,cs),
(487,268,ls),
(621,259,o),
(679,228,o),
(679,166,cs),
(679,72,o),
(584,24,o),
(400,24,cs),
(218,24,o),
(120,78,o),
(112,184,c)
);
}
);
width = 787;
},
{
anchors = (
{
name = bottom;
pos = (492,0);
},
{
name = top;
pos = (492,640);
}
);
background = {
shapes = (
{
pos = (-30,0);
ref = o;
}
);
};
layerId = "434FAEF3-677A-47AD-84F7-3A7F762C5BD0";
shapes = (
{
closed = 1;
nodes = (
(22,266,l),
(30,62,o),
(172,-26,o),
(489,-26,cs),
(793,-26,o),
(947,50,o),
(947,198,cs),
(947,282,o),
(898,339,o),
(795,342,cs),
(476,352,ls),
(439,353,o),
(420,364,o),
(420,386,cs),
(420,413,o),
(446,426,o),
(496,426,cs),
(556,426,o),
(583,410,o),
(585,374,c),
(961,374,l),
(953,578,o),
(812,666,o),
(495,666,cs),
(185,666,o),
(28,590,o),
(28,442,cs),
(28,358,o),
(77,301,o),
(180,298,cs),
(504,288,ls),
(538,287,o),
(555,276,o),
(555,254,cs),
(555,227,o),
(530,214,o),
(481,214,cs),
(428,214,o),
(404,230,o),
(402,266,c)
);
}
);
width = 976;
},
{
anchors = (
{
name = bottom;
pos = (306,0);
},
{
name = top;
pos = (306,640);
}
);
background = {
shapes = (
{
pos = (-20,0);
ref = o;
}
);
};
layerId = "C0ED73B8-BF3D-4D9D-8EF3-572E464554C2";
shapes = (
{
closed = 1;
nodes = (
(22,266,l),
(26,79,o),
(127,-26,o),
(302,-26,cs),
(462,-26,o),
(572,61,o),
(572,188,cs),
(572,275,o),
(524,331,o),
(444,340,cs),
(307,355,ls),
(280,358,o),
(264,374,o),
(264,400,cs),
(264,430,o),
(277,446,o),
(302,446,cs),
(331,446,o),
(342,427,o),
(344,374,c),
(580,374,l),
(576,561,o),
(474,666,o),
(296,666,cs),
(134,666,o),
(24,579,o),
(24,452,cs),
(24,365,o),
(72,308,o),
(152,300,cs),
(300,285,ls),
(320,283,o),
(332,267,o),
(332,240,cs),
(332,210,o),
(321,194,o),
(300,194,cs),
(274,194,o),
(264,213,o),
(262,266,c)
);
}
);
width = 595;
}
);
metricLeft = "=RND*1.2";
metricRight = "=c*1.4";
unicode = 115;
},
{
glyphname = germandbls;
kernLeft = SQR_LEFT;
lastChange = "2022-10-11 19:44:00 +0000";
layers = (
{
background = {
shapes = (
{
ref = b;
}
);
};
layerId = m009;
shapes = (
{
closed = 1;
nodes = (
(126,0,l),
(126,588,ls),
(126,739,o),
(186,824,o),
(292,824,cs),
(382,824,o),
(442,752,o),
(442,643,cs),
(442,531,o),
(385,462,o),
(292,462,cs),
(230,462,l),
(230,430,l),
(296,430,ls),
(419,430,o),
(494,355,o),
(494,233,cs),
(494,111,o),
(419,36,o),
(296,36,cs),
(230,36,l),
(230,0,l),
(300,0,ls),
(446,0,o),
(536,87,o),
(536,229,cs),
(536,342,o),
(481,425,o),
(390,449,c),
(390,459,l),
(447,487,o),
(482,558,o),
(482,645,cs),
(482,774,o),
(406,860,o),
(292,860,cs),
(160,860,o),
(86,762,o),
(86,588,cs),
(86,0,l)
);
}
);
width = 584;
},
{
background = {
shapes = (
{
ref = b;
}
);
};
layerId = m007;
shapes = (
{
closed = 1;
nodes = (
(136,0,l),
(136,588,ls),
(136,739,o),
(209,824,o),
(338,824,cs),
(450,824,o),
(524,752,o),
(524,643,cs),
(524,531,o),
(453,462,o),
(338,462,cs),
(262,462,l),
(262,430,l),
(368,430,ls),
(504,430,o),
(588,355,o),
(588,233,cs),
(588,111,o),
(504,36,o),
(368,36,cs),
(262,36,l),
(262,0,l),
(372,0,ls),
(532,0,o),
(630,87,o),
(630,229,cs),
(630,345,o),
(566,430,o),
(462,452,c),
(462,462,l),
(525,494,o),
(564,564,o),
(564,645,cs),
(564,774,o),
(474,860,o),
(338,860,cs),
(183,860,o),
(96,762,o),
(96,588,cs),
(96,0,l)
);
}
);
width = 683;
},
{
background = {
shapes = (
{
ref = b;
}
);
};
layerId = m010;
shapes = (
{
closed = 1;
nodes = (
(146,0,l),
(146,588,ls),
(146,748,o),
(240,824,o),
(441,824,cs),
(620,824,o),
(720,759,o),
(720,643,cs),
(720,524,o),
(625,462,o),
(441,462,cs),
(302,462,l),
(302,430,l),
(481,430,ls),
(694,430,o),
(804,363,o),
(804,233,cs),
(804,103,o),
(694,36,o),
(481,36,cs),
(302,36,l),
(302,0,l),
(485,0,ls),
(723,0,o),
(846,78,o),
(846,229,cs),
(846,352,o),
(773,428,o),
(630,452,c),
(630,462,l),
(716,493,o),
(760,555,o),
(760,645,cs),
(760,783,o),
(645,860,o),
(441,860,cs),
(213,860,o),
(106,773,o),
(106,588,cs),
(106,0,l)
);
}
);
width = 905;
},
{
background = {
shapes = (
{
ref = b;
}
);
};
layerId = m005;
shapes = (
{
closed = 1;
nodes = (
(196,0,l),
(196,578,ls),
(196,696,o),
(238,762,o),
(314,762,cs),
(378,762,o),
(420,708,o),
(420,628,cs),
(420,545,o),
(382,494,o),
(320,494,cs),
(288,494,l),
(288,398,l),
(338,398,ls),
(422,398,o),
(474,342,o),
(474,250,cs),
(474,158,o),
(422,102,o),
(338,102,cs),
(288,102,l),
(288,0,l),
(358,0,ls),
(499,0,o),
(586,92,o),
(586,242,cs),
(586,357,o),
(531,439,o),
(442,458,c),
(442,476,l),
(495,504,o),
(528,566,o),
(528,638,cs),
(528,774,o),
(442,864,o),
(314,864,cs),
(168,864,o),
(86,765,o),
(86,588,cs),
(86,0,l)
);
}
);
width = 634;
},
{
background = {
shapes = (
{
ref = b;
}
);
};
layerId = m01;
shapes = (
{
closed = 1;
nodes = (
(206,0,l),
(206,578,ls),
(206,691,o),
(268,760,o),
(370,760,cs),
(450,760,o),
(508,705,o),
(508,628,cs),
(508,549,o),
(453,496,o),
(370,496,cs),
(334,496,l),
(334,396,l),
(402,396,ls),
(503,396,o),
(570,338,o),
(570,250,cs),
(570,162,o),
(503,104,o),
(402,104,cs),
(334,104,l),
(334,0,l),
(422,0,ls),
(579,0,o),
(684,97,o),
(684,242,cs),
(684,355,o),
(624,437,o),
(526,458,c),
(526,476,l),
(583,505,o),
(618,567,o),
(618,638,cs),
(618,769,o),
(514,864,o),
(370,864,cs),
(200,864,o),
(96,759,o),
(96,588,cs),
(96,0,l)
);
}
);
width = 737;
},
{
background = {
shapes = (
{
ref = b;
}
);
};
layerId = m003;
shapes = (
{
closed = 1;
nodes = (
(206,0,l),
(206,578,ls),
(206,703,o),
(298,768,o),
(477,768,cs),
(634,768,o),
(722,718,o),
(722,630,cs),
(722,539,o),
(639,492,o),
(477,492,cs),
(362,492,l),
(362,400,l),
(519,400,ls),
(713,400,o),
(804,351,o),
(804,248,cs),
(804,145,o),
(713,96,o),
(519,96,cs),
(362,96,l),
(362,0,l),
(539,0,ls),
(797,0,o),
(918,79,o),
(918,246,cs),
(918,359,o),
(847,436,o),
(721,460,c),
(721,478,l),
(792,506,o),
(832,564,o),
(832,638,cs),
(832,783,o),
(704,864,o),
(477,864,cs),
(226,864,o),
(96,770,o),
(96,588,cs),
(96,0,l)
);
}
);
width = 971;
},
{
background = {
shapes = (
{
ref = b;
}
);
};
layerId = m006;
shapes = (
{
closed = 1;
nodes = (
(236,0,l),
(236,578,ls),
(236,668,o),
(260,714,o),
(308,714,cs),
(346,714,o),
(370,676,o),
(370,614,cs),
(370,554,o),
(348,520,o),
(308,520,cs),
(296,520,l),
(296,372,l),
(325,372,ls),
(387,372,o),
(422,334,o),
(422,266,cs),
(422,194,o),
(387,154,o),
(325,154,cs),
(296,154,l),
(296,0,l),
(345,0,ls),
(503,0,o),
(600,96,o),
(600,252,cs),
(600,364,o),
(546,442,o),
(459,458,c),
(459,476,l),
(508,501,o),
(538,563,o),
(538,638,cs),
(538,776,o),
(446,868,o),
(308,868,cs),
(147,868,o),
(56,767,o),
(56,588,cs),
(56,0,l)
);
}
);
width = 631;
},
{
background = {
shapes = (
{
ref = b;
}
);
};
layerId = m002;
shapes = (
{
closed = 1;
nodes = (
(246,0,l),
(246,578,ls),
(246,661,o),
(290,708,o),
(364,708,cs),
(431,708,o),
(472,672,o),
(472,614,cs),
(472,554,o),
(433,520,o),
(364,520,cs),
(344,520,l),
(344,372,l),
(401,372,ls),
(480,372,o),
(524,334,o),
(524,266,cs),
(524,198,o),
(480,160,o),
(401,160,cs),
(344,160,l),
(344,0,l),
(421,0,ls),
(595,0,o),
(702,96,o),
(702,252,cs),
(702,360,o),
(642,438,o),
(545,458,c),
(545,476,l),
(604,506,o),
(640,568,o),
(640,638,cs),
(640,771,o),
(524,868,o),
(364,868,cs),
(173,868,o),
(66,767,o),
(66,588,cs),
(66,0,l)
);
}
);
width = 739;
},
{
background = {
shapes = (
{
ref = b;
}
);
};
layerId = m004;
shapes = (
{
closed = 1;
nodes = (
(256,0,l),
(256,578,ls),
(256,672,o),
(328,716,o),
(480,716,cs),
(604,716,o),
(674,680,o),
(674,616,cs),
(674,548,o),
(612,516,o),
(480,516,cs),
(372,516,l),
(372,376,l),
(517,376,ls),
(673,376,o),
(746,340,o),
(746,264,cs),
(746,188,o),
(673,152,o),
(517,152,cs),
(372,152,l),
(372,0,l),
(537,0,ls),
(785,0,o),
(924,91,o),
(924,252,cs),
(924,366,o),
(855,440,o),
(731,458,c),
(731,476,l),
(802,500,o),
(842,558,o),
(842,638,cs),
(842,781,o),
(704,868,o),
(480,868,cs),
(213,868,o),
(76,773,o),
(76,588,cs),
(76,0,l)
);
}
);
width = 966;
},
{
background = {
shapes = (
{
ref = b;
}
);
};
layerId = "C0ED73B8-BF3D-4D9D-8EF3-572E464554C2";
shapes = (
{
closed = 1;
nodes = (
(300,0,l),
(300,578,ls),
(300,631,o),
(307,654,o),
(322,654,cs),
(338,654,o),
(346,631,o),
(346,582,cs),
(346,533,o),
(338,510,o),
(322,510,cs),
(320,510,l),
(320,382,l),
(325,382,ls),
(353,382,o),
(366,356,o),
(366,301,cs),
(366,246,o),
(353,220,o),
(325,220,cs),
(320,220,l),
(320,0,l),
(377,0,ls),
(530,0,o),
(624,95,o),
(624,250,cs),
(624,355,o),
(581,438,o),
(510,468,c),
(510,486,l),
(552,513,o),
(578,569,o),
(578,632,cs),
(578,777,o),
(473,874,o),
(316,874,cs),
(134,874,o),
(32,771,o),
(32,588,cs),
(32,0,l)
);
}
);
width = 642;
},
{
background = {
shapes = (
{
ref = b;
}
);
};
layerId = m008;
shapes = (
{
closed = 1;
nodes = (
(352,0,l),
(352,578,ls),
(352,614,o),
(364,634,o),
(384,634,cs),
(406,634,o),
(418,612,o),
(418,572,cs),
(418,532,o),
(406,510,o),
(384,510,cs),
(382,510,l),
(382,382,l),
(387,382,ls),
(426,382,o),
(448,356,o),
(448,311,cs),
(448,266,o),
(426,240,o),
(387,240,cs),
(382,240,l),
(382,0,l),
(455,0,ls),
(628,0,o),
(744,100,o),
(744,250,cs),
(744,356,o),
(682,443,o),
(589,468,c),
(589,486,l),
(647,506,o),
(686,564,o),
(686,632,cs),
(686,774,o),
(562,874,o),
(370,874,cs),
(154,874,o),
(32,771,o),
(32,588,cs),
(32,0,l)
);
}
);
width = 762;
},
{
background = {
shapes = (
{
ref = b;
}
);
};
layerId = "434FAEF3-677A-47AD-84F7-3A7F762C5BD0";
shapes = (
{
closed = 1;
nodes = (
(452,0,l),
(452,568,ls),
(452,609,o),
(479,634,o),
(522,634,cs),
(567,634,o),
(594,610,o),
(594,572,cs),
(594,534,o),
(567,510,o),
(522,510,cs),
(510,510,l),
(510,382,l),
(535,382,ls),
(590,382,o),
(624,355,o),
(624,311,cs),
(624,267,o),
(590,240,o),
(535,240,cs),
(510,240,l),
(510,0,l),
(631,0,ls),
(880,0,o),
(1020,90,o),
(1020,250,cs),
(1020,361,o),
(961,440,o),
(857,468,c),
(857,486,l),
(924,509,o),
(962,559,o),
(962,626,cs),
(962,780,o),
(789,874,o),
(508,874,cs),
(194,874,o),
(32,777,o),
(32,588,cs),
(32,0,l)
);
}
);
width = 1038;
}
);
metricLeft = SQR;
metricRight = RND;
unicode = 223;
},
{
glyphname = t;
kernLeft = t_left;
kernRight = t_right;
lastChange = "2023-01-16 21:15:58 +0000";
layers = (
{
anchors = (
{
name = bottom;
pos = (352,0);
},
{
name = center;
pos = (293,300);
},
{
name = tcedilla;
pos = (342,0);
},
{
name = top;
pos = (293,600);
},
{
name = topright;
pos = (306,848);
}
);
layerId = m01;
shapes = (
{
closed = 1;
nodes = (
(472,-16,o),
(548,65,o),
(554,210,c),
(456,210,l),
(441,129,o),
(407,88,o),
(346,88,cs),
(291,88,o),
(262,129,o),
(262,210,cs),
(262,496,l),
(512,496,l),
(512,600,l),
(262,600,l),
(262,756,l),
(152,756,l),
(152,600,l),
(32,600,l),
(32,496,l),
(152,496,l),
(152,210,ls),
(152,65,o),
(220,-16,o),
(342,-16,cs)
);
}
);
width = 586;
},
{
anchors = (
{
name = bottom;
pos = (384,0);
},
{
name = center;
pos = (330,310);
},
{
name = tcedilla;
pos = (378,0);
},
{
name = top;
pos = (330,620);
},
{
name = topright;
pos = (360,848);
}
);
layerId = m002;
shapes = (
{
closed = 1;
nodes = (
(531,-20,o),
(626,80,o),
(638,250,c),
(478,250,l),
(464,181,o),
(430,140,o),
(388,140,cs),
(347,140,o),
(322,177,o),
(322,240,cs),
(322,460,l),
(604,460,l),
(604,620,l),
(322,620,l),
(322,780,l),
(142,780,l),
(142,620,l),
(22,620,l),
(22,460,l),
(142,460,l),
(142,240,ls),
(142,74,o),
(228,-20,o),
(382,-20,cs)
);
}
);
width = 660;
},
{
anchors = (
{
name = bottom;
pos = (476,0);
},
{
name = center;
pos = (395,300);
},
{
name = tcedilla;
pos = (466,0);
},
{
name = top;
pos = (395,600);
},
{
name = topright;
pos = (400,848);
}
);
layerId = m003;
shapes = (
{
closed = 1;
nodes = (
(631,-16,o),
(740,77,o),
(758,230,c),
(662,230,l),
(636,134,o),
(570,80,o),
(470,80,cs),
(370,80,o),
(314,134,o),
(314,230,cs),
(314,504,l),
(706,504,l),
(706,600,l),
(314,600,l),
(314,756,l),
(204,756,l),
(204,600,l),
(32,600,l),
(32,504,l),
(204,504,l),
(204,230,ls),
(204,75,o),
(303,-16,o),
(470,-16,cs)
);
}
);
width = 790;
},
{
anchors = (
{
name = bottom;
pos = (532,0);
},
{
name = center;
pos = (441,310);
},
{
name = tcedilla;
pos = (510,0);
},
{
name = top;
pos = (441,620);
},
{
name = topright;
pos = (462,848);
}
);
layerId = m004;
shapes = (
{
closed = 1;
nodes = (
(717,-20,o),
(836,84,o),
(856,270,c),
(692,270,l),
(670,179,o),
(615,132,o),
(524,132,cs),
(433,132,o),
(386,179,o),
(386,270,cs),
(386,468,l),
(806,468,l),
(806,620,l),
(386,620,l),
(386,780,l),
(206,780,l),
(206,620,l),
(26,620,l),
(26,468,l),
(206,468,l),
(206,270,ls),
(206,84,o),
(320,-20,o),
(524,-20,cs)
);
}
);
width = 882;
},
{
anchors = (
{
name = bottom;
pos = (249,0);
},
{
name = center;
pos = (249,300);
},
{
name = tcedilla;
pos = (286,0);
},
{
name = top;
pos = (249,600);
},
{
name = topright;
pos = (278,848);
}
);
layerId = m005;
shapes = (
{
closed = 1;
nodes = (
(398,-16,o),
(462,61,o),
(470,210,c),
(372,210,l),
(357,123,o),
(335,86,o),
(292,86,cs),
(256,86,o),
(238,121,o),
(238,190,cs),
(238,498,l),
(438,498,l),
(438,600,l),
(238,600,l),
(238,756,l),
(128,756,l),
(128,600,l),
(28,600,l),
(28,498,l),
(128,498,l),
(128,190,ls),
(128,53,o),
(182,-16,o),
(288,-16,cs)
);
}
);
width = 498;
},
{
anchors = (
{
name = bottom;
pos = (330,0);
},
{
name = center;
pos = (281,310);
},
{
name = tcedilla;
pos = (328,0);
},
{
name = top;
pos = (281,620);
},
{
name = topright;
pos = (322,848);
}
);
layerId = m006;
shapes = (
{
closed = 1;
nodes = (
(462,-20,o),
(538,72,o),
(544,250,c),
(388,250,l),
(378,169,o),
(362,134,o),
(336,134,cs),
(310,134,o),
(298,160,o),
(298,220,cs),
(298,466,l),
(514,466,l),
(514,620,l),
(298,620,l),
(298,780,l),
(118,780,l),
(118,620,l),
(18,620,l),
(18,466,l),
(118,466,l),
(118,220,ls),
(118,62,o),
(187,-20,o),
(320,-20,cs)
);
}
);
width = 562;
},
{
anchors = (
{
name = bottom;
pos = (332,0);
},
{
name = center;
pos = (267,294);
},
{
name = tcedilla;
pos = (326,0);
},
{
name = top;
pos = (267,588);
},
{
name = topright;
pos = (274,848);
}
);
layerId = m007;
shapes = (
{
closed = 1;
nodes = (
(428,-12,o),
(492,61,o),
(502,190,c),
(463,190,l),
(454,84,o),
(404,24,o),
(324,24,cs),
(245,24,o),
(200,84,o),
(200,190,cs),
(200,552,l),
(484,552,l),
(484,588,l),
(200,588,l),
(200,726,l),
(160,726,l),
(160,588,l),
(32,588,l),
(32,552,l),
(160,552,l),
(160,190,ls),
(160,61,o),
(219,-12,o),
(324,-12,cs)
);
}
);
width = 534;
},
{
anchors = (
{
name = bottom;
pos = (404,0);
},
{
name = center;
pos = (353,320);
},
{
name = tcedilla;
pos = (396,0);
},
{
name = top;
pos = (353,640);
},
{
name = topright;
pos = (466,848);
}
);
layerId = m008;
shapes = (
{
closed = 1;
nodes = (
(593,-26,o),
(688,75,o),
(696,290,c),
(472,290,l),
(470,237,o),
(464,214,o),
(452,214,cs),
(441,214,o),
(436,227,o),
(436,256,cs),
(436,370,l),
(670,370,l),
(670,610,l),
(436,610,l),
(436,780,l),
(116,780,l),
(116,610,l),
(10,610,l),
(10,370,l),
(116,370,l),
(116,276,ls),
(116,71,o),
(207,-26,o),
(400,-26,cs)
);
}
);
width = 706;
},
{
anchors = (
{
name = bottom;
pos = (274,0);
},
{
name = center;
pos = (226,294);
},
{
name = tcedilla;
pos = (276,0);
},
{
name = top;
pos = (226,588);
},
{
name = topright;
pos = (232,848);
}
);
layerId = m009;
shapes = (
{
closed = 1;
nodes = (
(367,-12,o),
(418,57,o),
(424,190,c),
(386,190,l),
(381,80,o),
(343,24,o),
(273,24,cs),
(209,24,o),
(176,74,o),
(176,170,cs),
(176,554,l),
(406,554,l),
(406,588,l),
(176,588,l),
(176,726,l),
(136,726,l),
(136,588,l),
(28,588,l),
(28,554,l),
(136,554,l),
(136,170,ls),
(136,50,o),
(183,-12,o),
(273,-12,cs)
);
}
);
width = 452;
},
{
anchors = (
{
name = bottom;
pos = (444,0);
},
{
name = center;
pos = (364,294);
},
{
name = tcedilla;
pos = (434,0);
},
{
name = top;
pos = (364,588);
},
{
name = topright;
pos = (358,848);
}
);
layerId = m010;
shapes = (
{
closed = 1;
nodes = (
(582,-12,o),
(676,68,o),
(692,210,c),
(653,210,l),
(639,91,o),
(559,24,o),
(431,24,cs),
(311,24,o),
(244,91,o),
(244,210,cs),
(244,554,l),
(664,554,l),
(664,588,l),
(244,588,l),
(244,726,l),
(204,726,l),
(204,588,l),
(36,588,l),
(36,554,l),
(204,554,l),
(204,210,ls),
(204,68,o),
(286,-12,o),
(431,-12,cs)
);
}
);
width = 728;
},
{
anchors = (
{
name = bottom;
pos = (568,0);
},
{
name = center;
pos = (494,320);
},
{
name = tcedilla;
pos = (544,0);
},
{
name = top;
pos = (494,640);
},
{
name = topright;
pos = (608,848);
}
);
layerId = "434FAEF3-677A-47AD-84F7-3A7F762C5BD0";
shapes = (
{
closed = 1;
nodes = (
(833,-26,o),
(970,75,o),
(978,290,c),
(642,290,l),
(638,237,o),
(625,214,o),
(600,214,cs),
(576,214,o),
(566,227,o),
(566,256,cs),
(566,370,l),
(938,370,l),
(938,610,l),
(566,610,l),
(566,780,l),
(166,780,l),
(166,610,l),
(10,610,l),
(10,370,l),
(166,370,l),
(166,276,ls),
(166,71,o),
(289,-26,o),
(550,-26,cs)
);
}
);
width = 988;
},
{
anchors = (
{
name = bottom;
pos = (344,0);
},
{
name = center;
pos = (300,320);
},
{
name = tcedilla;
pos = (338,0);
},
{
name = top;
pos = (300,640);
},
{
name = topright;
pos = (400,848);
}
);
layerId = "C0ED73B8-BF3D-4D9D-8EF3-572E464554C2";
shapes = (
{
closed = 1;
nodes = (
(506,-26,o),
(586,75,o),
(590,290,c),
(404,290,l),
(402,213,o),
(398,194,o),
(384,194,cs),
(371,194,o),
(368,206,o),
(368,256,cs),
(368,390,l),
(570,390,l),
(570,610,l),
(368,610,l),
(368,780,l),
(96,780,l),
(96,610,l),
(10,610,l),
(10,390,l),
(96,390,l),
(96,256,ls),
(96,64,o),
(174,-26,o),
(340,-26,cs)
);
}
);
width = 600;
}
);
metricLeft = "=TNG*2";
metricRight = "=TNG*2";
unicode = 116;
},
